<?xml version="1.0" encoding="UTF-8" standalone="no"?>
<!-- Created with Inkscape (http://www.inkscape.org/) -->

<svg
   xmlns:dc="http://purl.org/dc/elements/1.1/"
   xmlns:cc="http://creativecommons.org/ns#"
   xmlns:rdf="http://www.w3.org/1999/02/22-rdf-syntax-ns#"
   xmlns:svg="http://www.w3.org/2000/svg"
   xmlns="http://www.w3.org/2000/svg"
   xmlns:sodipodi="http://sodipodi.sourceforge.net/DTD/sodipodi-0.dtd"
   xmlns:inkscape="http://www.inkscape.org/namespaces/inkscape"
   width="96"
   height="96"
   id="svg2"
   version="1.1"
   inkscape:version="0.92.2 5c3e80d, 2017-08-06"
   sodipodi:docname="cesi_logo.svg">
  <defs
     id="defs4" />
  <sodipodi:namedview
     id="base"
     pagecolor="#ffffff"
     bordercolor="#666666"
     borderopacity="1.0"
     inkscape:pageopacity="0.0"
     inkscape:pageshadow="2"
     inkscape:zoom="2.3699126"
     inkscape:cx="46.586175"
     inkscape:cy="125.03388"
     inkscape:document-units="px"
     inkscape:current-layer="g852"
     showgrid="false"
     inkscape:showpageshadow="false"
     inkscape:window-width="1920"
     inkscape:window-height="1035"
     inkscape:window-x="0"
     inkscape:window-y="1"
     inkscape:window-maximized="1" />
  <metadata
     id="metadata7">
    <rdf:RDF>
      <cc:Work
         rdf:about="">
        <dc:format>image/svg+xml</dc:format>
        <dc:type
           rdf:resource="http://purl.org/dc/dcmitype/StillImage" />
        <dc:title></dc:title>
      </cc:Work>
    </rdf:RDF>
  </metadata>
  <g
     inkscape:label="Livello 1"
     inkscape:groupmode="layer"
     id="layer1"
     transform="translate(0,-956.36218)">
    <g
       id="g852"
       transform="matrix(0.13273652,0,0,0.13273652,-2.73652,917.41181)">
      <g
         id="g927"
         transform="matrix(0.36507935,0,0,0.36507935,17.155279,635.94387)">
        <path
           inkscape:connector-curvature="0"
           id="path3753"
           d="m 999.99944,-896.88774 c -251.75454,-10e-6 -493.20223,100.01322 -671.21957,278.03056 -178.01734,178.01734 -278.028307,419.46503 -278.028319,671.21956 0,251.75461 100.010969,493.20226 278.028319,671.21963 178.01734,178.01726 419.46502,278.02829 671.21957,278.02829 251.75456,0 493.20446,-100.01103 671.22186,-278.02829 178.0173,-178.01737 278.0283,-419.46502 278.0282,-671.21963 0,-251.75454 -100.0109,-493.20222 -278.0282,-671.21956 -178.0174,-178.01734 -419.4674,-278.03057 -671.22186,-278.03056 z m 0,10.00147 c 249.10626,-1e-5 488.00516,98.95417 664.14986,275.09886 176.1447,176.14469 275.0988,415.04357 275.0988,664.14979 0,249.10624 -98.9541,488.00513 -275.0988,664.14984 C 1488.0046,892.65693 1249.1057,991.61111 999.99944,991.611 750.89321,991.611 511.99434,892.65693 335.84965,716.51222 159.70494,540.36751 60.750765,301.46862 60.750777,52.36238 c 1.1e-5,-249.1062 98.954173,-488.0051 275.098873,-664.14979 176.14469,-176.14469 415.04357,-275.09886 664.14979,-275.09886 z"
           style="color:#000000;font-style:normal;font-variant:normal;font-weight:normal;font-stretch:normal;font-size:medium;line-height:normal;font-family:sans-serif;font-variant-ligatures:normal;font-variant-position:normal;font-variant-caps:normal;font-variant-numeric:normal;font-variant-alternates:normal;font-feature-settings:normal;text-indent:0;text-align:start;text-decoration:none;text-decoration-line:none;text-decoration-style:solid;text-decoration-color:#000000;letter-spacing:normal;word-spacing:normal;text-transform:none;writing-mode:lr-tb;direction:ltr;text-orientation:mixed;dominant-baseline:auto;baseline-shift:baseline;text-anchor:start;white-space:normal;shape-padding:0;clip-rule:nonzero;display:inline;overflow:visible;visibility:visible;opacity:1;isolation:auto;mix-blend-mode:normal;color-interpolation:sRGB;color-interpolation-filters:linearRGB;solid-color:#000000;solid-opacity:1;vector-effect:none;fill:#6c5d53;fill-opacity:1;fill-rule:nonzero;stroke:none;stroke-width:10;stroke-linecap:round;stroke-linejoin:round;stroke-miterlimit:4;stroke-dasharray:none;stroke-dashoffset:0;stroke-opacity:1;color-rendering:auto;image-rendering:auto;shape-rendering:auto;text-rendering:auto;enable-background:accumulate" />
        <circle
           transform="matrix(0.72702582,0,0,0.72702582,179.46013,-680.16448)"
           id="path3755"
           style="opacity:0;fill:none;stroke:#000000;stroke-width:13.75467014;stroke-linecap:round;stroke-linejoin:round;stroke-miterlimit:4;stroke-dasharray:none;stroke-opacity:1"
           cx="1128.6255"
           cy="1007.5662"
           r="820.93317" />
        <g
           id="text3757"
           style="font-style:normal;font-variant:normal;font-weight:normal;font-stretch:normal;font-size:187.77505493px;line-height:0%;font-family:'License Plate';-inkscape-font-specification:'License Plate';letter-spacing:0px;word-spacing:0px;fill:#6c5d53;fill-opacity:1;stroke:none"
           transform="matrix(-0.52271081,1.1033096,-1.1033096,-0.52271081,1580.6253,-1024.2063)"
           aria-label="CENTRO ELABORAZIONE SISTEMI INFORMATIVI">
          <path
             inkscape:connector-curvature="0"
             id="path874"
             style="fill:#6c5d53;fill-opacity:1"
             d="m 1713.613,120.05849 q 0.3102,-4.48195 3.5116,-4.26038 8.0492,0.55709 8.9988,-13.16314 0.9622,-13.903174 -10.2884,-14.681832 l -84.8825,-5.874751 q -12.6226,-0.873616 -13.5848,13.029555 -0.9496,13.720238 8.5694,14.287148 3.1036,0.3067 2.7617,5.24599 l -0.4494,6.49424 q -0.3988,5.7625 -3.3195,5.46845 -28.5444,-1.88366 -26.4047,-32.799922 2.203,-31.830944 33.6681,-29.653234 l 84.8825,5.874751 q 29.7272,2.057429 27.89,33.913695 -2.5056,30.89094 -29.0313,29.05508 -3.2014,-0.22157 -2.8532,-5.25232 z" />
          <path
             inkscape:connector-curvature="0"
             id="path876"
             style="fill:#6c5d53;fill-opacity:1"
             d="m 1735.7986,179.45232 -10.7238,50.96216 q -1.553,6.04446 -7.0261,4.89278 l -4.845,-1.01952 q -6.9086,-1.45376 -5.7522,-7.3943 l 7.2877,-34.63274 q 0.6985,-3.31971 -3.1784,-4.04183 l -33.7544,-7.00916 q -4.0375,-0.8496 -5.1514,4.444 l -3.5494,16.86776 q -0.9818,4.66555 -7.0829,3.38171 l -6.46,-1.35936 q -4.9489,-1.41617 -4.0427,-5.72283 l 3.776,-17.94443 q 0.996,-4.28778 -4.836,-5.51498 l -37.9524,-7.98624 q -4.3964,-0.92512 -5.1516,2.66376 l -7.1933,34.18413 q -1.9638,5.77062 -7.2008,4.38753 l -5.8319,-1.2272 q -6.12,-1.19412 -4.8739,-7.11578 l 10.214,-48.53966 q 1.4114,-6.26167 7.333,-5.01559 l 132.1607,27.81025 q 4.6656,0.98176 3.8348,4.92954 z" />
          <path
             inkscape:connector-curvature="0"
             id="path878"
             style="fill:#6c5d53;fill-opacity:1"
             d="m 1709.2924,286.73313 q -1.6465,4.57198 -7.4678,4.22975 l -66.3115,-3.12296 q -6.2354,-0.004 -7.3571,2.02823 -0.8939,2.2118 4.1404,3.92732 l 60.6436,21.83889 q 5.231,1.98125 3.5535,6.6395 l -2.7338,7.59122 q -1.3979,3.88188 -6.66,1.98689 L 1559.084,285.7511 q -4.6582,-1.67752 -3.2913,-5.47313 l 2.5163,-6.98738 q 1.7396,-4.83078 6.3291,-5.12705 l 70.2003,4.23104 q 3.4472,0.16944 4.5309,-1.48677 0.573,-2.13247 -6.9009,-4.92141 l -58.6594,-21.12439 q -4.6583,-1.67752 -2.5769,-7.4572 l 1.895,-5.2621 q 2.0814,-5.77968 6.7396,-4.10216 l 128.0157,46.10087 q 5.262,1.89498 3.2428,7.50214 z" />
          <path
             inkscape:connector-curvature="0"
             id="path880"
             style="fill:#6c5d53;fill-opacity:1"
             d="m 1673.6217,375.17398 -26.8566,51.13967 q -1.4494,2.75992 -4.4528,1.18263 l -11.1209,-5.84026 q -2.7599,-1.4494 -1.6942,-3.47875 l 7.9718,-15.17956 q 1.6199,-3.08461 -1.7509,-4.75125 l -106.7013,-56.13907 q -2.5975,-1.36415 -1.3613,-3.7182 l 5.9681,-11.36437 q 1.3642,-2.59757 3.9618,-1.23342 l 106.7865,55.97672 q 3.3282,1.74781 4.9481,-1.3368 l 7.7586,-14.77369 q 1.3215,-2.51639 4.2823,-0.85792 l 11.0011,5.67381 q 2.9223,1.53467 1.2597,4.70046 z" />
          <path
             inkscape:connector-curvature="0"
             id="path882"
             style="fill:#6c5d53;fill-opacity:1"
             d="m 1608.0097,485.59414 q -19.0065,26.53601 -41.0702,10.73283 l -22.3618,-16.01674 q -12.2244,-8.75581 -7.3305,-26.45306 0.1078,-0.9378 -2.5343,-1.81523 l -59.3822,-21.3302 q -1.0547,-0.41705 -1.8001,-0.95094 -3.7269,-2.66945 -0.3634,-7.36543 l 2.9364,-4.09967 q 3.0965,-4.32328 9.2642,-1.59735 l 54.4887,22.33637 q 4.282,2.05199 6.9494,-0.0975 l 2.883,-4.02513 q 3.1288,-4.52575 -2.6107,-8.63671 l -45.3199,-32.46059 q -5.3669,-3.84401 -1.8966,-8.68907 l 2.7763,-3.87605 q 3.4169,-4.77051 8.7837,-0.9265 l 108.6038,77.78795 q 5.0687,3.63046 2.3459,7.43196 z m -37.228,-42.34105 q -6.7831,-4.85841 -9.7729,-0.68421 l -6.6202,9.24288 q -5.2855,7.3794 0.599,14.75202 l 21.9891,15.74979 q 4.4723,3.20335 8.972,1.8023 4.5208,-1.27312 8.2581,-6.49088 l 3.6304,-5.06867 q 4.6983,-6.55947 -0.072,-9.97637 z" />
          <path
             inkscape:connector-curvature="0"
             id="path884"
             style="fill:#6c5d53;fill-opacity:1"
             d="m 1541.3675,566.71034 q -20.7775,21.8684 -39.6548,3.93286 l -61.6835,-58.60629 q -25.6605,-24.5068 -4.9462,-46.30874 21.4722,-22.59957 46.1987,0.89347 l 62.6806,59.55358 q 18.8773,17.93555 -2.5948,40.53512 z m -11.7273,-32.51599 -61.7102,-57.11397 q -10.5021,-9.97822 -20.3574,0.26137 -9.5328,10.16649 0.9693,20.14472 l 60.9524,57.91159 q 10.4357,9.91508 19.9087,-0.0553 10.6729,-11.23332 0.2372,-21.14839 z" />
          <path
             inkscape:connector-curvature="0"
             id="path886"
             style="fill:#6c5d53;fill-opacity:1"
             d="m 1403.4556,680.67301 -44.8159,26.52689 q -5.5054,2.93905 -8.3542,-1.87393 l -2.5219,-4.26067 q -3.5961,-6.0754 1.5647,-9.23665 l 30.4559,-18.02708 q 2.9193,-1.72798 0.8322,-5.07403 l -17.6389,-29.62018 q -2.1016,-3.55056 -6.7568,-0.79512 l -14.8335,8.78003 q -4.1028,2.42851 -7.2786,-2.93677 l -3.3625,-5.68089 q -2.2998,-4.60528 1.4875,-6.84699 l 15.7803,-9.34046 q 3.8339,-2.16281 0.7983,-7.29139 l -19.7551,-33.37524 q -2.2884,-3.86616 -5.4445,-1.99807 l -30.0613,17.79357 q -5.5811,2.45114 -8.0999,-2.34414 l -3.0356,-5.12859 q -3.2547,-5.31858 1.9528,-8.40093 l 42.6856,-25.26593 q 5.5698,-3.19026 8.6521,2.01723 l 68.7925,116.22157 q 2.4285,4.10287 -1.0432,6.15777 z" />
          <path
             inkscape:connector-curvature="0"
             id="path888"
             style="fill:#6c5d53;fill-opacity:1"
             d="m 1311.8623,730.96725 -6.683,2.79332 q -4.8219,2.01543 -7.1695,-3.36328 l -45.7046,-109.58572 q -1.4143,-3.38379 -5.4749,-1.68658 l -30.0312,12.55225 q -7.0213,2.93476 -9.1214,-1.85179 l -2.2844,-5.70322 q -2.6304,-6.05547 4.391,-8.99022 l 45.6812,-19.09358 q 4.7373,-1.98007 6.576,2.41886 l 52.1537,124.77743 q 2.4044,5.75245 -2.3329,7.73253 z" />
          <path
             inkscape:connector-curvature="0"
             id="path890"
             style="fill:#6c5d53;fill-opacity:1"
             d="m 1196.4653,772.92899 -10.9948,2.89383 q -3.8361,-0.88653 -5.4136,-4.35852 L 1125.171,647.58304 q -1.6803,-6.38404 3.0984,-8.40027 l 9.2213,-2.42708 q 5.1475,0.82581 7.3179,9.07186 3.5658,11.38672 9.1146,10.49515 l 8.8433,-2.4224 q 5.7821,-1.80627 3.8029,-12.56771 l -1.097,-7.77009 q -0.094,-3.9574 3.7612,-5.16157 l 9.6648,-2.54377 q 4.5034,0.9005 5.6703,5.33386 l 13.9497,135.12977 q 0.3408,4.17673 -2.0531,6.6082 z m -23.3373,-88.66725 -0.7564,-7.1961 q -1.4656,-7.00939 -4.2843,-6.55194 l -8.6007,2.26372 q -3.15,0.63947 -0.6577,7.9475 l 6.9075,17.23868 q 2.0862,5.04467 5.2176,4.69454 4.144,-1.18552 3.3644,-6.66892 z" />
          <path
             inkscape:connector-curvature="0"
             id="path892"
             style="fill:#6c5d53;fill-opacity:1"
             d="m 1115.2139,790.74617 -26.492,3.16914 q -7.4285,0.42694 -10.3269,0.12728 -12.143,-2.70272 -17.195,-8.65456 -5.143,-5.94095 -6.0883,-9.9832 l -3.5246,-30.23549 q -0.5934,-10.36353 4.2264,-16.3882 l -0.4792,-4.00567 q -3.4508,-3.37317 -5.3282,-7.48859 -1.8774,-4.11543 -3.0366,-10.71764 l -3.2454,-27.12931 q -2.5972,-27.11451 14.325,-29.23118 l 39.6925,-4.74827 q 5.4623,-0.65343 6.3118,6.44753 l 15.82,133.01734 q 0.213,4.86858 -4.6595,5.82082 z m -16.1618,-25.49182 -3.1583,-26.40101 q -0.6961,-8.13505 -4.7018,-7.65587 l -9.9231,1.18707 q -11.9151,1.5177 -10.1796,15.25354 l 1.6989,14.20192 q 1.7425,14.56607 13.6685,13.13942 l 9.741,-1.16529 q 3.9147,-0.46829 2.8544,-8.55978 z m -7.0423,-59.64075 -4.1057,-34.32131 q -0.7515,-6.28162 -4.6661,-5.81333 l -9.7411,1.16529 q -11.9259,1.42666 -10.8587,10.34838 l 3.7028,30.9529 q 1.0128,8.46653 12.8478,7.05076 l 9.8321,-1.17617 q 3.7216,-0.53755 2.9889,-8.20652 z" />
          <path
             inkscape:connector-curvature="0"
             id="path894"
             style="fill:#6c5d53;fill-opacity:1"
             d="m 985.68191,798.97297 q -30.1595,-0.57812 -29.66045,-26.61246 l 1.63068,-85.06994 q 0.7717,-35.47461 30.83953,-34.89825 31.16783,0.59745 30.51423,34.69876 l -1.6571,86.445 q -0.499,26.03434 -31.66689,25.43689 z m 16.08439,-30.59589 0.5114,-84.08266 q 0.2776,-14.48389 -13.92953,-14.84793 -13.93563,-0.17542 -14.21326,14.30847 l -1.61136,84.06157 q -0.27588,14.39222 13.47465,14.6558 15.4923,0.29697 15.7681,-14.09525 z" />
          <path
             inkscape:connector-curvature="0"
             id="path896"
             style="fill:#6c5d53;fill-opacity:1"
             d="m 884.7605,789.98376 q -32.23694,-5.11742 -27.98201,-31.92116 l 4.31243,-27.16595 q 2.35747,-14.85073 20.37332,-18.39644 0.88686,-0.32339 0.48875,-3.07881 l -7.5079,-62.64866 q -0.0992,-1.12976 0.0446,-2.03529 0.71874,-4.52766 6.42359,-3.62205 l 4.98043,0.79061 q 5.25208,0.83374 5.57539,7.56919 l 4.41764,58.7232 q 0.0819,4.74759 3.19804,6.17061 l 4.88987,0.77624 q 5.44756,0.77193 6.55442,-6.20066 l 8.73986,-55.05634 q 1.03499,-6.51983 6.92094,-5.58547 l 4.70877,0.74749 q 5.7954,0.91998 4.76042,7.43981 L 914.715,788.42607 q -0.97749,6.15762 -5.5957,5.42451 z m 21.19737,-52.24326 q 1.30811,-8.24034 -3.76287,-9.04533 l -11.22859,-1.78247 q -8.96477,-1.4231 -12.92336,7.13917 l -4.24056,26.71319 q -0.86248,5.43319 2.40458,8.8297 3.16213,3.4727 9.50086,4.47893 l 6.15761,0.97748 q 7.96868,1.26498 8.88867,-4.53042 z" />
          <path
             inkscape:connector-curvature="0"
             id="path898"
             style="fill:#6c5d53;fill-opacity:1"
             d="m 788.67929,768.71275 -10.8757,-3.31329 q -2.79847,-2.7695 -2.3169,-6.55254 l 18.37339,-134.244 q 1.92385,-6.31492 7.04921,-5.52025 l 9.12155,2.77888 q 3.94621,3.40671 1.46124,11.56348 -2.94736,11.56226 2.24246,13.71842 l 8.79743,2.5843 q 5.86884,1.5004 9.83789,-8.69627 l 3.14828,-7.18791 q 1.99931,-3.4165 5.91187,-2.41623 l 9.56008,2.91248 q 3.35899,3.13196 2.02298,7.51732 l -59.11541,122.31115 q -1.90406,3.73307 -5.21837,4.54446 z m 26.72006,-87.70719 3.13665,-6.52052 q 2.435,-6.73428 -0.20377,-7.82572 l -8.50759,-2.59185 q -3.01631,-1.11061 -4.73456,6.41711 l -3.17805,18.29715 q -0.87483,5.38848 1.97362,6.7355 4.14895,1.16814 6.36611,-3.90726 z" />
          <path
             inkscape:connector-curvature="0"
             id="path900"
             style="fill:#6c5d53;fill-opacity:1"
             d="m 686.46965,706.25375 q -1.62926,1.77133 0.86642,2.92783 l 32.19419,14.91874 q 2.75133,1.47707 1.32499,4.55506 l -5.12711,11.06416 q -1.50344,3.24438 -4.66463,1.77949 L 658.65436,717.2127 q -3.49394,-1.61909 -1.9905,-4.86346 0.69389,-1.49741 2.32315,-3.26874 l 84.32978,-87.33903 q 3.81648,-4.09252 0.073,-5.82726 l -31.11274,-14.41759 q -2.82843,-1.31069 -1.40209,-4.38869 l 5.28131,-11.39691 q 1.31069,-2.82843 4.13912,-1.51774 l 53.07467,24.59472 q 1.41422,0.65534 1.61713,1.96201 0.65132,1.2113 -0.11967,2.87508 -0.6168,1.33103 -1.97011,2.72496 z" />
          <path
             inkscape:connector-curvature="0"
             id="path902"
             style="fill:#6c5d53;fill-opacity:1"
             d="M 610.20568,689.21315 580.52889,670.0992 q -4.16246,-2.68092 -0.91322,-7.8951 l 4.69422,-7.11904 q 2.73057,-4.23954 7.01975,-1.58606 l 4.26698,2.8573 q 3.25315,3.07678 5.93407,-1.08568 l 51.03673,-79.2409 q 4.71643,-7.32284 2.01854,-9.06047 l -5.31869,-3.42562 q -4.1899,-2.80765 -1.3104,-7.27844 l 4.96467,-7.70826 q 2.68092,-4.16246 6.92046,-1.43189 l 29.59971,19.0643 q 4.39371,2.82986 1.71279,6.99232 l -4.91502,7.63118 q -2.9788,4.62495 -7.3725,1.79509 l -3.93121,-2.53197 q -3.16039,-2.03552 -5.24555,1.20195 l -53.66801,83.32628 q -2.2341,3.46871 0.54088,5.25599 l 4.31662,2.78021 q 4.39371,2.82986 1.66314,7.0694 l -4.64457,7.04196 q -3.29889,5.29126 -7.6926,2.4614 z" />
          <path
             inkscape:connector-curvature="0"
             id="path904"
             style="fill:#6c5d53;fill-opacity:1"
             d="m 512.97427,618.4367 q -22.86619,-19.67401 -5.88315,-39.41261 l 55.49387,-64.49795 q 23.21188,-26.83751 46.00856,-7.2233 23.63072,20.33181 1.38533,46.18659 l -56.39086,65.54048 q -16.98304,19.73859 -40.61375,-0.59321 z m 31.89826,-13.31611 54.00205,-64.45101 q 9.44831,-10.98133 -1.26471,-20.31975 -10.62412,-9.02001 -20.07243,1.96132 l -54.83608,63.73343 q -9.38851,10.91183 1.03681,19.88174 11.74585,10.1061 21.13436,-0.80573 z" />
          <path
             inkscape:connector-curvature="0"
             id="path906"
             style="fill:#6c5d53;fill-opacity:1"
             d="m 452.70187,560.78163 q -3.21187,-3.64661 -0.10566,-8.58177 l 34.70425,-56.5914 q 3.00962,-5.46098 1.76981,-7.42349 -1.50684,-1.8495 -5.43686,1.73418 l -48.36919,42.60278 q -4.25764,3.62788 -7.53012,-0.0875 l -5.33292,-6.05475 q -2.72706,-3.09617 1.46998,-6.79286 l 102.10508,-89.93245 q 3.71542,-3.27248 6.38188,-0.2451 l 4.90871,5.57312 q 3.39368,3.85302 1.44072,8.01676 l -37.54982,59.46428 q -1.81033,2.93849 -0.88172,4.68638 1.59205,1.53009 7.63859,-3.67342 l 46.7867,-41.20894 q 3.71541,-3.27248 7.7757,1.33739 l 3.69669,4.19704 q 4.06029,4.60987 0.34488,7.88234 l -102.10509,89.93245 q -4.19704,3.69669 -8.13613,-0.77557 z" />
          <path
             inkscape:connector-curvature="0"
             id="path908"
             style="fill:#6c5d53;fill-opacity:1"
             d="m 392.35189,486.31537 -28.70534,-43.45281 q -3.20705,-5.35371 1.45954,-8.4365 l 4.13108,-2.72903 q 5.89061,-3.89139 9.30259,1.10717 l 19.5075,29.52955 q 1.86989,2.83055 5.10891,0.58093 l 28.714,-19.07862 q 3.44256,-2.27419 0.46085,-6.78778 l -9.50107,-14.38226 q -2.62795,-3.97808 2.57415,-7.41463 l 5.5081,-3.63871 q 4.48623,-2.52409 6.91203,1.14798 l 10.10752,15.30028 q 2.3493,3.72261 7.32189,0.43766 l 32.3601,-21.37738 q 3.74857,-2.47634 1.72707,-5.5364 L 470.086,372.43778 q -2.72347,-5.4534 1.94173,-8.20561 l 4.97259,-3.28494 q 5.15156,-3.51306 8.48704,1.53604 l 27.34082,41.38727 q 3.46113,5.40564 -1.58797,8.74111 l -112.6866,74.44183 q -3.97807,2.62795 -6.20172,-0.73811 z" />
          <path
             inkscape:connector-curvature="0"
             id="path910"
             style="fill:#6c5d53;fill-opacity:1"
             d="m 288.38523,278.72139 q -9.06068,-28.57978 20.39311,-37.91755 7.34159,-2.32751 9.03181,3.00388 l 1.91189,6.0306 q 1.69022,5.3314 -5.65138,7.65891 -13.19739,4.18399 -9.37362,16.24518 3.71294,11.71159 16.91033,7.52761 11.4494,-3.62981 14.51076,-10.65998 l 15.9438,-25.25341 q 8.46558,-17.59243 36.86216,-29.96148 30.15299,-9.55944 39.24138,19.10775 9.42089,29.71598 -16.1873,37.83457 -4.5448,1.44085 -7.42648,-7.64875 -2.82627,-8.9148 0.52264,-9.88032 11.36199,-3.6021 7.62134,-15.4011 -3.82377,-12.06119 -14.31176,-8.73617 l -4.16749,1.41741 q -24.10338,12.25837 -34.87998,37.12401 l -9.03035,14.5974 q -6.12258,10.11672 -22.99077,15.46446 -29.45378,9.33777 -38.93009,-20.55302 z" />
          <path
             inkscape:connector-curvature="0"
             id="path912"
             style="fill:#6c5d53;fill-opacity:1"
             d="m 266.96046,194.39222 -5.91701,-34.80006 q -0.82992,-4.88105 5.21082,-6.00115 l 8.42162,-1.33892 q 4.97144,-0.84529 5.90711,4.11078 l 0.77027,5.0772 q -0.0758,4.47703 4.80525,3.64711 l 92.92068,-15.79921 q 8.58703,-1.46005 8.04912,-4.62369 l -1.06045,-6.23689 q -0.7549,-4.98681 4.4877,-5.8782 l 9.03898,-1.53689 q 4.88105,-0.82992 5.72634,4.14152 l 5.90165,34.70967 q 0.87602,5.15221 -4.00502,5.98213 l -8.94859,1.52152 q -5.42339,0.92214 -6.29941,-4.23008 l -0.78382,-4.60988 q -0.63012,-3.70598 -4.42649,-3.06049 l -97.71134,16.61376 q -4.06754,0.6916 -3.51426,3.94564 l 0.86066,5.06182 q 0.87602,5.15222 -4.09542,5.99751 l -8.33122,1.32355 q -6.13114,1.13547 -7.00717,-4.01675 z" />
          <path
             inkscape:connector-curvature="0"
             id="path914"
             style="fill:#6c5d53;fill-opacity:1"
             d="m 253.60631,75.382526 q -0.89442,-29.968317 29.99036,-30.890098 7.69828,-0.229761 7.86513,5.360659 l 0.18873,6.323589 q 0.16685,5.59042 -7.53143,5.820182 -13.83858,0.413023 -13.46112,13.060203 0.36653,12.280595 14.20511,11.867571 12.00566,-0.358318 16.87388,-6.282469 l 22.2455,-19.926787 q 12.95639,-14.604513 43.65379,-18.731176 31.61795,-0.943663 32.51511,29.1163 0.92999,31.15972 -25.92236,31.96115 -4.7656,0.14223 -5.05007,-9.388977 -0.27899,-9.347915 3.2063,-9.360209 11.91401,-0.355583 11.54475,-12.727824 -0.37747,-12.64718 -11.37501,-12.318949 l -4.39629,0.222938 q -26.53776,5.194979 -43.70717,26.162727 l -12.68006,11.569246 q -8.65719,8.055248 -26.34491,8.583158 -30.88478,0.92178 -31.82024,-30.421234 z" />
          <path
             inkscape:connector-curvature="0"
             id="path916"
             style="fill:#6c5d53;fill-opacity:1"
             d="m 254.94123,-1.1440474 6.24813,-57.4239136 q 0.3372,-3.099069 3.70972,-2.732115 l 12.48742,1.35872 q 3.09907,0.337201 2.85113,2.615928 l -1.85461,17.044876 q -0.37687,3.463665 3.37016,3.77914 l 119.85111,13.132881 q 2.91677,0.317366 2.62916,2.960689 l -1.38848,12.7608695 q -0.31736,2.9167702 -3.23413,2.5994049 L 279.73989,-17.998151 q -3.73711,-0.406624 -4.11398,3.05704 L 273.8209,1.6480199 q -0.30745,2.8256212 -3.67005,2.3675184 l -12.31504,-1.247736 q -3.28137,-0.357036 -2.89458,-3.9118497 z" />
          <path
             inkscape:connector-curvature="0"
             id="path918"
             style="fill:#6c5d53;fill-opacity:1"
             d="m 269.71181,-103.29858 12.7016,-50.50557 q 1.78737,-5.97935 7.21138,-4.61528 l 4.80158,1.20755 q 6.84671,1.72187 5.45974,7.61284 l -8.63172,34.32244 q -0.82739,3.28998 3.01846,4.16263 l 33.45562,8.31917 q 4.00132,1.00629 5.32068,-4.23988 l 4.20405,-16.71664 q 1.16282,-4.62374 7.20926,-3.10313 l 6.40211,1.61006 q 4.88998,1.60794 3.8166,5.87602 l -4.47239,17.78365 q -1.16229,4.245714 4.6174,5.699241 l 37.61242,9.45911 q 4.35699,1.095736 5.25147,-2.460994 l 8.51991,-33.877857 q 2.18723,-5.68971 7.36632,-4.1036 l 5.77969,1.45353 q 6.0688,1.4317 4.59291,7.3003 l -12.09782,48.104776 q -1.65425,6.201916 -7.52286,4.726026 L 273.35164,-98.223357 q -4.62375,-1.162822 -3.63983,-5.075223 z" />
          <path
             inkscape:connector-curvature="0"
             id="path920"
             style="fill:#6c5d53;fill-opacity:1"
             d="m 298.17511,-204.02315 2.3737,-5.86421 q 1.56425,-3.6201 5.17223,-3.24772 l 37.47808,3.20175 q 1.71799,0.39866 2.57803,-1.72605 l 0.58482,-1.44481 q 0.58483,-1.4448 -0.89235,-2.43839 l -29.11854,-23.85396 q -2.85115,-2.24213 -1.76649,-5.16615 l 2.71772,-6.71409 q 1.82327,-4.50439 7.00758,-2.40591 l 126.15741,50.96675 q 4.55498,1.94267 2.52529,6.957 l -2.20169,5.43926 q -1.89208,4.67437 -6.51586,2.90168 l -57.79222,-23.39298 q -3.31455,-1.34165 -4.4842,1.54796 -1.10085,2.71963 8.3207,9.50067 10.17229,6.39252 9.55307,7.92231 l -0.86004,2.12472 q -0.61923,1.52979 -12.5298,-0.32394 -11.09307,-1.91847 -12.40032,1.3111 -1.13525,2.80462 1.83935,4.00867 l 57.82662,23.30799 q 4.58938,1.85768 1.97487,8.31681 l -1.65127,4.07945 q -2.02969,5.01432 -6.65347,3.24163 l -126.12301,-51.05174 q -5.1843,-2.09848 -3.12021,-7.1978 z" />
          <path
             inkscape:connector-curvature="0"
             id="path922"
             style="fill:#6c5d53;fill-opacity:1"
             d="m 344.70044,-305.5483 17.62684,-30.58349 q 2.47234,-4.28963 7.84044,-1.30154 l 7.34192,4.33734 q 4.36907,2.51812 1.93039,6.93298 l -2.64335,4.40272 q -2.91257,3.40095 1.37707,5.87329 l 81.66189,47.06594 q 7.54658,4.34948 9.14902,1.56917 l 3.15909,-5.4812 q 2.59756,-4.32329 7.20494,-1.66782 l 7.94377,4.5784 q 4.28963,2.47234 1.77151,6.84141 l -17.58105,30.50405 q -2.60969,4.52795 -6.89932,2.05561 l -7.86433,-4.53261 q -4.76626,-2.74704 -2.15657,-7.27499 l 2.33498,-4.05132 q 1.87715,-3.25694 -1.45923,-5.17987 l -85.87209,-49.49249 q -3.5747,-2.06028 -5.22292,0.79947 l -2.56391,4.44851 q -2.60968,4.52794 -6.97875,2.00983 l -7.26248,-4.29157 q -5.44755,-3.03387 -2.83786,-7.56182 z" />
          <path
             inkscape:connector-curvature="0"
             id="path924"
             style="fill:#6c5d53;fill-opacity:1"
             d="m 467.30843,-470.85412 25.30714,-24.60902 q 3.54957,-3.45166 7.89792,0.88852 l 5.87878,6.17707 q 3.51558,3.61531 -0.0358,7.19662 l -3.74496,3.51376 q -3.73045,2.47654 -0.27879,6.02611 l 65.70929,67.57335 q 6.07236,6.24462 8.37301,4.00743 l 4.53556,-4.41044 q 3.67923,-3.44985 7.38656,0.36266 l 6.39196,6.57328 q 3.45165,3.54957 -0.16365,7.06515 l -25.24141,24.5451 q -3.74677,3.64342 -7.19842,0.0938 l -6.32804,-6.50755 q -3.83517,-3.94397 -0.0884,-7.58739 l 3.35237,-3.2599 q 2.69505,-2.6207 0.0104,-5.38148 l -69.09703,-71.05718 q -2.87638,-2.95798 -5.24277,-0.65687 l -3.68103,3.57949 q -3.74678,3.64342 -7.26235,0.0281 l -5.81487,-6.11134 q -4.41226,-4.40591 -0.66549,-8.04933 z" />
          <path
             inkscape:connector-curvature="0"
             id="path926"
             style="fill:#6c5d53;fill-opacity:1"
             d="m 542.19272,-537.92652 q 3.91748,-2.87527 8.55722,0.65703 l 53.28514,39.59377 q 5.17206,3.48279 7.23694,2.42219 1.97604,-1.33659 -1.2444,-5.56941 L 571.8896,-552.7851 q -3.23536,-4.56305 0.75604,-7.49257 l 6.50451,-4.77404 q 3.32617,-2.44127 6.63545,2.06754 l 80.50756,109.68968 q 2.92952,3.9914 -0.32273,6.37842 l -5.98711,4.39428 q -4.13923,3.03802 -8.11304,0.72295 l -55.8939,-42.68327 q -2.76608,-2.06418 -4.58954,-1.2945 -1.66546,1.44984 2.98041,7.93468 l 36.89026,50.26212 q 2.92952,3.9914 -2.02277,7.62618 l -4.50881,3.30927 q -4.9523,3.63478 -7.88182,-0.35662 l -80.50757,-109.68968 q -3.30927,-4.50881 1.4952,-8.03508 z" />
          <path
             inkscape:connector-curvature="0"
             id="path928"
             style="fill:#6c5d53;fill-opacity:1"
             d="m 621.72481,-591.42187 45.83058,-24.73258 q 5.61739,-2.71888 8.27353,2.20306 l 2.35134,4.35714 q 3.35283,6.21295 -1.92901,9.16749 l -31.14544,16.8077 q -2.98544,1.6111 -1.03239,5.03713 l 16.45296,30.29501 q 1.95944,3.63095 6.72001,1.06189 l 15.16928,-8.18613 q 4.19576,-2.26425 7.1567,3.22251 l 3.13512,5.80951 q 2.11567,4.69268 -1.75734,6.78276 l -16.13753,8.70865 q -3.91655,2.00939 -1.08623,7.25409 l 26.03887,48.25121 q 3.2222,5.97089 -2.18387,8.88829 l -4.43782,2.39488 q -5.69168,2.96734 -8.56553,-2.35805 l -64.13924,-118.8529 q -2.26425,-4.19576 1.28601,-6.11166 z" />
          <path
             inkscape:connector-curvature="0"
             id="path930"
             style="fill:#6c5d53;fill-opacity:1"
             d="m 739.29515,-647.39894 q 28.26689,-10.53149 37.3579,13.86911 l 29.70583,79.73154 q 12.30218,33.28213 -15.87879,43.7816 -29.21199,10.8836 -41.11993,-21.07775 l -30.18599,-81.0203 q -9.091,-24.4006 20.12098,-35.2842 z m -3.73251,34.36402 30.38473,78.40232 q 5.05767,13.57498 18.40691,8.69926 13.02747,-4.95153 7.96979,-18.52651 l -29.35371,-78.78645 q -5.02566,-13.48906 -17.9133,-8.68747 -14.52008,5.40979 -9.49442,18.89885 z" />
          <path
             inkscape:connector-curvature="0"
             id="path932"
             style="fill:#6c5d53;fill-opacity:1"
             d="m 836.47123,-676.07694 q 31.8653,-7.0718 37.74522,19.42294 l 5.95939,26.85278 q 3.25779,14.67953 -12.19929,24.59021 -0.70626,0.62633 0.67539,3.04332 l 29.97812,55.52059 q 0.5069,1.01452 0.70554,1.90961 0.99324,4.47547 -4.64585,5.72694 l -4.92301,1.09255 q -5.19154,1.15215 -7.96443,-4.99455 l -25.66275,-53.00334 q -1.81868,-4.38619 -5.23966,-4.56616 l -4.8335,1.07269 q -5.35069,1.28139 -3.82112,8.1736 l 12.07768,54.42164 q 1.43026,6.44467 -4.38785,7.73587 l -4.65448,1.03296 q -5.72859,1.27133 -7.15884,-5.17333 l -28.94274,-130.41502 q -1.35079,-6.08663 3.21418,-7.09973 z m -0.54289,56.37723 q 1.80768,8.14535 6.8202,7.03293 l 11.09915,-2.46321 q 8.86142,-1.9666 9.40108,-11.38423 l -5.86006,-26.40523 q -1.19188,-5.37056 -5.47756,-7.3309 -4.21604,-2.06971 -10.48169,-0.67919 l -6.08663,1.3508 q -7.87681,1.74808 -6.60548,7.47667 z" />
          <path
             inkscape:connector-curvature="0"
             id="path934"
             style="fill:#6c5d53;fill-opacity:1"
             d="m 914.654,-689.93874 6.30613,-0.5061 q 3.93724,-0.22401 5.22128,3.16825 l 13.93381,34.93863 q 0.41354,1.71446 2.69837,1.53109 l 1.55368,-0.12469 q 1.55369,-0.12469 1.7799,-1.8905 l 8.27474,-36.72097 q 0.7266,-3.55362 3.82664,-3.8944 l 7.22006,-0.57944 q 4.84384,-0.38875 5.29126,5.18624 l 10.97618,135.62015 q 0.30469,4.94257 -5.08751,5.37532 l -5.84917,0.46942 q -5.02662,0.40341 -5.51409,-4.52448 l -4.98764,-62.14737 q -0.28606,-3.56433 -3.39343,-3.31495 -2.92458,0.23471 -4.7642,11.69612 -1.15586,11.95842 -2.80093,12.09044 l -2.28483,0.18337 q -1.64508,0.13203 -5.32572,-11.34626 -3.2564,-10.77648 -6.72934,-10.49775 -3.01598,0.24204 -2.75926,3.4408 l 5.07903,62.14004 q 0.39608,4.93523 -6.5498,5.49267 l -4.38687,0.35207 q -5.3922,0.43275 -5.87967,-4.49515 l -10.88479,-135.62748 q -0.44742,-5.57499 5.03617,-6.01507 z" />
          <path
             inkscape:connector-curvature="0"
             id="path936"
             style="fill:#6c5d53;fill-opacity:1"
             d="m 1036.8068,-693.59989 11.35,0.66039 q 3.3717,2.03302 3.7941,5.82313 l 13.7398,134.79707 q -0.3834,6.59032 -5.5518,7.02434 l -9.5194,-0.55388 q -4.6372,-2.38218 -4.1419,-10.89467 0.1432,-11.93115 -5.4083,-12.80521 l -9.1586,-0.44104 q -6.0571,-0.0769 -7.5146,10.7675 l -1.368,7.72699 q -1.139,3.79109 -5.1771,3.73983 l -9.977,-0.58051 q -4.0018,-2.25336 -3.7355,-6.82997 l 28.6662,-132.78893 q 0.9719,-4.07635 4.0021,-5.64504 z m -5.3257,91.53224 -1.5138,7.0756 q -0.7815,7.11821 2.04,7.55791 l 8.8786,0.51659 q 3.193,0.36947 3.0912,-7.35119 l -1.2179,-18.53113 q -0.418,-5.443 -3.5035,-6.08174 -4.3073,-0.15878 -5.2676,5.29588 z" />
          <path
             inkscape:connector-curvature="0"
             id="path938"
             style="fill:#6c5d53;fill-opacity:1"
             d="m 1118.5579,-685.14799 56.6557,11.25526 q 3.0576,0.60743 2.3966,3.93482 l -2.4476,12.32036 q -0.6074,3.05761 -2.8556,2.61097 l -16.8169,-3.34085 q -3.4173,-0.67889 -4.0599,3.02609 l -23.583,118.2396 q -0.5717,2.87774 -3.1797,2.35964 l -12.5901,-2.50116 q -2.8778,-0.5717 -2.3061,-3.44945 l 23.4032,-118.27532 q 0.7325,-3.68711 -2.6848,-4.366 l -16.3672,-3.25152 q -2.7878,-0.55383 -2.0369,-3.86336 l 2.3219,-12.15837 q 0.6432,-3.23746 4.1504,-2.54071 z" />
          <path
             inkscape:connector-curvature="0"
             id="path940"
             style="fill:#6c5d53;fill-opacity:1"
             d="m 1228.5511,-658.46898 33.3481,11.57424 q 4.6774,1.6234 2.7498,7.45689 l -2.8825,8.02544 q -1.6535,4.76401 -6.4475,3.19716 l -4.8206,-1.77014 q -3.8871,-2.22259 -5.5105,2.4548 l -30.9047,89.04362 q -2.856,8.22874 0.1756,9.28094 l 5.9767,2.07434 q 4.7339,1.74009 2.9903,6.76395 l -3.0063,8.66183 q -1.6234,4.67739 -6.3874,3.02392 l -33.2615,-11.54417 q -4.9372,-1.71359 -3.3138,-6.39098 l 2.9762,-8.57521 q 1.8038,-5.1971 6.7411,-3.48351 l 4.4175,1.53321 q 3.5513,1.23258 4.814,-2.40539 l 32.4981,-93.63439 q 1.3528,-3.89782 -1.7655,-4.98009 l -4.8506,-1.68353 q -4.9372,-1.71359 -3.2838,-6.47759 l 2.8524,-7.93882 q 1.9577,-5.92011 6.8949,-4.20652 z" />
          <path
             inkscape:connector-curvature="0"
             id="path942"
             style="fill:#6c5d53;fill-opacity:1"
             d="m 1317.0258,-624.23004 5.0623,2.58605 q 5.7155,2.91974 2.5784,10.06855 l -17.7239,58.07431 q -1.8112,5.56106 0.3499,6.97391 2.2427,1.45456 5.6958,-4.29735 l 35.765,-48.44626 q 4.2802,-6.56487 9.2609,-4.02053 l 6.532,3.33684 q 3.9192,2.00211 1.027,9.27605 l -79.1773,104.00238 q -4.3743,7.95824 -12.2615,4.85572 -8.4376,-5.85462 -4.4768,-13.40637 l 38.7605,-124.64909 q 4.6069,-6.39803 8.6077,-4.35421 z" />
          <path
             inkscape:connector-curvature="0"
             id="path944"
             style="fill:#6c5d53;fill-opacity:1"
             d="m 1413.9297,-569.07301 28.9217,20.23826 q 4.0566,2.83861 0.6097,7.92431 l -4.9638,6.93373 q -2.8912,4.13168 -7.0754,1.31563 l -4.1543,-3.01887 q -3.1327,-3.19931 -5.9713,0.85725 l -54.0388,77.22487 q -4.9938,7.13654 -2.3646,8.97638 l 5.1834,3.62712 q 4.0791,2.9663 1.0302,7.32334 l -5.2567,7.51215 q -2.8386,4.05656 -6.9703,1.16538 l -28.8466,-20.18569 q -4.2819,-2.99631 -1.4433,-7.05287 l 5.2041,-7.43702 q 3.154,-4.50729 7.4359,-1.51098 l 3.8312,2.68091 q 3.08,2.15525 5.2878,-0.99986 l 56.8248,-81.2063 q 2.3656,-3.38047 -0.3388,-5.27288 l -4.2068,-2.94374 q -4.2819,-2.99631 -1.3908,-7.128 l 4.9113,-6.8586 q 3.4994,-5.16083 7.7814,-2.16452 z" />
        </g>
        <path
           inkscape:connector-curvature="0"
           id="path3770"
           d="m 999.99958,-653.60511 c -187.23224,0 -366.80014,74.37925 -499.19333,206.77244 -132.3932,132.39318 -206.77409,311.96276 -206.7741,499.194995 -10e-6,187.232245 74.3809,366.800105 206.7741,499.193375 132.39319,132.39319 311.96108,206.77409 499.19333,206.77409 187.23222,0 366.80182,-74.3809 499.19502,-206.77409 132.3932,-132.39327 206.7724,-311.96113 206.7724,-499.193375 0,-187.232235 -74.3792,-366.801815 -206.7724,-499.194995 -132.3932,-132.39319 -311.9628,-206.77244 -499.19502,-206.77244 z m 0,9.99958 c 184.58392,-10e-6 361.60342,73.3234 492.12392,203.84394 130.5205,130.52054 203.8439,307.54 203.8439,492.123915 0,184.583895 -73.3234,361.601675 -203.8439,492.122255 -130.5205,130.52057 -307.54,203.84558 -492.12392,203.84558 -184.58393,0 -361.60171,-73.32501 -492.12225,-203.84558 C 377.35678,413.964 304.03338,236.94622 304.03339,52.362325 304.0334,-132.22159 377.35678,-309.24105 507.87733,-439.76159 638.39787,-570.28213 815.41566,-643.60553 999.99958,-643.60553 Z"
           style="color:#000000;font-style:normal;font-variant:normal;font-weight:normal;font-stretch:normal;font-size:medium;line-height:normal;font-family:sans-serif;font-variant-ligatures:normal;font-variant-position:normal;font-variant-caps:normal;font-variant-numeric:normal;font-variant-alternates:normal;font-feature-settings:normal;text-indent:0;text-align:start;text-decoration:none;text-decoration-line:none;text-decoration-style:solid;text-decoration-color:#000000;letter-spacing:normal;word-spacing:normal;text-transform:none;writing-mode:lr-tb;direction:ltr;text-orientation:mixed;dominant-baseline:auto;baseline-shift:baseline;text-anchor:start;white-space:normal;shape-padding:0;clip-rule:nonzero;display:inline;overflow:visible;visibility:visible;opacity:1;isolation:auto;mix-blend-mode:normal;color-interpolation:sRGB;color-interpolation-filters:linearRGB;solid-color:#000000;solid-opacity:1;vector-effect:none;fill:#6c5d53;fill-opacity:1;fill-rule:nonzero;stroke:none;stroke-width:10;stroke-linecap:round;stroke-linejoin:round;stroke-miterlimit:4;stroke-dasharray:none;stroke-dashoffset:0;stroke-opacity:1;color-rendering:auto;image-rendering:auto;shape-rendering:auto;text-rendering:auto;enable-background:accumulate" />
        <path
           inkscape:connector-curvature="0"
           style="fill:#6c5d53;fill-opacity:1;stroke:none"
           d="m 1107.7812,446.42468 a 10.999253,10.999253 0 0 0 -1.0937,0.062 10.999253,10.999253 0 0 0 -9.7187,10.5625 l -2.7813,81.2187 -78.2813,21.8438 a 10.999253,10.999253 0 0 0 -0.8124,20.9375 l 76.4062,27.75 -3.4062,81.2187 a 10.999253,10.999253 0 0 0 19.6562,7.2188 l 50,-64.0938 76.1875,28.3438 a 10.999253,10.999253 0 0 0 12.9375,-16.4688 l -45.5,-67.3437 50.5,-63.6875 a 10.999253,10.999253 0 0 0 -11.6562,-17.4062 l -78.125,22.4687 -44.9688,-67.7187 a 10.999253,10.999253 0 0 0 -9.3438,-4.9063 z m 40.1563,72.6563 c 0.82,0.071 1.3969,0.6657 1.6875,1.75 l 2.1562,8.0312 c 0.356,1.3287 0.039,2.1133 -0.9374,2.375 l -10.9688,2.9375 c -1.4849,0.398 -1.9996,1.4085 -1.5312,3 l 20.5937,77.0937 c 0.335,1.2505 -0.054,2.0089 -1.1875,2.3126 l -8.2188,2.2187 c -1.2504,0.3351 -2.0399,-0.1246 -2.375,-1.375 l -20.6874,-77.0625 c -0.4293,-1.602 -1.3902,-2.2103 -2.875,-1.8125 l -10.6876,2.8437 c -1.2113,0.3247 -1.9954,-0.2311 -2.3437,-1.6874 l -2.1563,-7.9063 c -0.3769,-1.4066 0.1949,-2.3103 1.7188,-2.7187 l 36.9062,-9.875 c 0.3322,-0.089 0.633,-0.1487 0.9063,-0.125 z"
           id="path3784" />
        <path
           inkscape:connector-curvature="0"
           style="fill:#6c5d53;fill-opacity:1;stroke:none"
           d="m 1438.2812,316.98718 a 10.999253,10.999253 0 0 0 -7.0624,3.1875 l -57.625,57.3125 -72.0313,-37.6875 a 10.999253,10.999253 0 0 0 -11.5,0.8125 10.999253,10.999253 0 0 0 -3.4375,13.9062 l 36.7188,72.5313 -58.0938,56.875 a 10.999253,10.999253 0 0 0 9.4062,18.7187 l 80.3126,-12.5 36.125,72.8126 a 10.999253,10.999253 0 0 0 20.7187,-3.1563 l 12.9375,-80.25 80.4062,-11.8437 a 10.999253,10.999253 0 0 0 3.4063,-20.6876 l -72.3125,-37.0937 13.5625,-80.125 a 10.999253,10.999253 0 0 0 -11.5313,-12.8125 z m -76.25,66.9375 c 1.1599,-0.114 2.418,0.5118 3.8126,1.9063 l 50.4687,50.4687 c 9.8974,9.8403 10.1299,19.4639 0.7187,28.875 -9.7544,9.7544 -19.5686,9.7126 -29.4374,-0.1563 l -50.4376,-50.4687 c -2.2311,-2.2312 -2.346,-4.3413 -0.3437,-6.3437 l 2,-2.0313 c 2.1455,-2.1453 4.3653,-2.1088 6.625,0.094 l 50.4375,50.4688 c 4.7771,4.8343 9.3003,5.106 13.5625,0.8438 4.2622,-4.2622 3.9932,-8.7881 -0.8125,-13.5938 l -50.4062,-50.5 c -2.2599,-2.2025 -2.5654,-4.1533 -0.9063,-5.8125 l 2.75,-2.7187 c 0.6114,-0.6115 1.2728,-0.9629 1.9687,-1.0313 z"
           id="path3790" />
        <path
           style="fill:#6c5d53;fill-opacity:1;stroke:none"
           d="m 892.375,1392.5 a 10.999253,10.999253 0 0 0 -9.21875,5.0938 l -43.5625,68.625 -78.5625,-20.8126 A 10.999253,10.999253 0 0 0 749.75,1463.0625 l 51.8125,62.5937 -44.09375,68.3126 a 10.999253,10.999253 0 0 0 13.28125,16.1874 l 75.59375,-29.9374 51.3125,63.0312 a 10.999253,10.999253 0 0 0 19.5,-7.625 l -5.125,-81.125 75.8125,-29.3438 A 10.999253,10.999253 0 0 0 986.625,1504.25 l -78.75,-20.1875 -4.46875,-81.1875 A 10.999253,10.999253 0 0 0 893.5,1392.5312 10.999253,10.999253 0 0 0 892.375,1392.5 Z m -37.25,74.9062 c 0.2291,0.017 0.46964,0.058 0.71875,0.125 l 15.78125,4.25 c 13.63733,3.6543 18.95272,11.0511 15.96875,22.1876 l -4.46875,16.625 c -2.80609,10.4723 -9.7229,14.2443 -20.78125,11.2812 l -7.6875,-2.0625 c -2.4618,-0.6596 -4.131,0.6318 -5,3.875 l -9.53125,35.625 c -0.72247,2.6962 -2.45222,3.6704 -5.1875,2.9375 l -3.40625,-0.9062 c -2.50085,-0.6702 -3.37887,-2.4054 -2.625,-5.2188 l 22.875,-85.4062 c 0.62295,-2.325 1.74007,-3.4307 3.34375,-3.3126 z m 8.9375,14.1563 c -2.05991,-0.049 -3.3412,0.8432 -3.84375,2.7187 l -5,18.6563 c -0.95283,3.5559 -0.34452,5.6325 1.84375,6.2187 l 6.625,1.75 c 4.92347,1.3194 7.92432,0.077 9,-3.7812 l 3.9375,-14.7188 c 0.62816,-2.3444 0.30872,-4.328 -0.96875,-5.9687 -1.22802,-1.6691 -3.20226,-2.892 -5.9375,-3.625 l -3.34375,-0.875 c -0.85968,-0.2303 -1.62586,-0.3586 -2.3125,-0.375 z"
           id="path3796"
           transform="translate(0,-947.63782)"
           inkscape:connector-curvature="0" />
        <path
           inkscape:connector-curvature="0"
           id="path3802"
           d="m 561.75001,316.98719 a 10.999253,10.999253 0 0 0 -10.40625,12.8125 l 13.5625,80.125 -72.34375,37.0937 a 10.999253,10.999253 0 0 0 3.40625,20.6876 l 80.4375,11.8437 12.90625,80.25 a 10.999253,10.999253 0 0 0 20.71875,3.1563 l 36.125,-72.8126 80.3125,12.5 a 10.999253,10.999253 0 0 0 9.40625,-18.7187 l -58.09375,-56.875 36.71875,-72.5313 a 10.999253,10.999253 0 0 0 -3.4375,-13.9062 10.999253,10.999253 0 0 0 -11.46875,-0.8125 l -72.03125,37.6875 -57.625,-57.3125 a 10.999253,10.999253 0 0 0 -8.1875,-3.1875 z m 76.03125,72.3438 c 4.61976,-0.1002 9.16782,2.1053 13.6875,6.625 9.81153,9.8116 9.99687,19.4718 0.5,28.9687 -1.02988,1.0298 -2.63858,0.4553 -4.8125,-1.7187 -2.60317,-2.6031 -3.40487,-4.4077 -2.375,-5.4376 4.57677,-4.5768 4.34695,-9.3716 -0.6875,-14.4062 -4.26227,-4.2621 -8.67322,-4.1081 -13.25,0.4688 l -40.46875,40.4687 c -3.91896,3.9189 -3.73097,8.0609 0.53125,12.4375 5.03451,4.9201 9.48728,5.4189 13.40625,1.5 l 6.96875,-6.9688 c 3.11793,-3.1179 3.15447,-6.1892 0.0937,-9.25 -1.97382,-1.9737 -1.93199,-4.0055 0.15625,-6.0937 2.28838,-2.2884 4.43243,-2.4425 6.40625,-0.4687 l 8.75,8.75 c 2.00231,2.0023 2.03885,3.961 0.0937,5.9062 l -15.28115,15.2812 c -9.4398,9.4398 -19.06075,9.2831 -28.84375,-0.5 -9.0679,-9.0679 -8.91381,-18.3049 0.46875,-27.6874 l 40.625,-40.625 c 4.71985,-4.7199 9.41149,-7.1499 14.03125,-7.25 z"
           style="fill:#6c5d53;fill-opacity:1;stroke:none" />
        <path
           inkscape:connector-curvature="0"
           id="path3806"
           d="M 1095,810 A 97.5,97.5 0 0 1 997.5,907.5 97.5,97.5 0 0 1 900,810 97.5,97.5 0 0 1 997.5,712.5 97.5,97.5 0 0 1 1095,810 Z"
           style="fill:#6c5d53;fill-opacity:1;stroke:none"
           transform="matrix(0.224401,0,0,0.224401,776.16001,695.84735)" />
        <path
           inkscape:connector-curvature="0"
           id="path3808"
           d="m 922.40625,873.16211 a 4.4507591,4.4507591 0 1 0 0,8.90039 h 155.18755 a 4.4507591,4.4507591 0 1 0 0,-8.90039 z"
           style="color:#000000;font-style:normal;font-variant:normal;font-weight:normal;font-stretch:normal;font-size:medium;line-height:normal;font-family:sans-serif;font-variant-ligatures:normal;font-variant-position:normal;font-variant-caps:normal;font-variant-numeric:normal;font-variant-alternates:normal;font-feature-settings:normal;text-indent:0;text-align:start;text-decoration:none;text-decoration-line:none;text-decoration-style:solid;text-decoration-color:#000000;letter-spacing:normal;word-spacing:normal;text-transform:none;writing-mode:lr-tb;direction:ltr;text-orientation:mixed;dominant-baseline:auto;baseline-shift:baseline;text-anchor:start;white-space:normal;shape-padding:0;clip-rule:nonzero;display:inline;overflow:visible;visibility:visible;opacity:1;isolation:auto;mix-blend-mode:normal;color-interpolation:sRGB;color-interpolation-filters:linearRGB;solid-color:#000000;solid-opacity:1;vector-effect:none;fill:#6c5d53;fill-opacity:1;fill-rule:nonzero;stroke:none;stroke-width:8.90062809;stroke-linecap:round;stroke-linejoin:round;stroke-miterlimit:4;stroke-dasharray:none;stroke-dashoffset:0;stroke-opacity:1;color-rendering:auto;image-rendering:auto;shape-rendering:auto;text-rendering:auto;enable-background:accumulate" />
        <path
           inkscape:connector-curvature="0"
           id="path3810"
           d="m 999.93359,795.50586 a 4.4507591,4.4507591 0 0 0 -4.38476,4.51367 v 155.18555 a 4.451185,4.451185 0 1 0 8.90237,0 V 800.01953 a 4.4507591,4.4507591 0 0 0 -4.51761,-4.51367 z"
           style="color:#000000;font-style:normal;font-variant:normal;font-weight:normal;font-stretch:normal;font-size:medium;line-height:normal;font-family:sans-serif;font-variant-ligatures:normal;font-variant-position:normal;font-variant-caps:normal;font-variant-numeric:normal;font-variant-alternates:normal;font-feature-settings:normal;text-indent:0;text-align:start;text-decoration:none;text-decoration-line:none;text-decoration-style:solid;text-decoration-color:#000000;letter-spacing:normal;word-spacing:normal;text-transform:none;writing-mode:lr-tb;direction:ltr;text-orientation:mixed;dominant-baseline:auto;baseline-shift:baseline;text-anchor:start;white-space:normal;shape-padding:0;clip-rule:nonzero;display:inline;overflow:visible;visibility:visible;opacity:1;isolation:auto;mix-blend-mode:normal;color-interpolation:sRGB;color-interpolation-filters:linearRGB;solid-color:#000000;solid-opacity:1;vector-effect:none;fill:#6c5d53;fill-opacity:1;fill-rule:nonzero;stroke:none;stroke-width:8.90062809;stroke-linecap:round;stroke-linejoin:round;stroke-miterlimit:4;stroke-dasharray:none;stroke-dashoffset:0;stroke-opacity:1;color-rendering:auto;image-rendering:auto;shape-rendering:auto;text-rendering:auto;enable-background:accumulate" />
        <path
           inkscape:connector-curvature="0"
           id="path3826"
           d="m 963.15039,836.16797 a 4.5978881,4.5978881 0 0 0 -3.20312,7.89453 l 73.60353,73.60156 a 4.5978881,4.5978881 0 1 0 6.5019,-6.50195 l -73.60348,-73.60156 a 4.5978881,4.5978881 0 0 0 -3.29883,-1.39258 z"
           style="color:#000000;font-style:normal;font-variant:normal;font-weight:normal;font-stretch:normal;font-size:medium;line-height:normal;font-family:sans-serif;font-variant-ligatures:normal;font-variant-position:normal;font-variant-caps:normal;font-variant-numeric:normal;font-variant-alternates:normal;font-feature-settings:normal;text-indent:0;text-align:start;text-decoration:none;text-decoration-line:none;text-decoration-style:solid;text-decoration-color:#000000;letter-spacing:normal;word-spacing:normal;text-transform:none;writing-mode:lr-tb;direction:ltr;text-orientation:mixed;dominant-baseline:auto;baseline-shift:baseline;text-anchor:start;white-space:normal;shape-padding:0;clip-rule:nonzero;display:inline;overflow:visible;visibility:visible;opacity:1;isolation:auto;mix-blend-mode:normal;color-interpolation:sRGB;color-interpolation-filters:linearRGB;solid-color:#000000;solid-opacity:1;vector-effect:none;fill:#6c5d53;fill-opacity:1;fill-rule:nonzero;stroke:none;stroke-width:9.19485664;stroke-linecap:round;stroke-linejoin:round;stroke-miterlimit:4;stroke-dasharray:none;stroke-dashoffset:0;stroke-opacity:1;color-rendering:auto;image-rendering:auto;shape-rendering:auto;text-rendering:auto;enable-background:accumulate" />
        <path
           inkscape:connector-curvature="0"
           id="path3828"
           d="m 1036.7109,836.16992 a 4.5978881,4.5978881 0 0 0 -3.1601,1.39063 l -73.60158,73.60156 a 4.5978881,4.5978881 0 1 0 6.5,6.50195 l 73.60348,-73.60156 a 4.5978881,4.5978881 0 0 0 -3.3418,-7.89258 z"
           style="color:#000000;font-style:normal;font-variant:normal;font-weight:normal;font-stretch:normal;font-size:medium;line-height:normal;font-family:sans-serif;font-variant-ligatures:normal;font-variant-position:normal;font-variant-caps:normal;font-variant-numeric:normal;font-variant-alternates:normal;font-feature-settings:normal;text-indent:0;text-align:start;text-decoration:none;text-decoration-line:none;text-decoration-style:solid;text-decoration-color:#000000;letter-spacing:normal;word-spacing:normal;text-transform:none;writing-mode:lr-tb;direction:ltr;text-orientation:mixed;dominant-baseline:auto;baseline-shift:baseline;text-anchor:start;white-space:normal;shape-padding:0;clip-rule:nonzero;display:inline;overflow:visible;visibility:visible;opacity:1;isolation:auto;mix-blend-mode:normal;color-interpolation:sRGB;color-interpolation-filters:linearRGB;solid-color:#000000;solid-opacity:1;vector-effect:none;fill:#6c5d53;fill-opacity:1;fill-rule:nonzero;stroke:none;stroke-width:9.19485664;stroke-linecap:round;stroke-linejoin:round;stroke-miterlimit:4;stroke-dasharray:none;stroke-dashoffset:0;stroke-opacity:1;color-rendering:auto;image-rendering:auto;shape-rendering:auto;text-rendering:auto;enable-background:accumulate" />
        <path
           inkscape:connector-curvature="0"
           id="path3839"
           d="m 999.99993,783.9681 c -51.67125,0 -93.64399,41.97278 -93.64399,93.64397 0,51.6712 41.97274,93.64398 93.64399,93.64398 51.67117,0 93.64397,-41.97278 93.64397,-93.64398 0,-51.67119 -41.9728,-93.64397 -93.64397,-93.64397 z m 0,8.00012 c 47.34767,0 85.64387,38.29611 85.64387,85.64385 0,47.34775 -38.2962,85.64386 -85.64387,85.64386 -47.34772,0 -85.6439,-38.29611 -85.64389,-85.64386 -10e-6,-47.34774 38.29617,-85.64385 85.64389,-85.64385 z"
           style="color:#000000;font-style:normal;font-variant:normal;font-weight:normal;font-stretch:normal;font-size:medium;line-height:normal;font-family:sans-serif;font-variant-ligatures:normal;font-variant-position:normal;font-variant-caps:normal;font-variant-numeric:normal;font-variant-alternates:normal;font-feature-settings:normal;text-indent:0;text-align:start;text-decoration:none;text-decoration-line:none;text-decoration-style:solid;text-decoration-color:#000000;letter-spacing:normal;word-spacing:normal;text-transform:none;writing-mode:lr-tb;direction:ltr;text-orientation:mixed;dominant-baseline:auto;baseline-shift:baseline;text-anchor:start;white-space:normal;shape-padding:0;clip-rule:nonzero;display:inline;overflow:visible;visibility:visible;opacity:1;isolation:auto;mix-blend-mode:normal;color-interpolation:sRGB;color-interpolation-filters:linearRGB;solid-color:#000000;solid-opacity:1;vector-effect:none;fill:#6c5d53;fill-opacity:1;fill-rule:nonzero;stroke:none;stroke-width:7.99999952;stroke-linecap:butt;stroke-linejoin:miter;stroke-miterlimit:4;stroke-dasharray:none;stroke-dashoffset:0;stroke-opacity:1;color-rendering:auto;image-rendering:auto;shape-rendering:auto;text-rendering:auto;enable-background:accumulate" />
        <path
           inkscape:connector-curvature="0"
           id="path3951"
           d="m 999.99998,818.48756 c -32.61464,0 -59.12461,26.50991 -59.1246,59.12457 -10e-6,32.61467 26.50996,59.12457 59.1246,59.12457 32.61462,0 59.12452,-26.5099 59.12452,-59.12457 0,-32.61466 -26.5099,-59.12457 -59.12452,-59.12457 z m 0,6.64019 c 29.02592,0 52.48442,23.45843 52.48442,52.48438 0,29.02596 -23.4585,52.48439 -52.48442,52.48439 -29.02593,0 -52.48439,-23.45843 -52.48438,-52.48439 -10e-6,-29.02595 23.45845,-52.48438 52.48438,-52.48438 z"
           style="color:#000000;font-style:normal;font-variant:normal;font-weight:normal;font-stretch:normal;font-size:medium;line-height:normal;font-family:sans-serif;font-variant-ligatures:normal;font-variant-position:normal;font-variant-caps:normal;font-variant-numeric:normal;font-variant-alternates:normal;font-feature-settings:normal;text-indent:0;text-align:start;text-decoration:none;text-decoration-line:none;text-decoration-style:solid;text-decoration-color:#000000;letter-spacing:normal;word-spacing:normal;text-transform:none;writing-mode:lr-tb;direction:ltr;text-orientation:mixed;dominant-baseline:auto;baseline-shift:baseline;text-anchor:start;white-space:normal;shape-padding:0;clip-rule:nonzero;display:inline;overflow:visible;visibility:visible;opacity:1;isolation:auto;mix-blend-mode:normal;color-interpolation:sRGB;color-interpolation-filters:linearRGB;solid-color:#000000;solid-opacity:1;vector-effect:none;fill:#6c5d53;fill-opacity:1;fill-rule:nonzero;stroke:none;stroke-width:6.64034843;stroke-linecap:butt;stroke-linejoin:miter;stroke-miterlimit:4;stroke-dasharray:none;stroke-dashoffset:0;stroke-opacity:1;color-rendering:auto;image-rendering:auto;shape-rendering:auto;text-rendering:auto;enable-background:accumulate" />
        <path
           inkscape:connector-curvature="0"
           style="fill:#6c5d53;fill-opacity:1;stroke:none"
           d="m 758,-243.63782 c -4.432,0 -8,3.568 -8,8 v 484 c 0,4.432 3.568,8 8,8 h 484 c 4.432,0 8,-3.568 8,-8 v -419.6875 l -76.6562,-72.3125 z m 90.875,10 h 8.09375 286.06245 8.0938 v 6.90625 86.09375 84.15625 c 0,3.8276 -3.604,6.90625 -8.0938,6.90625 H 856.96875 c -4.48956,0 -8.09375,-3.07865 -8.09375,-6.90625 v -84.15625 -86.09375 z m 188.3438,18.875 c -6.1922,0 -11.1876,4.08631 -11.1876,9.15625 v 128 c 0,5.06994 4.9954,9.125 11.1876,9.125 h 69.6562 c 6.1918,0 11.1875,-4.05506 11.1875,-9.125 v -128 c 0,-5.06994 -4.9957,-9.15625 -11.1875,-9.15625 z m 43,343.9375 c 11.0099,1e-4 19.6107,2.2997 25.7812,6.9375 6.2107,4.5976 10.1942,10.9785 11.9688,19.125 l -17.7813,3.3125 c -1.2503,-4.3555 -3.6255,-7.7808 -7.0937,-10.2813 -3.4281,-2.5406 -7.7129,-3.8124 -12.875,-3.8124 -7.824,0 -14.0497,2.477 -18.6876,7.4374 -4.5975,4.9606 -6.9062,12.3341 -6.9062,22.0938 0,10.526 2.353,18.4356 7.0312,23.7188 4.6782,5.2428 10.7931,7.875 18.375,7.875 3.7506,0 7.4993,-0.7357 11.25,-2.1876 3.791,-1.4921 7.0479,-3.2778 9.75,-5.375 v -11.25 h -20.5 v -14.9687 h 38.5938 v 35.3437 c -3.7507,3.6297 -9.2055,6.8423 -16.3438,9.625 -7.098,2.7425 -14.2941,4.0938 -21.5937,4.0938 -9.2758,0 -17.3537,-1.9409 -24.25,-5.8125 -6.8964,-3.912 -12.0942,-9.4685 -15.5625,-16.6875 -3.4683,-7.2593 -5.1875,-15.1467 -5.1875,-23.6562 0,-9.2355 1.9096,-17.4463 5.7813,-24.625 3.8716,-7.1786 9.539,-12.6687 17,-16.5 5.6864,-2.944 12.7807,-4.4062 21.25,-4.4063 z m -199.3438,1.5 h 60.8125 v 15 h -42.90625 v 21 h 37.03125 v 15 h -37.03125 v 37.6875 H 880.875 Z m 66.5625,0 h 19.40625 l 22.4375,65.625 21.71875,-65.625 h 19 l -31.75,88.6875 h -19.125 z m 257.4375,76.625 H 1224 c 2.216,0 4,1.784 4,4 v 21.0625 c 0,2.216 -1.784,4 -4,4 h -19.125 c -2.216,0 -4,-1.784 -4,-4 v -21.0625 c 0,-2.216 1.784,-4 4,-4 z"
           id="rect4152" />
        <g
           transform="translate(1.5e-5)"
           id="text4154"
           style="font-style:normal;font-variant:normal;font-weight:normal;font-stretch:normal;line-height:0%;font-family:'Futura XBlk BT';-inkscape-font-specification:'Futura XBlk BT';letter-spacing:0px;word-spacing:0px;fill:#6c5d53;fill-opacity:1;stroke:none;stroke-width:2.86597109"
           aria-label="CGIL">
          <path
             inkscape:connector-curvature="0"
             id="path947"
             style="font-style:normal;font-variant:normal;font-weight:normal;font-stretch:normal;font-size:206.34991455px;line-height:1.25;font-family:'Futura XBlk BT';-inkscape-font-specification:'Futura XBlk BT';fill:#6c5d53;fill-opacity:1;stroke:none;stroke-width:2.86597109"
             d="m 865.08663,-351.64806 q -7.25449,-6.95222 -14.81125,-10.37795 -7.55676,-3.42573 -15.91957,-3.42573 -12.99763,0 -20.95741,8.06054 -7.85903,7.95979 -7.85903,21.25969 0,12.99762 7.55676,20.7559 7.55676,7.75827 20.25211,7.75827 7.65752,0 15.51655,-3.22422 7.95978,-3.32497 17.33017,-10.4787 l -1.71287,55.51699 q -8.66508,3.52649 -17.33017,5.23935 -8.66508,1.81363 -17.33017,1.81363 -10.78097,0 -20.7559,-2.41817 -9.97492,-2.41816 -18.03546,-6.85146 -19.54682,-11.28476 -29.6225,-28.51417 -9.97492,-17.22941 -9.97492,-39.59742 0,-16.52412 5.64238,-30.63007 5.74314,-14.10595 16.62487,-24.88693 10.98249,-10.88173 25.39071,-16.42335 14.50898,-5.64238 31.33536,-5.64238 8.96736,0 17.63244,1.91437 8.76584,1.81363 17.0279,5.54163 z" />
          <path
             inkscape:connector-curvature="0"
             id="path949"
             style="font-style:normal;font-variant:normal;font-weight:normal;font-stretch:normal;font-size:206.34991455px;line-height:1.25;font-family:'Futura XBlk BT';-inkscape-font-specification:'Futura XBlk BT';fill:#6c5d53;fill-opacity:1;stroke:none;stroke-width:2.86597109"
             d="m 982.26678,-315.47637 h -23.0733 v -34.66034 h 81.51222 q 0.2015,4.53406 0.3023,6.75071 0.1008,2.21665 0.1008,3.92951 0,12.69536 -2.4182,23.17407 -2.4182,10.4787 -7.053,18.53925 -11.2847,18.94227 -29.1187,29.01795 -17.83395,9.97493 -40.50423,9.97493 -16.72563,0 -31.13385,-5.54163 -14.30747,-5.64238 -25.39071,-16.52411 -10.98249,-10.88174 -16.62488,-24.88693 -5.64238,-14.0052 -5.64238,-30.42855 0,-16.52412 5.64238,-30.52931 5.74314,-14.10595 16.62488,-24.78617 10.98249,-10.78098 25.39071,-16.42336 14.40822,-5.64238 31.13385,-5.64238 22.67028,0 40.30273,9.97492 17.6324,9.87417 28.8164,29.01796 l -47.25491,17.53168 q -3.728,-6.14616 -8.96735,-9.16887 -5.23936,-3.0227 -11.99006,-3.0227 -11.78855,0 -18.84152,8.96735 -6.95222,8.96736 -6.95222,24.08088 0,15.6173 7.05297,24.28238 7.05298,8.56433 19.94985,8.56433 7.65752,0 12.39309,-3.22422 4.83632,-3.22421 5.74313,-8.96735 z" />
          <path
             inkscape:connector-curvature="0"
             id="path951"
             style="font-style:normal;font-variant:normal;font-weight:normal;font-stretch:normal;font-size:206.34991455px;line-height:1.25;font-family:'Futura XBlk BT';-inkscape-font-specification:'Futura XBlk BT';fill:#6c5d53;fill-opacity:1;stroke:none;stroke-width:2.86597109"
             d="m 1061.4616,-262.67981 v -147.50795 h 53.9049 v 147.50795 z" />
          <path
             inkscape:connector-curvature="0"
             id="path953"
             style="font-style:normal;font-variant:normal;font-weight:normal;font-stretch:normal;font-size:206.34991455px;line-height:1.25;font-family:'Futura XBlk BT';-inkscape-font-specification:'Futura XBlk BT';fill:#6c5d53;fill-opacity:1;stroke:none;stroke-width:2.86597109"
             d="m 1143.8807,-262.67981 v -147.50795 h 53.0988 v 99.64847 h 51.5875 v 47.85948 z" />
        </g>
      </g>
    </g>
  </g>
</svg>
