<?xml version="1.0" encoding="UTF-8" standalone="no"?>
<!-- Created with Inkscape (http://www.inkscape.org/) -->

<svg
   xmlns:dc="http://purl.org/dc/elements/1.1/"
   xmlns:cc="http://creativecommons.org/ns#"
   xmlns:rdf="http://www.w3.org/1999/02/22-rdf-syntax-ns#"
   xmlns:svg="http://www.w3.org/2000/svg"
   xmlns="http://www.w3.org/2000/svg"
   xmlns:sodipodi="http://sodipodi.sourceforge.net/DTD/sodipodi-0.dtd"
   xmlns:inkscape="http://www.inkscape.org/namespaces/inkscape"
   width="512"
   height="144"
   viewBox="0 0 135.46666 38.100001"
   version="1.1"
   id="svg8"
   inkscape:version="0.92.2 5c3e80d, 2017-08-06"
   sodipodi:docname="davosky_logo_2019.svg">
  <defs
     id="defs2" />
  <sodipodi:namedview
     id="base"
     pagecolor="#ffffff"
     bordercolor="#666666"
     borderopacity="1.0"
     inkscape:pageopacity="0.0"
     inkscape:pageshadow="2"
     inkscape:zoom="1.8879199"
     inkscape:cx="265.24605"
     inkscape:cy="87.860713"
     inkscape:document-units="px"
     inkscape:current-layer="g1689"
     showgrid="false"
     units="px"
     inkscape:showpageshadow="false"
     inkscape:window-width="1920"
     inkscape:window-height="1035"
     inkscape:window-x="0"
     inkscape:window-y="1"
     inkscape:window-maximized="1" />
  <metadata
     id="metadata5">
    <rdf:RDF>
      <cc:Work
         rdf:about="">
        <dc:format>image/svg+xml</dc:format>
        <dc:type
           rdf:resource="http://purl.org/dc/dcmitype/StillImage" />
        <dc:title />
      </cc:Work>
    </rdf:RDF>
  </metadata>
  <g
     inkscape:label="Livello 1"
     inkscape:groupmode="layer"
     id="layer1"
     transform="translate(0,-258.89998)">
    <g
       id="g1689"
       transform="matrix(1.1300754,0,0,1.1300754,-2.2743077,-4.216609)">
      <g
         id="g1169" />
      <path
         sodipodi:nodetypes="ccccccccsccccccccccccccccccccccccccccsccsccccccccccccccccccsccsc"
         inkscape:connector-curvature="0"
         style="color:#000000;font-style:normal;font-variant:normal;font-weight:normal;font-stretch:normal;font-size:medium;line-height:normal;font-family:sans-serif;font-variant-ligatures:normal;font-variant-position:normal;font-variant-caps:normal;font-variant-numeric:normal;font-variant-alternates:normal;font-feature-settings:normal;text-indent:0;text-align:start;text-decoration:none;text-decoration-line:none;text-decoration-style:solid;text-decoration-color:#000000;letter-spacing:normal;word-spacing:normal;text-transform:none;writing-mode:lr-tb;direction:ltr;text-orientation:mixed;dominant-baseline:auto;baseline-shift:baseline;text-anchor:start;white-space:normal;shape-padding:0;clip-rule:nonzero;display:inline;overflow:visible;visibility:visible;opacity:1;isolation:auto;mix-blend-mode:normal;color-interpolation:sRGB;color-interpolation-filters:linearRGB;solid-color:#000000;solid-opacity:1;vector-effect:none;fill:#000000;fill-opacity:1;fill-rule:nonzero;stroke:none;stroke-width:1.88149369;stroke-linecap:round;stroke-linejoin:round;stroke-miterlimit:4;stroke-dasharray:none;stroke-dashoffset:0;stroke-opacity:1;color-rendering:auto;image-rendering:auto;shape-rendering:auto;text-rendering:auto;enable-background:accumulate"
         d="m 20.366861,233.55156 c -0.0075,0 0.192685,1.8e-4 0.185225,1.8e-4 l -0.0014,9.7e-4 c -0.06121,-7e-4 -0.122449,-10e-4 -0.183817,-10e-4 z m 0.183817,0.001 c 8.760167,0.0982 15.861493,7.2045 15.951806,15.96651 h -1.881566 c -0.09029,-7.80586 -6.42643,-14.08608 -14.254057,-14.08608 -0.0075,0 0.192687,1.8e-4 0.185225,1.8e-4 l -1.351421,-0.92674 z m -0.657004,0.006 -1.365947,0.94566 1.354063,0.93731 c -1.136184,0.0378 -2.23791,0.209 -3.291092,0.49669 l -0.48639,-1.81545 c 1.212519,-0.33216 2.481577,-0.52641 3.789366,-0.56421 z m -4.222321,0.68948 0.486392,1.81537 c -1.059268,0.32592 -2.065227,0.77221 -3.00278,1.3221 l -0.936424,-1.62204 c 1.077699,-0.6328 2.23474,-1.14454 3.452812,-1.51543 z m -3.838317,1.74908 0.936781,1.62248 c -0.918016,0.57825 -1.764886,1.25858 -2.525366,2.0248 l -1.3222823,-1.3222 c 0.8757372,-0.88163 1.8522393,-1.66309 2.9108673,-2.32508 z m -3.2239205,2.6494 1.3228123,1.32281 c -1.5541924,1.66785 -2.712272,3.70979 -3.3257776,5.97765 l -1.8143073,-0.48613 c 0.7023535,-2.58615 2.0330382,-4.91568 3.8172726,-6.81432 z m -3.9289021,7.25072 1.8159834,0.48666 c -0.2509286,1.06022 -0.3845369,2.16632 -0.3845369,3.30429 0,1.17594 0.1427945,2.31778 0.4101545,3.41029 l -1.8158915,0.48657 c -0.3104443,-1.2483 -0.4754772,-2.55357 -0.4754772,-3.89686 0,-1.30541 0.155998,-2.57483 0.4497677,-3.79095 z m 31.8205976,4.07285 c -0.07498,4.35865 -1.884734,8.30046 -4.767433,11.16351 l -1.322282,-1.32228 c 2.539637,-2.51995 4.133505,-5.99142 4.207884,-9.84123 z m -29.8654341,3.56435 c 0.6277175,2.25236 1.793426,4.27839 3.3505166,5.93143 l -1.3223717,1.32246 C 6.8762595,258.90469 5.5375565,256.5914 4.8208074,254.0207 Z m 3.6652381,6.25416 c 2.473019,2.46497 5.848164,4.02512 9.593059,4.14679 v 1.88245 c -4.254155,-0.12305 -8.099164,-1.89922 -10.9151634,-4.70713 z m 19.785192,0.33471 1.323426,1.32334 c -2.888283,2.71393 -6.773736,4.37832 -11.042372,4.37832 h -0.02236 v -1.88157 c 0.0075,10e-6 0.0149,0 0.02236,0 3.759509,0 7.174256,-1.44944 9.718946,-3.82009 z"
         id="path834" />
      <path
         id="path1499"
         d="m 20.36645,239.75518 a 9.9331052,9.9331052 0 0 0 -9.885731,8.9871 h 19.764468 a 9.9331052,9.9331052 0 0 0 -9.878737,-8.9871 z m -9.878626,10.87911 a 9.9331052,9.9331052 0 0 0 9.878626,8.9871 9.9331052,9.9331052 0 0 0 9.885731,-8.9871 z"
         style="opacity:1;fill:#29487d;fill-opacity:1;stroke:none;stroke-width:0.03821795;stroke-linecap:square;stroke-linejoin:miter;stroke-miterlimit:4;stroke-dasharray:none;stroke-dashoffset:0;stroke-opacity:1"
         inkscape:connector-curvature="0" />
      <path
         sodipodi:nodetypes="ccccccccccccccc"
         d="m 43.566411,252.06671 h 6.133553 c 1.580445,0.0961 2.397364,-0.77421 2.450757,-2.61094 v -3.32257 c -0.02136,-1.63384 -0.806251,-2.44542 -2.354648,-2.43474 h -7.911551 v 11.73203 H 38.552778 V 240.3507 H 50.46883 c 3.310389,0.0748 4.997617,1.71926 5.061688,4.93354 l -0.04808,5.1166 c -0.06407,3.26767 -1.735284,4.94422 -5.013636,5.02965 h -6.902416 z"
         style="font-style:normal;font-variant:normal;font-weight:normal;font-stretch:normal;font-size:55.88350677px;line-height:1.25;font-family:'Anita Semi-square';-inkscape-font-specification:'Anita Semi-square, Normal';font-variant-ligatures:normal;font-variant-caps:normal;font-variant-numeric:normal;font-feature-settings:normal;text-align:start;letter-spacing:0px;word-spacing:0px;writing-mode:lr-tb;text-anchor:start;fill:#29487d;fill-opacity:1;stroke:none;stroke-width:1.36686957"
         id="path1512"
         inkscape:connector-curvature="0" />
      <path
         d="m 57.367002,248.65759 v -1.66616 h 5.851489 q 2.503225,0 2.519169,2.45539 v 5.91527 h -6.895828 q -2.311895,0 -2.311895,-2.08868 v -1.15595 q 0,-2.12057 2.136511,-2.12854 h 4.42449 v 1.67413 H 59.40785 q -1.203781,0 -1.211751,0.98056 h 0.008 q 0,1.04434 1.11609,1.04434 h 4.743372 l -0.008,-3.707 q 0,-1.32336 -1.12406,-1.32336 z"
         style="font-style:normal;font-variant:normal;font-weight:normal;font-stretch:normal;font-size:55.88350677px;line-height:1.25;font-family:'Anita Semi-square';-inkscape-font-specification:'Anita Semi-square, Normal';font-variant-ligatures:normal;font-variant-caps:normal;font-variant-numeric:normal;font-feature-settings:normal;text-align:start;letter-spacing:0px;word-spacing:0px;writing-mode:lr-tb;text-anchor:start;fill:#29487d;fill-opacity:1;stroke:none;stroke-width:0.68028218"
         id="path1514"
         inkscape:connector-curvature="0" />
      <path
         d="m 76.515878,247.03926 -4.049801,8.32283 H 71.43768 l -4.089664,-8.32283 h 1.8256 l 2.798192,5.71596 2.814137,-5.71596 z"
         style="font-style:normal;font-variant:normal;font-weight:normal;font-stretch:normal;font-size:55.88350677px;line-height:1.25;font-family:'Anita Semi-square';-inkscape-font-specification:'Anita Semi-square, Normal';font-variant-ligatures:normal;font-variant-caps:normal;font-variant-numeric:normal;font-feature-settings:normal;text-align:start;letter-spacing:0px;word-spacing:0px;writing-mode:lr-tb;text-anchor:start;fill:#29487d;fill-opacity:1;stroke:none;stroke-width:0.68028218"
         id="path1516"
         inkscape:connector-curvature="0" />
      <path
         d="m 84.184998,248.64962 h -3.707009 q -1.09217,0.008 -1.108115,1.06825 v 3.11708 q -0.008,0.84503 1.450917,0.853 h 3.300428 q 1.124062,0 1.132034,-0.62979 v -3.34029 q 0,-1.06028 -1.068255,-1.06825 z m 2.75833,0.84503 v 3.78673 q -0.008,2.05679 -2.543087,2.08071 h -4.193299 q -2.503228,-0.0239 -2.511197,-2.14449 v -3.72295 q 0.02392,-2.50322 2.527139,-2.5112 h 4.185329 q 2.511198,0 2.535115,2.5112 z"
         style="font-style:normal;font-variant:normal;font-weight:normal;font-stretch:normal;font-size:55.88350677px;line-height:1.25;font-family:'Anita Semi-square';-inkscape-font-specification:'Anita Semi-square, Normal';font-variant-ligatures:normal;font-variant-caps:normal;font-variant-numeric:normal;font-feature-settings:normal;text-align:start;letter-spacing:0px;word-spacing:0px;writing-mode:lr-tb;text-anchor:start;fill:#29487d;fill-opacity:1;stroke:none;stroke-width:0.68028218"
         id="path1518"
         inkscape:connector-curvature="0" />
      <path
         d="m 98.056372,248.63367 h -6.63275 q -0.829093,0.008 -0.829093,0.82112 0,0.83707 0.837065,0.84504 h 4.153443 q 2.511194,0 2.519167,2.15246 v 0.82112 q -0.03986,2.08868 -2.559029,2.08868 h -6.608833 v -1.66616 h 6.393587 q 1.052313,-0.008 1.0842,-0.92476 -0.008,-0.75735 -1.076225,-0.77329 h -3.90631 q -2.511197,0 -2.519169,-2.05679 v -0.84504 q 0.008,-2.10462 2.519169,-2.10462 h 6.624778 z"
         style="font-style:normal;font-variant:normal;font-weight:normal;font-stretch:normal;font-size:55.88350677px;line-height:1.25;font-family:'Anita  Semi-square';-inkscape-font-specification:'Anita  Semi-square, Normal';font-variant-ligatures:normal;font-variant-caps:normal;font-variant-numeric:normal;font-feature-settings:normal;text-align:start;letter-spacing:0px;word-spacing:0px;writing-mode:lr-tb;text-anchor:start;fill:#000000;fill-opacity:1;stroke:none;stroke-width:0.68028218"
         id="path1520"
         inkscape:connector-curvature="0" />
      <path
         d="m 99.666725,243.64317 h 1.674135 v 11.71892 h -1.674135 z m 7.222685,11.71892 -4.71148,-4.52016 4.51218,-3.84253 h 2.57497 l -4.58393,3.91428 4.63176,4.44841 z"
         style="font-style:normal;font-variant:normal;font-weight:normal;font-stretch:normal;font-size:55.88350677px;line-height:1.25;font-family:'Anita  Semi-square';-inkscape-font-specification:'Anita  Semi-square, Normal';font-variant-ligatures:normal;font-variant-caps:normal;font-variant-numeric:normal;font-feature-settings:normal;text-align:start;letter-spacing:0px;word-spacing:0px;writing-mode:lr-tb;text-anchor:start;fill:#000000;fill-opacity:1;stroke:none;stroke-width:0.68028218"
         id="path1522"
         inkscape:connector-curvature="0" />
      <path
         sodipodi:nodetypes="cccccccccscccccccs"
         d="m 112.12705,246.98984 v 5.55652 c 0.005,0.76 0.39595,1.14266 1.17189,1.14798 h 3.75484 v 1.66616 h -4.09764 c -1.6635,-0.005 -2.50057,-0.82378 -2.51119,-2.4554 v -5.91526 z m 7.54156,0 v 10.71587 c -0.0106,1.6635 -0.8477,2.50057 -2.5112,2.5112 h -5.03036 v -3.26171 h 4.76729 c 0.72811,-0.005 1.09483,-0.35609 1.10014,-1.05232 v -8.91304 z"
         style="font-style:normal;font-variant:normal;font-weight:normal;font-stretch:normal;font-size:55.88350677px;line-height:1.25;font-family:'Anita  Semi-square';-inkscape-font-specification:'Anita  Semi-square, Normal';font-variant-ligatures:normal;font-variant-caps:normal;font-variant-numeric:normal;font-feature-settings:normal;text-align:start;letter-spacing:0px;word-spacing:0px;writing-mode:lr-tb;text-anchor:start;fill:#000000;fill-opacity:1;stroke:none;stroke-width:0.68028218"
         id="path1524"
         inkscape:connector-curvature="0" />
      <path
         inkscape:connector-curvature="0"
         d="m 80.292437,259.60149 h 2.023579 v 0.54702 h -2.810211 v -3.19317 h 2.810211 v 0.54702 h -2.023579 z"
         style="font-style:normal;font-variant:normal;font-weight:normal;font-stretch:normal;font-size:medium;line-height:1.25;font-family:SquareFont;-inkscape-font-specification:SquareFont;letter-spacing:0px;word-spacing:0px;fill:#000000;fill-opacity:1;stroke:none;stroke-width:0.06041927"
         id="path1540" />
      <path
         inkscape:connector-curvature="0"
         d="m 85.70195,256.95534 v 3.19317 h -2.810208 v -3.19317 z m -0.738179,0.54702 h -1.285402 v 2.09913 h 1.285402 z"
         style="font-style:normal;font-variant:normal;font-weight:normal;font-stretch:normal;font-size:medium;line-height:1.25;font-family:SquareFont;-inkscape-font-specification:SquareFont;letter-spacing:0px;word-spacing:0px;fill:#000000;fill-opacity:1;stroke:none;stroke-width:0.06041927"
         id="path1542" />
      <path
         inkscape:connector-curvature="0"
         d="m 87.064303,260.14851 h -0.78663 v -3.19317 h 0.78663 l 1.2854,1.79004 v -1.79004 h 0.738179 v 3.19317 h -0.738179 l -1.2854,-1.84341 z"
         style="font-style:normal;font-variant:normal;font-weight:normal;font-stretch:normal;font-size:medium;line-height:1.25;font-family:SquareFont;-inkscape-font-specification:SquareFont;letter-spacing:0px;word-spacing:0px;fill:#000000;fill-opacity:1;stroke:none;stroke-width:0.06041927"
         id="path1544" />
      <path
         inkscape:connector-curvature="0"
         d="m 90.450237,260.14851 h -0.78663 v -3.19317 h 0.78663 l 1.2854,1.79004 v -1.79004 h 0.738179 v 3.19317 h -0.738179 l -1.2854,-1.84341 z"
         style="font-style:normal;font-variant:normal;font-weight:normal;font-stretch:normal;font-size:medium;line-height:1.25;font-family:SquareFont;-inkscape-font-specification:SquareFont;letter-spacing:0px;word-spacing:0px;fill:#000000;fill-opacity:1;stroke:none;stroke-width:0.06041927"
         id="path1546" />
      <path
         inkscape:connector-curvature="0"
         d="m 93.836171,257.50236 v 0.7894 h 2.023579 v 0.52033 h -2.023579 v 0.7894 h 2.023579 v 0.54702 h -2.810211 v -3.19317 h 2.810211 v 0.54702 z"
         style="font-style:normal;font-variant:normal;font-weight:normal;font-stretch:normal;font-size:medium;line-height:1.25;font-family:SquareFont;-inkscape-font-specification:SquareFont;letter-spacing:0px;word-spacing:0px;fill:#000000;fill-opacity:1;stroke:none;stroke-width:0.06041927"
         id="path1548" />
      <path
         inkscape:connector-curvature="0"
         d="m 97.222103,259.60149 h 2.023581 v 0.54702 h -2.810211 v -3.19317 h 2.810211 v 0.54702 h -2.023581 z"
         style="font-style:normal;font-variant:normal;font-weight:normal;font-stretch:normal;font-size:medium;line-height:1.25;font-family:SquareFont;-inkscape-font-specification:SquareFont;letter-spacing:0px;word-spacing:0px;fill:#000000;fill-opacity:1;stroke:none;stroke-width:0.06041927"
         id="path1550" />
      <path
         inkscape:connector-curvature="0"
         d="m 100.8845,257.50236 h -1.063096 v -0.54702 h 2.810216 v 0.54702 h -0.96049 v 2.64615 h -0.78663 z"
         style="font-style:normal;font-variant:normal;font-weight:normal;font-stretch:normal;font-size:medium;line-height:1.25;font-family:SquareFont;-inkscape-font-specification:SquareFont;letter-spacing:0px;word-spacing:0px;fill:#000000;fill-opacity:1;stroke:none;stroke-width:0.06041927"
         id="path1552" />
      <path
         inkscape:connector-curvature="0"
         d="m 103.99397,260.14851 h -0.78663 v -3.19317 h 0.78663 z"
         style="font-style:normal;font-variant:normal;font-weight:normal;font-stretch:normal;font-size:medium;line-height:1.25;font-family:SquareFont;-inkscape-font-specification:SquareFont;letter-spacing:0px;word-spacing:0px;fill:#000000;fill-opacity:1;stroke:none;stroke-width:0.06041927"
         id="path1554" />
      <path
         inkscape:connector-curvature="0"
         d="m 107.3742,256.95534 v 3.19317 h -2.81021 v -3.19317 z m -0.73818,0.54702 h -1.2854 v 2.09913 h 1.2854 z"
         style="font-style:normal;font-variant:normal;font-weight:normal;font-stretch:normal;font-size:medium;line-height:1.25;font-family:SquareFont;-inkscape-font-specification:SquareFont;letter-spacing:0px;word-spacing:0px;fill:#000000;fill-opacity:1;stroke:none;stroke-width:0.06041927"
         id="path1556" />
      <path
         inkscape:connector-curvature="0"
         d="m 108.73656,260.14851 h -0.78664 v -3.19317 h 0.78664 l 1.2854,1.79004 v -1.79004 h 0.73817 v 3.19317 h -0.73817 l -1.2854,-1.84341 z"
         style="font-style:normal;font-variant:normal;font-weight:normal;font-stretch:normal;font-size:medium;line-height:1.25;font-family:SquareFont;-inkscape-font-specification:SquareFont;letter-spacing:0px;word-spacing:0px;fill:#000000;fill-opacity:1;stroke:none;stroke-width:0.06041927"
         id="path1558" />
      <g
         aria-label="the"
         style="font-style:normal;font-variant:normal;font-weight:normal;font-stretch:normal;font-size:2.68709898px;line-height:1.25;font-family:'DIN Condensed';-inkscape-font-specification:'DIN Condensed, ';letter-spacing:0px;word-spacing:0px;fill:#000000;fill-opacity:1;stroke:none;stroke-width:0.03148944"
         id="text1608">
        <path
           d="m 57.4681,242.31913 h -0.489398 v -0.32277 h 1.293691 v 0.32277 h -0.442164 v 1.56135 H 57.4681 Z"
           style="font-style:normal;font-variant:normal;font-weight:normal;font-stretch:normal;font-family:SquareFont;-inkscape-font-specification:SquareFont;stroke-width:0.03148944"
           id="path2446" />
        <path
           d="m 58.899558,243.88048 h -0.362129 v -1.88412 h 0.362129 v 0.78855 h 0.591739 v -0.78855 h 0.339824 v 1.88412 h -0.339824 v -0.78855 h -0.591739 z"
           style="font-style:normal;font-variant:normal;font-weight:normal;font-stretch:normal;font-family:SquareFont;-inkscape-font-specification:SquareFont;stroke-width:0.03148944"
           id="path2448" />
        <path
           d="m 60.458285,242.31913 v 0.46578 h 0.931563 v 0.30702 h -0.931563 v 0.46578 h 0.931563 v 0.32277 h -1.293691 v -1.88412 h 1.293691 v 0.32277 z"
           style="font-style:normal;font-variant:normal;font-weight:normal;font-stretch:normal;font-family:SquareFont;-inkscape-font-specification:SquareFont;stroke-width:0.03148944"
           id="path2450" />
      </g>
      <path
         inkscape:connector-curvature="0"
         style="opacity:1;fill:#000000;fill-opacity:1;stroke:none;stroke-width:0.01614403;stroke-linecap:square;stroke-linejoin:miter;stroke-miterlimit:4;stroke-dasharray:none;stroke-dashoffset:0;stroke-opacity:1"
         d="m 39.201915,256.95534 h 3.890613 c 0.359623,0 0.649137,0.28952 0.649137,0.64914 v 1.89489 c 0,0.35962 -0.289514,0.64914 -0.649137,0.64914 h -3.890613 c -0.359622,0 -0.649137,-0.28952 -0.649137,-0.64914 v -1.89489 c 0,-0.35962 0.289515,-0.64914 0.649137,-0.64914 z"
         id="rect850" />
      <path
         style="opacity:1;fill:#000000;fill-opacity:1;stroke:none;stroke-width:0.01614403;stroke-linecap:square;stroke-linejoin:miter;stroke-miterlimit:4;stroke-dasharray:none;stroke-dashoffset:0;stroke-opacity:1"
         d="m 44.826241,256.95534 h 3.890614 c 0.359622,0 0.649137,0.28952 0.649137,0.64914 v 1.89489 c 0,0.35962 -0.289515,0.64914 -0.649137,0.64914 h -3.890614 c -0.359622,0 -0.649136,-0.28952 -0.649136,-0.64914 v -1.89489 c 0,-0.35962 0.289514,-0.64914 0.649136,-0.64914 z"
         id="rect854"
         inkscape:connector-curvature="0" />
      <path
         style="opacity:1;fill:#000000;fill-opacity:1;stroke:none;stroke-width:0.01614403;stroke-linecap:square;stroke-linejoin:miter;stroke-miterlimit:4;stroke-dasharray:none;stroke-dashoffset:0;stroke-opacity:1"
         d="m 50.450565,256.95534 h 3.890617 c 0.359619,0 0.649134,0.28952 0.649134,0.64914 v 1.89489 c 0,0.35962 -0.289515,0.64914 -0.649134,0.64914 h -3.890617 c -0.359619,0 -0.649134,-0.28952 -0.649134,-0.64914 v -1.89489 c 0,-0.35962 0.289515,-0.64914 0.649134,-0.64914 z"
         id="rect856"
         inkscape:connector-curvature="0" />
      <path
         style="opacity:1;fill:#000000;fill-opacity:1;stroke:none;stroke-width:0.01614403;stroke-linecap:square;stroke-linejoin:miter;stroke-miterlimit:4;stroke-dasharray:none;stroke-dashoffset:0;stroke-opacity:1"
         d="m 56.074892,256.95534 h 3.890616 c 0.35962,0 0.649137,0.28952 0.649137,0.64914 v 1.89489 c 0,0.35962 -0.289517,0.64914 -0.649137,0.64914 h -3.890616 c -0.35962,0 -0.649137,-0.28952 -0.649137,-0.64914 v -1.89489 c 0,-0.35962 0.289517,-0.64914 0.649137,-0.64914 z"
         id="rect858"
         inkscape:connector-curvature="0" />
      <path
         style="opacity:1;fill:#000000;fill-opacity:1;stroke:none;stroke-width:0.01614403;stroke-linecap:square;stroke-linejoin:miter;stroke-miterlimit:4;stroke-dasharray:none;stroke-dashoffset:0;stroke-opacity:1"
         d="m 61.699219,256.95534 h 3.890613 c 0.359622,0 0.649137,0.28952 0.649137,0.64914 v 1.89489 c 0,0.35962 -0.289515,0.64914 -0.649137,0.64914 h -3.890613 c -0.359623,0 -0.649137,-0.28952 -0.649137,-0.64914 v -1.89489 c 0,-0.35962 0.289514,-0.64914 0.649137,-0.64914 z"
         id="rect860"
         inkscape:connector-curvature="0" />
      <path
         style="opacity:1;fill:#000000;fill-opacity:1;stroke:none;stroke-width:0.01614403;stroke-linecap:square;stroke-linejoin:miter;stroke-miterlimit:4;stroke-dasharray:none;stroke-dashoffset:0;stroke-opacity:1"
         d="m 67.323542,256.95534 h 3.890614 c 0.359622,0 0.649137,0.28952 0.649137,0.64914 v 1.89489 c 0,0.35962 -0.289515,0.64914 -0.649137,0.64914 h -3.890614 c -0.359622,0 -0.649136,-0.28952 -0.649136,-0.64914 v -1.89489 c 0,-0.35962 0.289514,-0.64914 0.649136,-0.64914 z"
         id="rect862"
         inkscape:connector-curvature="0" />
      <path
         style="color:#000000;font-style:normal;font-variant:normal;font-weight:normal;font-stretch:normal;font-size:medium;line-height:normal;font-family:sans-serif;font-variant-ligatures:normal;font-variant-position:normal;font-variant-caps:normal;font-variant-numeric:normal;font-variant-alternates:normal;font-feature-settings:normal;text-indent:0;text-align:start;text-decoration:none;text-decoration-line:none;text-decoration-style:solid;text-decoration-color:#000000;letter-spacing:normal;word-spacing:normal;text-transform:none;writing-mode:lr-tb;direction:ltr;text-orientation:mixed;dominant-baseline:auto;baseline-shift:baseline;text-anchor:start;white-space:normal;shape-padding:0;clip-rule:nonzero;display:inline;overflow:visible;visibility:visible;opacity:1;isolation:auto;mix-blend-mode:normal;color-interpolation:sRGB;color-interpolation-filters:linearRGB;solid-color:#000000;solid-opacity:1;vector-effect:none;fill:#ffffff;fill-opacity:1;fill-rule:nonzero;stroke:none;stroke-width:0.40142035;stroke-linecap:square;stroke-linejoin:miter;stroke-miterlimit:4;stroke-dasharray:none;stroke-dashoffset:0;stroke-opacity:1;color-rendering:auto;image-rendering:auto;shape-rendering:auto;text-rendering:auto;enable-background:accumulate"
         d="m 41.127533,257.37648 -0.202708,0.21047 0.184389,0.19138 c -0.412082,0.0196 -0.736305,0.35613 -0.736305,0.77336 0,0.43 0.344339,0.7743 0.774332,0.7743 0.429989,0 0.774294,-0.3443 0.774294,-0.7743 0,-0.3943 -0.289604,-0.71636 -0.669237,-0.76713 l -0.190304,-0.19761 0.19786,-0.20541 c 0.594547,0.0571 1.063065,0.56121 1.063065,1.17015 0,0.64694 -0.528745,1.17568 -1.175678,1.17568 -0.646937,0 -1.175717,-0.52874 -1.175717,-1.17568 0,-0.64032 0.518113,-1.16456 1.156009,-1.17521 z"
         id="circle998"
         inkscape:connector-curvature="0" />
      <path
         style="fill:#ffffff;fill-opacity:1;stroke:none;stroke-width:0.01100579px;stroke-linecap:butt;stroke-linejoin:miter;stroke-opacity:1"
         d="m 46.773535,257.37623 -0.964104,1.10322 h 1.924231 z m -0.964104,1.24815 0.964104,1.10324 0.960127,-1.10324 z"
         id="path1021"
         inkscape:connector-curvature="0" />
      <path
         inkscape:connector-curvature="0"
         style="opacity:1;fill:#ffffff;fill-opacity:1;stroke:none;stroke-width:0.13162062;stroke-linecap:square;stroke-linejoin:miter;stroke-miterlimit:4;stroke-dasharray:none;stroke-dashoffset:0;stroke-opacity:1"
         d="m 51.220176,258.35121 h 2.351392 v 0.40142 h -2.351392 z"
         id="rect1028" />
      <path
         inkscape:connector-curvature="0"
         style="opacity:1;fill:#ffffff;fill-opacity:1;stroke:none;stroke-width:0.09988637;stroke-linecap:square;stroke-linejoin:miter;stroke-miterlimit:4;stroke-dasharray:none;stroke-dashoffset:0;stroke-opacity:1"
         d="m 51.718761,257.86372 h 1.354221 v 0.40142 h -1.354221 z"
         id="rect1030" />
      <path
         inkscape:connector-curvature="0"
         style="opacity:1;fill:#ffffff;fill-opacity:1;stroke:none;stroke-width:0.09988637;stroke-linecap:square;stroke-linejoin:miter;stroke-miterlimit:4;stroke-dasharray:none;stroke-dashoffset:0;stroke-opacity:1"
         d="m 51.718761,258.8387 h 1.354221 v 0.40142 h -1.354221 z"
         id="rect1032" />
      <path
         inkscape:connector-curvature="0"
         style="opacity:1;fill:#ffffff;fill-opacity:1;stroke:none;stroke-width:0.067174;stroke-linecap:square;stroke-linejoin:miter;stroke-miterlimit:4;stroke-dasharray:none;stroke-dashoffset:0;stroke-opacity:1"
         d="m 52.08964,259.3262 h 0.612463 v 0.40142 H 52.08964 Z"
         id="rect1034" />
      <path
         inkscape:connector-curvature="0"
         style="opacity:1;fill:#ffffff;fill-opacity:1;stroke:none;stroke-width:0.067174;stroke-linecap:square;stroke-linejoin:miter;stroke-miterlimit:4;stroke-dasharray:none;stroke-dashoffset:0;stroke-opacity:1"
         d="m 52.08964,257.37623 h 0.612463 v 0.40142 H 52.08964 Z"
         id="rect1036" />
      <path
         style="opacity:1;fill:#ffffff;fill-opacity:1;stroke:none;stroke-width:0.09988637;stroke-linecap:square;stroke-linejoin:miter;stroke-miterlimit:4;stroke-dasharray:none;stroke-dashoffset:0;stroke-opacity:1"
         d="m 57.819489,257.37623 v 0.4764 h -0.4764 v 0.40142 h 0.4764 v 0.4764 h 0.40142 v -0.4764 h 0.476403 v -0.40142 h -0.476403 v -0.4764 z"
         id="path1079"
         inkscape:connector-curvature="0" />
      <path
         inkscape:connector-curvature="0"
         style="opacity:1;fill:#ffffff;fill-opacity:1;stroke:none;stroke-width:0.09988637;stroke-linecap:square;stroke-linejoin:miter;stroke-miterlimit:4;stroke-dasharray:none;stroke-dashoffset:0;stroke-opacity:1"
         d="m 57.34309,259.3262 h 1.354221 v 0.40142 H 57.34309 Z"
         id="path1083" />
      <path
         id="path1091"
         d="m 72.947866,256.95534 h 3.890614 c 0.359622,0 0.649137,0.28952 0.649137,0.64914 v 1.89489 c 0,0.35962 -0.289515,0.64914 -0.649137,0.64914 h -3.890614 c -0.359622,0 -0.649136,-0.28952 -0.649136,-0.64914 v -1.89489 c 0,-0.35962 0.289514,-0.64914 0.649136,-0.64914 z"
         style="opacity:1;fill:#000000;fill-opacity:1;stroke:none;stroke-width:0.01614403;stroke-linecap:square;stroke-linejoin:miter;stroke-miterlimit:4;stroke-dasharray:none;stroke-dashoffset:0;stroke-opacity:1"
         inkscape:connector-curvature="0" />
      <path
         style="color:#000000;font-style:normal;font-variant:normal;font-weight:normal;font-stretch:normal;font-size:medium;line-height:normal;font-family:sans-serif;font-variant-ligatures:normal;font-variant-position:normal;font-variant-caps:normal;font-variant-numeric:normal;font-variant-alternates:normal;font-feature-settings:normal;text-indent:0;text-align:start;text-decoration:none;text-decoration-line:none;text-decoration-style:solid;text-decoration-color:#000000;letter-spacing:normal;word-spacing:normal;text-transform:none;writing-mode:lr-tb;direction:ltr;text-orientation:mixed;dominant-baseline:auto;baseline-shift:baseline;text-anchor:start;white-space:normal;shape-padding:0;clip-rule:nonzero;display:inline;overflow:visible;visibility:visible;opacity:1;isolation:auto;mix-blend-mode:normal;color-interpolation:sRGB;color-interpolation-filters:linearRGB;solid-color:#000000;solid-opacity:1;vector-effect:none;fill:#ffffff;fill-opacity:1;fill-rule:nonzero;stroke:none;stroke-width:0.37436131;stroke-linecap:butt;stroke-linejoin:miter;stroke-miterlimit:4;stroke-dasharray:none;stroke-dashoffset:0;stroke-opacity:1;color-rendering:auto;image-rendering:auto;shape-rendering:auto;text-rendering:auto;enable-background:accumulate"
         d="m 63.231635,257.37656 c -0.05432,-0.002 -0.109672,0.007 -0.155257,0.03 -0.09117,0.0452 -0.153792,0.11634 -0.21599,0.20716 -0.124392,0.18164 -0.245841,0.46019 -0.391644,0.88938 l 0.354504,0.12055 c 0.140751,-0.41431 0.261667,-0.67501 0.346133,-0.79835 0.02144,-0.0313 0.0239,-0.0291 0.03729,-0.0423 0.01284,0.0229 0.05379,0.0724 0.09817,0.20579 0.05411,0.16261 0.106028,0.38145 0.157085,0.61464 l 5.4e-4,0.002 5.41e-4,0.002 c 0.05071,0.21107 0.101543,0.42617 0.162108,0.61053 0.06056,0.18435 0.10928,0.34301 0.26348,0.45313 0.0771,0.0551 0.205074,0.0759 0.301686,0.0367 0.09661,-0.0393 0.162556,-0.10899 0.226646,-0.19742 0.128177,-0.17686 0.252137,-0.45162 0.403515,-0.88482 l -0.353437,-0.12359 c -0.145982,0.41775 -0.270147,0.67405 -0.353288,0.78876 -0.01844,0.0254 -0.01673,0.0201 -0.02846,0.0312 -0.01668,-0.0271 -0.06047,-0.0871 -0.104417,-0.22086 -0.05249,-0.15977 -0.102514,-0.36731 -0.152973,-0.57735 l -8.11e-4,-0.004 c -0.05154,-0.23524 -0.104108,-0.46101 -0.166671,-0.64904 -0.06292,-0.18908 -0.112527,-0.34975 -0.27916,-0.45192 -0.04166,-0.0255 -0.09499,-0.0398 -0.149321,-0.0422 z"
         id="path1095"
         inkscape:connector-curvature="0" />
      <path
         style="fill:#ffffff;fill-opacity:1;stroke:none;stroke-width:0.01135337px;stroke-linecap:butt;stroke-linejoin:miter;stroke-opacity:1"
         d="m 68.093154,257.55944 v 1.98497 l 1.138034,-0.99043 z m 2.351393,0 -1.138069,0.99454 1.138069,0.99043 z"
         id="path1099"
         inkscape:connector-curvature="0" />
      <path
         style="opacity:1;fill:#ffffff;fill-opacity:1;stroke:none;stroke-width:0.09700451;stroke-linecap:square;stroke-linejoin:miter;stroke-miterlimit:4;stroke-dasharray:none;stroke-dashoffset:0;stroke-opacity:1"
         d="m 75.568346,257.83969 -0.500654,0.55215 0.26679,0.24179 0.05383,-0.0594 v 0.68989 h 0.360033 v -0.68995 l 0.0539,0.0594 0.26663,-0.24179 z m -1.423547,3.2e-4 v 0.85132 h -0.427321 v 0.32488 h 0.427321 v 0.2477 h 0.360069 v -0.2477 h 0.427321 v -0.32488 h -0.427321 v -0.85132 z"
         id="path1104"
         inkscape:connector-curvature="0" />
    </g>
  </g>
</svg>
