<?xml version="1.0" encoding="UTF-8" standalone="no"?>
<!-- Created with Inkscape (http://www.inkscape.org/) -->

<svg
   xmlns:dc="http://purl.org/dc/elements/1.1/"
   xmlns:cc="http://creativecommons.org/ns#"
   xmlns:rdf="http://www.w3.org/1999/02/22-rdf-syntax-ns#"
   xmlns:svg="http://www.w3.org/2000/svg"
   xmlns="http://www.w3.org/2000/svg"
   xmlns:sodipodi="http://sodipodi.sourceforge.net/DTD/sodipodi-0.dtd"
   xmlns:inkscape="http://www.inkscape.org/namespaces/inkscape"
   width="50"
   height="30"
   viewBox="0 0 13.229166 7.9375"
   version="1.1"
   id="svg2957"
   inkscape:version="0.92.2 5c3e80d, 2017-08-06"
   sodipodi:docname="fuel_lists_icon.svg">
  <defs
     id="defs2951" />
  <sodipodi:namedview
     id="base"
     pagecolor="#ffffff"
     bordercolor="#666666"
     borderopacity="1.0"
     inkscape:pageopacity="0.0"
     inkscape:pageshadow="2"
     inkscape:zoom="15.162588"
     inkscape:cx="38.714096"
     inkscape:cy="18.384776"
     inkscape:document-units="px"
     inkscape:current-layer="g3936"
     showgrid="false"
     units="px"
     inkscape:showpageshadow="false"
     inkscape:window-width="1920"
     inkscape:window-height="1035"
     inkscape:window-x="0"
     inkscape:window-y="1"
     inkscape:window-maximized="1" />
  <metadata
     id="metadata2954">
    <rdf:RDF>
      <cc:Work
         rdf:about="">
        <dc:format>image/svg+xml</dc:format>
        <dc:type
           rdf:resource="http://purl.org/dc/dcmitype/StillImage" />
        <dc:title></dc:title>
      </cc:Work>
    </rdf:RDF>
  </metadata>
  <g
     inkscape:label="Livello 1"
     inkscape:groupmode="layer"
     id="layer1"
     transform="translate(0,-289.06248)">
    <g
       id="g3936"
       transform="matrix(0.06444444,0,0,0.06444444,21.814264,291.38061)">
      <g
         id="g12013"
         transform="translate(242.08161,2.3034827)">
        <path
           style="fill:#a1a1aa;stroke-width:3.01198602"
           inkscape:connector-curvature="0"
           d="m -458.16451,-12.834244 v 24.095886 h 12.04795 V -0.78630125 Z"
           id="path10015" />
        <path
           style="fill:#a1a1aa;stroke-width:3.01198602"
           inkscape:connector-curvature="0"
           d="m -476.23642,44.393486 h 12.04794 V 56.44143 h -12.04794"
           id="path10017" />
        <path
           style="fill:#7ed8f6;fill-opacity:1;stroke-width:3.01198602"
           inkscape:connector-curvature="0"
           d="m -536.47614,-33.918144 h 60.23972 V 68.489374 h -60.23972 z"
           id="path10019" />
        <path
           style="fill:#a1a1aa;stroke-width:3.01198602"
           inkscape:connector-curvature="0"
           d="m -524.4282,-21.870202 h 36.14383 V 2.2256847 h -36.14383 z"
           id="path10021" />
        <path
           style="fill:#d7d7e2;stroke-width:3.01198602"
           inkscape:connector-curvature="0"
           d="m -524.4282,-21.870202 h 27.10788 V 2.2256847 h -27.10788 z"
           id="path10023" />
        <path
           style="fill:#a1a1aa;stroke-width:3.01198602"
           inkscape:connector-curvature="0"
           d="m -494.30834,56.44143 c -3.32824,0 -6.02397,-2.695727 -6.02397,-6.023972 V 38.369515 c 0,-3.328245 2.69573,-6.023972 6.02397,-6.023972 3.32825,0 6.02397,2.695727 6.02397,6.023972 v 12.047943 c 0,3.328245 -2.69572,6.023972 -6.02397,6.023972 z"
           id="path10025" />
        <path
           style="fill:#d7d7e2;stroke-width:3.01198602"
           inkscape:connector-curvature="0"
           d="m -494.30834,38.369515 c 0,-2.222846 -1.21985,-4.144493 -3.01198,-5.189651 -1.79214,1.042146 -3.01199,2.963793 -3.01199,5.189651 v 12.047943 c 0,2.222846 1.21985,4.144494 3.01199,5.189652 1.79213,-1.042148 3.01198,-2.963794 3.01198,-5.189652 z"
           id="path10027" />
        <path
           style="fill:#0d9bd7;fill-opacity:1;stroke-width:3.01198602"
           inkscape:connector-curvature="0"
           d="m -542.5001,68.489374 h 72.28765 v 12.047943 h -72.28765 z"
           id="path10029" />
        <path
           style="fill:#3ac0f2;fill-opacity:1;stroke-width:3.01198602"
           inkscape:connector-curvature="0"
           d="m -542.5001,68.489374 h 63.2517 v 12.047943 h -63.2517 z"
           id="path10031" />
        <path
           style="fill:#797980;stroke-width:3.01198602"
           inkscape:connector-curvature="0"
           d="m -446.11656,14.273628 h -12.04795 c -1.66262,0 -3.01199,-1.349369 -3.01199,-3.011986 v -22.848929 l -5.14146,-5.141458 4.25895,-4.258948 18.07192,18.0719172 c 0.56625,0.5632429 0.88251,1.3312964 0.88251,2.12947455 V 11.261642 c 0,1.662617 -1.34937,3.011986 -3.01198,3.011986 z m -9.03596,-6.0239714 h 6.02398 V 0.46066093 l -6.02398,-6.02397183 z"
           id="path10049" />
        <path
           style="fill:#797980;stroke-width:3.01198602"
           inkscape:connector-curvature="0"
           d="m -455.15252,53.429444 h -9.03596 v -6.023972 h 9.03596 c 3.32223,0 6.02398,-2.701751 6.02398,-6.023972 V 11.261642 h 6.02396 V 41.3815 c 0,6.644442 -5.4035,12.047944 -12.04794,12.047944 z"
           id="path10051" />
        <path
           style="fill:#797980;stroke-width:3.01198602"
           inkscape:connector-curvature="0"
           d="m -527.44018,11.261642 h 42.1678 v 6.023972 h -42.1678 z"
           id="path10053" />
      </g>
      <g
         id="g12295"
         transform="matrix(0.79182111,0,0,0.79182111,-116.24843,0.53688645)">
        <path
           sodipodi:nodetypes="ccccsscc"
           style="fill:#f0f7ff;stroke-width:0.23254396"
           inkscape:connector-curvature="0"
           d="m -21.429858,-25.328323 v 89.577536 l -18.60352,5.8136 -5.8136,18.60351 h -48.83423 c -1.92547,0 -3.48816,-1.56269 -3.48816,-3.48816 V -25.328323 Z"
           id="path4442" />
        <path
           sodipodi:nodetypes="ccccccc"
           style="fill:#dfe7f4;stroke-width:0.23254396"
           inkscape:connector-curvature="0"
           d="m -21.429858,-25.057551 v 89.306764 l -18.60352,5.8136 -5.8136,18.60351 h -13.95264 V -25.057551 Z"
           id="path4444" />
        <g
           transform="translate(0,-7.2763287e-6)"
           id="g12275">
          <path
             inkscape:connector-curvature="0"
             d="m -83.127458,-6.3041771 c 0.0193,0.71382 -0.32798,1.08038 -1.0225,1.08038 h -1.63987 c -0.67524,0 -1.00321,-0.30868 -1.00321,-0.92604 v -1.27331 h 1.67845 l 0.79099,-1.73632 h -2.46944 v -1.5433999 h 3.16397 l 0.79099,-1.73633 h -3.95496 v -1.65915 c 0,-0.63665 0.32797,-0.96463 1.00321,-0.96463 h 4.1286 l 1.23472,-2.70095 h -6.27007 c -1.71703,0 -2.79741,1.2926 -2.79741,3.06751 v 2.25722 h -1.25401 v 1.73633 h 1.25401 v 1.5433999 h -1.25401 v 1.73632 h 1.25401 v 1.83279 c 0,1.83279 1.0418,3.06751 2.836,3.06751 h 3.37619 c 0.90675,0 1.62057,-0.28939 2.12217,-0.88746 0.48232,-0.55948 0.73312,-1.29259 0.73312,-2.21863 z"
             style="font-style:normal;font-variant:normal;font-weight:normal;font-stretch:normal;font-size:medium;line-height:1.25;font-family:Mandatory;-inkscape-font-specification:Mandatory;letter-spacing:0px;word-spacing:0px;fill:#61729b;fill-opacity:1;stroke:none;stroke-width:0.72346884"
             id="path4484" />
          <path
             sodipodi:nodetypes="sssssss"
             id="path4488"
             d="m -76.556368,-10.143387 c 0,-1.90266 1.54252,-3.44517 3.44518,-3.44517 h 40.50534 c 1.90266,0 3.44517,1.54251 3.44517,3.44517 0,1.9026599 -1.54251,3.4451799 -3.44517,3.4451799 h -40.50534 c -1.90266,0 -3.44518,-1.54252 -3.44518,-3.4451799 z"
             inkscape:connector-curvature="0"
             style="fill:#61729b;stroke-width:0.2296783" />
        </g>
        <g
           transform="translate(0,2.4570635)"
           id="g12271">
          <path
             id="path4633"
             style="font-style:normal;font-variant:normal;font-weight:normal;font-stretch:normal;font-size:medium;line-height:1.25;font-family:Mandatory;-inkscape-font-specification:Mandatory;letter-spacing:0px;word-spacing:0px;fill:#61729b;fill-opacity:1;stroke:none;stroke-width:0.72346884"
             d="m -83.127458,10.987463 c 0.0193,0.71383 -0.32798,1.08038 -1.0225,1.08038 h -1.63987 c -0.67524,0 -1.00321,-0.30868 -1.00321,-0.92604 V 9.8685029 h 1.67845 l 0.79099,-1.73633 h -2.46944 v -1.5434 h 3.16397 l 0.79099,-1.73632 h -3.95496 v -1.65916 c 0,-0.63665 0.32797,-0.96462 1.00321,-0.96462 h 4.1286 l 1.23472,-2.70095003 h -6.27007 c -1.71703,0 -2.79741,1.2926 -2.79741,3.06750003 v 2.25723 h -1.25401 v 1.73632 h 1.25401 v 1.5434 h -1.25401 v 1.73633 h 1.25401 v 1.8327901 c 0,1.83278 1.0418,3.0675 2.836,3.0675 h 3.37619 c 0.90675,0 1.62057,-0.28938 2.12217,-0.88745 0.48232,-0.55948 0.73312,-1.2926 0.73312,-2.21864 z"
             inkscape:connector-curvature="0" />
          <path
             style="fill:#61729b;stroke-width:0.2296783"
             inkscape:connector-curvature="0"
             d="m -76.556368,7.1482629 c 0,-1.90266 1.54252,-3.44518 3.44518,-3.44518 h 40.50534 c 1.90266,0 3.44517,1.54252 3.44517,3.44518 0,1.90265 -1.54251,3.4451701 -3.44517,3.4451701 h -40.50534 c -1.90266,0 -3.44518,-1.5425201 -3.44518,-3.4451701 z"
             id="path4635"
             sodipodi:nodetypes="sssssss" />
        </g>
        <g
           transform="translate(0,5.1799543)"
           id="g12267">
          <path
             sodipodi:nodetypes="csssccccccccssccssccccccccsssccc"
             inkscape:connector-curvature="0"
             d="m -83.127458,28.013293 c 0.0193,0.71382 -0.32798,1.08038 -1.0225,1.08038 h -1.63987 c -0.67524,0 -1.00321,-0.30868 -1.00321,-0.92604 v -1.27331 h 1.67845 l 0.79099,-1.73633 h -2.46944 v -1.5434 h 3.16397 l 0.79099,-1.73632 h -3.95496 v -1.65916 c 0,-0.63665 0.32797,-0.96462 1.00321,-0.96462 h 4.1286 l 1.23472,-2.70095 h -6.27007 c -1.71703,0 -2.79741,1.2926 -2.79741,3.06751 v 2.25722 h -1.25401 v 1.73632 h 1.25401 v 1.5434 h -1.25401 v 1.73633 h 1.25401 v 1.83279 c 0,1.83279 1.0418,3.0675 2.836,3.0675 h 3.37619 c 0.90675,0 1.62057,-0.28938 2.12217,-0.88745 0.48232,-0.55948 0.73312,-1.2926 0.73312,-2.21864 z"
             style="font-style:normal;font-variant:normal;font-weight:normal;font-stretch:normal;font-size:medium;line-height:1.25;font-family:Mandatory;-inkscape-font-specification:Mandatory;letter-spacing:0px;word-spacing:0px;fill:#61729b;fill-opacity:1;stroke:none;stroke-width:0.72346884"
             id="path4637" />
          <path
             sodipodi:nodetypes="sssssss"
             id="path4639"
             d="m -76.556368,24.174083 c 0,-1.90266 1.54252,-3.44518 3.44518,-3.44518 h 29.53314 c 1.90266,0 3.44517,1.54252 3.44517,3.44518 0,1.90265 -1.54251,3.44517 -3.44517,3.44517 h -29.53314 c -1.90266,0 -3.44518,-1.54252 -3.44518,-3.44517 z"
             inkscape:connector-curvature="0"
             style="fill:#61729b;stroke-width:0.2296783" />
        </g>
        <g
           transform="translate(0,8.9531192)"
           id="g12263">
          <path
             id="path12249"
             style="font-style:normal;font-variant:normal;font-weight:normal;font-stretch:normal;font-size:medium;line-height:1.25;font-family:Mandatory;-inkscape-font-specification:Mandatory;letter-spacing:0px;word-spacing:0px;fill:#61729b;fill-opacity:1;stroke:none;stroke-width:0.72346884"
             d="m -83.127458,43.988839 c 0.0193,0.71382 -0.32798,1.08038 -1.0225,1.08038 h -1.63987 c -0.67524,0 -1.00321,-0.30868 -1.00321,-0.92604 v -1.27331 h 1.67845 l 0.79099,-1.73633 h -2.46944 v -1.5434 h 3.16397 l 0.79099,-1.73632 h -3.95496 v -1.65916 c 0,-0.63665 0.32797,-0.96462 1.00321,-0.96462 h 4.1286 l 1.23472,-2.70095 h -6.27007 c -1.71703,0 -2.79741,1.2926 -2.79741,3.06751 v 2.25722 h -1.25401 v 1.73632 h 1.25401 v 1.5434 h -1.25401 v 1.73633 h 1.25401 v 1.83279 c 0,1.83279 1.0418,3.0675 2.836,3.0675 h 3.37619 c 0.90675,0 1.62057,-0.28938 2.12217,-0.88745 0.48232,-0.55948 0.73312,-1.2926 0.73312,-2.21864 z"
             inkscape:connector-curvature="0"
             sodipodi:nodetypes="csssccccccccssccssccccccccsssccc" />
          <path
             style="fill:#61729b;stroke-width:0.2296783"
             inkscape:connector-curvature="0"
             d="m -76.556368,40.149629 c 0,-1.90266 1.54252,-3.44518 3.44518,-3.44518 h 37.114755 c 1.90266,0 3.44517,1.54252 3.44517,3.44518 0,1.90265 -1.54251,3.44517 -3.44517,3.44517 h -37.114755 c -1.90266,0 -3.44518,-1.54252 -3.44518,-3.44517 z"
             id="path12251"
             sodipodi:nodetypes="sssssss" />
        </g>
        <g
           id="g12259">
          <path
             sodipodi:nodetypes="csssccccccccssccssccccccccsssccc"
             inkscape:connector-curvature="0"
             d="m -83.127458,72.690667 c 0.0193,0.71382 -0.32798,1.08038 -1.0225,1.08038 h -1.63987 c -0.67524,0 -1.00321,-0.30868 -1.00321,-0.92604 v -1.27331 h 1.67845 l 0.79099,-1.73633 h -2.46944 v -1.5434 h 3.16397 l 0.79099,-1.73632 h -3.95496 v -1.65916 c 0,-0.63665 0.32797,-0.96462 1.00321,-0.96462 h 4.1286 l 1.23472,-2.70095 h -6.27007 c -1.71703,0 -2.79741,1.2926 -2.79741,3.06751 v 2.25722 h -1.25401 v 1.73632 h 1.25401 v 1.5434 h -1.25401 v 1.73633 h 1.25401 v 1.83279 c 0,1.83279 1.0418,3.0675 2.836,3.0675 h 3.37619 c 0.90675,0 1.62057,-0.28938 2.12217,-0.88745 0.48232,-0.55948 0.73312,-1.2926 0.73312,-2.21864 z"
             style="font-style:normal;font-variant:normal;font-weight:normal;font-stretch:normal;font-size:medium;line-height:1.25;font-family:Mandatory;-inkscape-font-specification:Mandatory;letter-spacing:0px;word-spacing:0px;fill:#61729b;fill-opacity:1;stroke:none;stroke-width:0.72346884"
             id="path12253" />
          <path
             sodipodi:nodetypes="sssssss"
             id="path12255"
             d="m -76.556368,68.851457 c 0,-1.90266 1.54252,-3.44518 3.44518,-3.44518 h 37.114755 c 1.90266,0 3.44517,1.54252 3.44517,3.44518 0,1.90265 -1.54251,3.44517 -3.44517,3.44517 h -37.114755 c -1.90266,0 -3.44518,-1.54252 -3.44518,-3.44517 z"
             inkscape:connector-curvature="0"
             style="fill:#61729b;stroke-width:0.2296783" />
        </g>
        <path
           style="fill:#c7cfe1;stroke-width:0.23254396"
           inkscape:connector-curvature="0"
           d="m -45.846978,88.666323 c 0.92529,0 1.81245,-0.36765 2.46636,-1.02179 l 20.92896,-20.92896 c 0.65438,-0.65415 1.0218,-1.5413 1.0218,-2.46636 h -20.92896 c -1.9264,0 -3.48816,1.56176 -3.48816,3.48816 z"
           id="path4446" />
      </g>
    </g>
  </g>
</svg>
