<?xml version="1.0" encoding="UTF-8" standalone="no"?>
<!-- Created with Inkscape (http://www.inkscape.org/) -->

<svg
   xmlns:dc="http://purl.org/dc/elements/1.1/"
   xmlns:cc="http://creativecommons.org/ns#"
   xmlns:rdf="http://www.w3.org/1999/02/22-rdf-syntax-ns#"
   xmlns:svg="http://www.w3.org/2000/svg"
   xmlns="http://www.w3.org/2000/svg"
   xmlns:sodipodi="http://sodipodi.sourceforge.net/DTD/sodipodi-0.dtd"
   xmlns:inkscape="http://www.inkscape.org/namespaces/inkscape"
   width="50"
   height="30"
   viewBox="0 0 13.229166 7.9375"
   version="1.1"
   id="svg2957"
   inkscape:version="0.92.2 5c3e80d, 2017-08-06"
   sodipodi:docname="fuel_edit_icon.svg">
  <defs
     id="defs2951" />
  <sodipodi:namedview
     id="base"
     pagecolor="#ffffff"
     bordercolor="#666666"
     borderopacity="1.0"
     inkscape:pageopacity="0.0"
     inkscape:pageshadow="2"
     inkscape:zoom="13.67"
     inkscape:cx="17.218243"
     inkscape:cy="18.36569"
     inkscape:document-units="px"
     inkscape:current-layer="g3936"
     showgrid="false"
     units="px"
     inkscape:showpageshadow="false"
     inkscape:window-width="1920"
     inkscape:window-height="1035"
     inkscape:window-x="0"
     inkscape:window-y="1"
     inkscape:window-maximized="1" />
  <metadata
     id="metadata2954">
    <rdf:RDF>
      <cc:Work
         rdf:about="">
        <dc:format>image/svg+xml</dc:format>
        <dc:type
           rdf:resource="http://purl.org/dc/dcmitype/StillImage" />
        <dc:title></dc:title>
      </cc:Work>
    </rdf:RDF>
  </metadata>
  <g
     inkscape:label="Livello 1"
     inkscape:groupmode="layer"
     id="layer1"
     transform="translate(0,-289.06248)">
    <g
       id="g3936"
       transform="matrix(0.06444444,0,0,0.06444444,21.814264,291.38061)">
      <g
         id="g12013"
         transform="translate(266.71524,2.3034827)">
        <path
           style="fill:#a1a1aa;stroke-width:3.01198602"
           inkscape:connector-curvature="0"
           d="m -458.16451,-12.834244 v 24.095886 h 12.04795 V -0.78630125 Z"
           id="path10015" />
        <path
           style="fill:#a1a1aa;stroke-width:3.01198602"
           inkscape:connector-curvature="0"
           d="m -476.23642,44.393486 h 12.04794 V 56.44143 h -12.04794"
           id="path10017" />
        <path
           style="fill:#7ed8f6;fill-opacity:1;stroke-width:3.01198602"
           inkscape:connector-curvature="0"
           d="m -536.47614,-33.918144 h 60.23972 V 68.489374 h -60.23972 z"
           id="path10019" />
        <path
           style="fill:#a1a1aa;stroke-width:3.01198602"
           inkscape:connector-curvature="0"
           d="m -524.4282,-21.870202 h 36.14383 V 2.2256847 h -36.14383 z"
           id="path10021" />
        <path
           style="fill:#d7d7e2;stroke-width:3.01198602"
           inkscape:connector-curvature="0"
           d="m -524.4282,-21.870202 h 27.10788 V 2.2256847 h -27.10788 z"
           id="path10023" />
        <path
           style="fill:#a1a1aa;stroke-width:3.01198602"
           inkscape:connector-curvature="0"
           d="m -494.30834,56.44143 c -3.32824,0 -6.02397,-2.695727 -6.02397,-6.023972 V 38.369515 c 0,-3.328245 2.69573,-6.023972 6.02397,-6.023972 3.32825,0 6.02397,2.695727 6.02397,6.023972 v 12.047943 c 0,3.328245 -2.69572,6.023972 -6.02397,6.023972 z"
           id="path10025" />
        <path
           style="fill:#d7d7e2;stroke-width:3.01198602"
           inkscape:connector-curvature="0"
           d="m -494.30834,38.369515 c 0,-2.222846 -1.21985,-4.144493 -3.01198,-5.189651 -1.79214,1.042146 -3.01199,2.963793 -3.01199,5.189651 v 12.047943 c 0,2.222846 1.21985,4.144494 3.01199,5.189652 1.79213,-1.042148 3.01198,-2.963794 3.01198,-5.189652 z"
           id="path10027" />
        <path
           style="fill:#0d9bd7;fill-opacity:1;stroke-width:3.01198602"
           inkscape:connector-curvature="0"
           d="m -542.5001,68.489374 h 72.28765 v 12.047943 h -72.28765 z"
           id="path10029" />
        <path
           style="fill:#3ac0f2;fill-opacity:1;stroke-width:3.01198602"
           inkscape:connector-curvature="0"
           d="m -542.5001,68.489374 h 63.2517 v 12.047943 h -63.2517 z"
           id="path10031" />
        <path
           style="fill:#797980;stroke-width:3.01198602"
           inkscape:connector-curvature="0"
           d="m -446.11656,14.273628 h -12.04795 c -1.66262,0 -3.01199,-1.349369 -3.01199,-3.011986 v -22.848929 l -5.14146,-5.141458 4.25895,-4.258948 18.07192,18.0719172 c 0.56625,0.5632429 0.88251,1.3312964 0.88251,2.12947455 V 11.261642 c 0,1.662617 -1.34937,3.011986 -3.01198,3.011986 z m -9.03596,-6.0239714 h 6.02398 V 0.46066093 l -6.02398,-6.02397183 z"
           id="path10049" />
        <path
           style="fill:#797980;stroke-width:3.01198602"
           inkscape:connector-curvature="0"
           d="m -455.15252,53.429444 h -9.03596 v -6.023972 h 9.03596 c 3.32223,0 6.02398,-2.701751 6.02398,-6.023972 V 11.261642 h 6.02396 V 41.3815 c 0,6.644442 -5.4035,12.047944 -12.04794,12.047944 z"
           id="path10051" />
        <path
           style="fill:#797980;stroke-width:3.01198602"
           inkscape:connector-curvature="0"
           d="m -527.44018,11.261642 h 42.1678 v 6.023972 h -42.1678 z"
           id="path10053" />
      </g>
      <g
         id="g2863"
         transform="matrix(0.55333764,0,0,0.55333764,253.01356,40.658042)">
        <path
           style="fill:#ff0000;fill-opacity:1;stroke-width:0.2383429"
           inkscape:connector-curvature="0"
           d="m -714.21632,-57.526221 -10.11203,10.11203 12.64004,12.640044 c 1.39546,1.395461 3.66056,1.39546 5.05602,-2e-6 l 7.58402,-7.584022 c 1.39547,-1.39546 1.39546,-3.66056 0,-5.05602 l -10.11203,-10.11203 c -1.39546,-1.39546 -3.66055,-1.39546 -5.05602,0 z"
           id="path4200" />
        <path
           style="fill:#d40000;fill-opacity:1;stroke-width:0.2383429"
           inkscape:connector-curvature="0"
           d="m -714.21632,-57.526221 -10.11203,10.11203 7.58403,7.58403 12.64004,-12.64004 -5.05602,-5.05602 c -1.39546,-1.39546 -3.66055,-1.39546 -5.05602,0 z"
           id="path4202" />
        <path
           style="fill:#ff0000;fill-opacity:1;stroke-width:0.2383429"
           inkscape:connector-curvature="0"
           d="m -711.68831,-34.774147 c 1.39546,1.395461 1.39546,3.660556 0,5.056016 l -32.8641,32.864106 c -0.39269,0.392683 -0.87132,0.689303 -1.39715,0.864578 l -15.16805,5.056016 c -1.28422,0.428077 -2.70159,0.09269 -3.65887,-0.864578 -0.95727,-0.957273 -1.29265,-2.374643 -0.86458,-3.658871 l 5.05602,-15.168048 c 0.17528,-0.525826 0.4719,-1.004462 0.86458,-1.397146 l 35.39211,-35.392117 z"
           id="path4204" />
        <path
           style="fill:#d40000;fill-opacity:1;stroke-width:0.2383429"
           inkscape:connector-curvature="0"
           d="m -724.32835,-47.414191 -35.39211,35.392117 c -0.39268,0.392684 -0.6893,0.87132 -0.86458,1.397146 l -5.05602,15.168048 c -0.42807,1.284228 -0.0927,2.701598 0.86458,3.658871 l 48.03216,-48.032152 z"
           id="path4206" />
        <g
           id="g4210"
           transform="matrix(-0.16853387,-0.16853387,-0.16853387,0.16853387,-673.43112,-52.807271)"
           style="fill:#ff5555;fill-opacity:1">
          <path
             style="fill:#ff5555;fill-opacity:1"
             inkscape:connector-curvature="0"
             d="m 195,167 c 0,8.28 -6.72,15 -15,15 H 45 v -30 h 135 c 8.28,0 15,6.72 15,15 z"
             id="path4208" />
        </g>
        <path
           style="fill:#d40000;fill-opacity:1;stroke-width:0.2383429"
           inkscape:connector-curvature="0"
           d="m -734.44038,-57.526221 c -1.39546,1.39546 -1.39546,3.66056 0,5.05602 l 15.16805,15.16805 5.05601,-5.05602 -15.16804,-15.16805 c -1.39546,-1.39546 -3.66056,-1.39546 -5.05602,0 z"
           id="path4212" />
        <g
           id="g4220"
           transform="matrix(-0.16853387,-0.16853387,-0.16853387,0.16853387,-673.43112,-52.807271)"
           style="fill:#ff5555;fill-opacity:1">
          <g
             id="g4218"
             style="fill:#ff5555;fill-opacity:1">
            <g
               id="g4216"
               style="fill:#ff5555;fill-opacity:1">
              <path
                 style="fill:#ff5555;fill-opacity:1"
                 inkscape:connector-curvature="0"
                 d="m 195,137 v 120 c 0,8.28 -6.72,15 -15,15 -8.28,0 -15,-6.72 -15,-15 V 137 c 0,-8.28 6.72,-15 15,-15 8.28,0 15,6.72 15,15 z"
                 id="path4214" />
            </g>
          </g>
        </g>
      </g>
    </g>
  </g>
</svg>
