<?xml version="1.0" encoding="UTF-8" standalone="no"?>
<!-- Created with Inkscape (http://www.inkscape.org/) -->

<svg
   xmlns:dc="http://purl.org/dc/elements/1.1/"
   xmlns:cc="http://creativecommons.org/ns#"
   xmlns:rdf="http://www.w3.org/1999/02/22-rdf-syntax-ns#"
   xmlns:svg="http://www.w3.org/2000/svg"
   xmlns="http://www.w3.org/2000/svg"
   xmlns:sodipodi="http://sodipodi.sourceforge.net/DTD/sodipodi-0.dtd"
   xmlns:inkscape="http://www.inkscape.org/namespaces/inkscape"
   width="50"
   height="30"
   viewBox="0 0 13.229166 7.9375"
   version="1.1"
   id="svg2957"
   inkscape:version="0.92.2 5c3e80d, 2017-08-06"
   sodipodi:docname="fuel_print_icon.svg">
  <defs
     id="defs2951" />
  <sodipodi:namedview
     id="base"
     pagecolor="#ffffff"
     bordercolor="#666666"
     borderopacity="1.0"
     inkscape:pageopacity="0.0"
     inkscape:pageshadow="2"
     inkscape:zoom="15.162588"
     inkscape:cx="38.714096"
     inkscape:cy="18.471328"
     inkscape:document-units="px"
     inkscape:current-layer="g3936"
     showgrid="false"
     units="px"
     inkscape:showpageshadow="false"
     inkscape:window-width="1920"
     inkscape:window-height="1035"
     inkscape:window-x="0"
     inkscape:window-y="1"
     inkscape:window-maximized="1" />
  <metadata
     id="metadata2954">
    <rdf:RDF>
      <cc:Work
         rdf:about="">
        <dc:format>image/svg+xml</dc:format>
        <dc:type
           rdf:resource="http://purl.org/dc/dcmitype/StillImage" />
        <dc:title></dc:title>
      </cc:Work>
    </rdf:RDF>
  </metadata>
  <g
     inkscape:label="Livello 1"
     inkscape:groupmode="layer"
     id="layer1"
     transform="translate(0,-289.06248)">
    <g
       id="g3936"
       transform="matrix(0.06444444,0,0,0.06444444,21.814264,291.38061)">
      <g
         id="g12013"
         transform="translate(233.8704,2.3034827)">
        <path
           style="fill:#a1a1aa;stroke-width:3.01198602"
           inkscape:connector-curvature="0"
           d="m -458.16451,-12.834244 v 24.095886 h 12.04795 V -0.78630125 Z"
           id="path10015" />
        <path
           style="fill:#a1a1aa;stroke-width:3.01198602"
           inkscape:connector-curvature="0"
           d="m -476.23642,44.393486 h 12.04794 V 56.44143 h -12.04794"
           id="path10017" />
        <path
           style="fill:#7ed8f6;fill-opacity:1;stroke-width:3.01198602"
           inkscape:connector-curvature="0"
           d="m -536.47614,-33.918144 h 60.23972 V 68.489374 h -60.23972 z"
           id="path10019" />
        <path
           style="fill:#a1a1aa;stroke-width:3.01198602"
           inkscape:connector-curvature="0"
           d="m -524.4282,-21.870202 h 36.14383 V 2.2256847 h -36.14383 z"
           id="path10021" />
        <path
           style="fill:#d7d7e2;stroke-width:3.01198602"
           inkscape:connector-curvature="0"
           d="m -524.4282,-21.870202 h 27.10788 V 2.2256847 h -27.10788 z"
           id="path10023" />
        <path
           style="fill:#a1a1aa;stroke-width:3.01198602"
           inkscape:connector-curvature="0"
           d="m -494.30834,56.44143 c -3.32824,0 -6.02397,-2.695727 -6.02397,-6.023972 V 38.369515 c 0,-3.328245 2.69573,-6.023972 6.02397,-6.023972 3.32825,0 6.02397,2.695727 6.02397,6.023972 v 12.047943 c 0,3.328245 -2.69572,6.023972 -6.02397,6.023972 z"
           id="path10025" />
        <path
           style="fill:#d7d7e2;stroke-width:3.01198602"
           inkscape:connector-curvature="0"
           d="m -494.30834,38.369515 c 0,-2.222846 -1.21985,-4.144493 -3.01198,-5.189651 -1.79214,1.042146 -3.01199,2.963793 -3.01199,5.189651 v 12.047943 c 0,2.222846 1.21985,4.144494 3.01199,5.189652 1.79213,-1.042148 3.01198,-2.963794 3.01198,-5.189652 z"
           id="path10027" />
        <path
           style="fill:#0d9bd7;fill-opacity:1;stroke-width:3.01198602"
           inkscape:connector-curvature="0"
           d="m -542.5001,68.489374 h 72.28765 v 12.047943 h -72.28765 z"
           id="path10029" />
        <path
           style="fill:#3ac0f2;fill-opacity:1;stroke-width:3.01198602"
           inkscape:connector-curvature="0"
           d="m -542.5001,68.489374 h 63.2517 v 12.047943 h -63.2517 z"
           id="path10031" />
        <path
           style="fill:#797980;stroke-width:3.01198602"
           inkscape:connector-curvature="0"
           d="m -446.11656,14.273628 h -12.04795 c -1.66262,0 -3.01199,-1.349369 -3.01199,-3.011986 v -22.848929 l -5.14146,-5.141458 4.25895,-4.258948 18.07192,18.0719172 c 0.56625,0.5632429 0.88251,1.3312964 0.88251,2.12947455 V 11.261642 c 0,1.662617 -1.34937,3.011986 -3.01198,3.011986 z m -9.03596,-6.0239714 h 6.02398 V 0.46066093 l -6.02398,-6.02397183 z"
           id="path10049" />
        <path
           style="fill:#797980;stroke-width:3.01198602"
           inkscape:connector-curvature="0"
           d="m -455.15252,53.429444 h -9.03596 v -6.023972 h 9.03596 c 3.32223,0 6.02398,-2.701751 6.02398,-6.023972 V 11.261642 h 6.02396 V 41.3815 c 0,6.644442 -5.4035,12.047944 -12.04794,12.047944 z"
           id="path10051" />
        <path
           style="fill:#797980;stroke-width:3.01198602"
           inkscape:connector-curvature="0"
           d="m -527.44018,11.261642 h 42.1678 v 6.023972 h -42.1678 z"
           id="path10053" />
      </g>
      <path
         id="path4430"
         d="M -146.54006,-7.488411 V 9.2683715 c 0,1.1372635 -0.923,2.0602595 -2.06026,2.0602595 h -41.2052 c -1.13726,0 -2.06026,-0.922996 -2.06026,-2.0602595 V -7.488411 c 0,-1.1372642 0.923,-2.0602605 2.06026,-2.0602605 h 41.2052 c 1.13726,0 2.06026,0.9229963 2.06026,2.0602605 z"
         inkscape:connector-curvature="0"
         style="fill:#f0f7ff;stroke-width:0.13735068" />
      <path
         id="path4432"
         d="M -146.54006,-7.488411 V 9.2683715 c 0,1.1372635 -0.923,2.0602595 -2.06026,2.0602595 h -19.7785 V -9.5486715 h 19.7785 c 1.13726,0 2.06026,0.9229963 2.06026,2.0602605 z"
         inkscape:connector-curvature="0"
         style="fill:#dfe7f4;stroke-width:0.13735068" />
      <path
         id="path4434"
         d="m -133.21705,13.388892 v 20.602601 c 0,3.407671 -2.7731,6.180781 -6.18077,6.180781 h -57.96199 c -3.40767,0 -6.18078,-2.77311 -6.18078,-6.180781 V 13.388892 c 0,-3.4076706 2.77311,-6.1807814 6.18078,-6.1807814 h 57.96199 c 3.40767,0 6.18077,2.7731108 6.18077,6.1807814 z"
         inkscape:connector-curvature="0"
         style="fill:#ffd092;fill-opacity:1;stroke-width:0.13735068" />
      <path
         id="path4436"
         d="m -133.21705,13.388892 v 20.602601 c 0,3.407671 -2.7731,6.180781 -6.18077,6.180781 h -28.981 V 7.2081106 h 28.981 c 3.40767,0 6.18077,2.7731108 6.18077,6.1807814 z"
         inkscape:connector-curvature="0"
         style="fill:#ff9100;fill-opacity:1;stroke-width:0.13735068" />
      <circle
         style="fill:#61729b;fill-opacity:1;stroke-width:0.13735068"
         cx="-147.77621"
         cy="17.509413"
         r="2.0602603"
         id="circle4438" />
      <path
         id="path4442"
         d="m -145.71595,25.750453 v 20.602602 l -10.98806,3.433767 -3.43376,10.988054 h -28.84365 c -1.13726,0 -2.06026,-0.922997 -2.06026,-2.06026 V 25.750453 Z"
         inkscape:connector-curvature="0"
         style="fill:#f0f7ff;stroke-width:0.13735068" />
      <path
         id="path4444"
         d="m -145.71595,25.750453 v 20.602602 l -10.98806,3.433767 -3.43376,10.988054 h -8.24105 V 25.750453 Z"
         inkscape:connector-curvature="0"
         style="fill:#dfe7f4;stroke-width:0.13735068" />
      <path
         style="fill:#d47900;stroke-width:0.13735068;fill-opacity:1"
         inkscape:connector-curvature="0"
         d="m -141.59543,25.750453 c 0,1.137264 -0.923,2.06026 -2.06026,2.06026 h -49.44625 c -1.13726,0 -2.06026,-0.922996 -2.06026,-2.06026 0,-1.137264 0.923,-2.060261 2.06026,-2.060261 h 49.44625 c 1.13726,0 2.06026,0.922997 2.06026,2.060261 z"
         id="path4448" />
      <path
         id="path4452"
         d="m -141.59544,25.750453 c 0,1.137264 -0.92299,2.06026 -2.06026,2.06026 h -24.72312 v -4.120521 h 24.72312 c 1.13727,0 2.06026,0.922997 2.06026,2.060261 z"
         inkscape:connector-curvature="0"
         style="fill:#a86000;stroke-width:0.13735068;fill-opacity:1" />
      <path
         inkscape:connector-curvature="0"
         d="m -182.15726,36.507157 c 0.0114,0.421615 -0.19372,0.63812 -0.60394,0.63812 h -0.96858 c -0.39882,0 -0.59254,-0.18232 -0.59254,-0.54696 v -0.75207 h 0.99137 l 0.46719,-1.02555 h -1.45856 v -0.9116 h 1.86878 l 0.4672,-1.02555 h -2.33598 v -0.97997 c 0,-0.376035 0.19372,-0.56975 0.59254,-0.56975 h 2.43854 l 0.72928,-1.5953 h -3.70338 c -1.01416,0 -1.65228,0.763465 -1.65228,1.811805 v 1.333215 h -0.74067 v 1.02555 h 0.74067 v 0.9116 h -0.74067 v 1.02555 h 0.74067 v 1.082525 c 0,1.082525 0.61534,1.811805 1.67507,1.811805 h 1.99413 c 0.53556,0 0.95718,-0.170925 1.25344,-0.52417 0.28488,-0.330455 0.43302,-0.763465 0.43302,-1.310425 z"
         style="font-style:normal;font-variant:normal;font-weight:normal;font-stretch:normal;font-size:medium;line-height:1.25;font-family:Mandatory;-inkscape-font-specification:Mandatory;letter-spacing:0px;word-spacing:0px;fill:#61729b;fill-opacity:1;stroke:none;stroke-width:0.42731249"
         id="path4484" />
      <path
         sodipodi:nodetypes="sssssss"
         id="path4488"
         d="m -178.27609,34.239552 c 0,-1.123793 0.91108,-2.034872 2.03488,-2.034872 h 23.92423 c 1.12379,0 2.03487,0.911079 2.03487,2.034872 0,1.123792 -0.91108,2.034871 -2.03487,2.034871 h -23.92423 c -1.1238,0 -2.03488,-0.911079 -2.03488,-2.034871 z"
         inkscape:connector-curvature="0"
         style="fill:#61729b;stroke-width:0.1356581" />
      <path
         id="path4633"
         style="font-style:normal;font-variant:normal;font-weight:normal;font-stretch:normal;font-size:medium;line-height:1.25;font-family:Mandatory;-inkscape-font-specification:Mandatory;letter-spacing:0px;word-spacing:0px;fill:#61729b;fill-opacity:1;stroke:none;stroke-width:0.42731249"
         d="m -182.15726,46.720362 c 0.0114,0.421615 -0.19372,0.63812 -0.60394,0.63812 h -0.96858 c -0.39882,0 -0.59254,-0.18232 -0.59254,-0.54696 v -0.75207 h 0.99137 l 0.46719,-1.02555 h -1.45856 v -0.9116 h 1.86878 l 0.4672,-1.02555 h -2.33598 v -0.97997 c 0,-0.376035 0.19372,-0.56975 0.59254,-0.56975 h 2.43854 l 0.72928,-1.5953 h -3.70338 c -1.01416,0 -1.65228,0.763465 -1.65228,1.811805 v 1.333215 h -0.74067 v 1.02555 h 0.74067 v 0.9116 h -0.74067 v 1.02555 h 0.74067 v 1.082525 c 0,1.082525 0.61534,1.811805 1.67507,1.811805 h 1.99413 c 0.53556,0 0.95718,-0.170925 1.25344,-0.52417 0.28488,-0.330455 0.43302,-0.763465 0.43302,-1.310425 z"
         inkscape:connector-curvature="0" />
      <path
         style="fill:#61729b;stroke-width:0.1356581"
         inkscape:connector-curvature="0"
         d="m -178.27609,44.452757 c 0,-1.123793 0.91108,-2.034872 2.03488,-2.034872 h 23.92423 c 1.12379,0 2.03487,0.911079 2.03487,2.034872 0,1.123792 -0.91108,2.034871 -2.03487,2.034871 h -23.92423 c -1.1238,0 -2.03488,-0.911079 -2.03488,-2.034871 z"
         id="path4635"
         sodipodi:nodetypes="sssssss" />
      <path
         sodipodi:nodetypes="csssccccccccssccssccccccccsssccc"
         inkscape:connector-curvature="0"
         d="m -182.15726,56.77656 c 0.0114,0.421615 -0.19372,0.63812 -0.60394,0.63812 h -0.96858 c -0.39882,0 -0.59254,-0.18232 -0.59254,-0.54696 v -0.75207 h 0.99137 l 0.46719,-1.02555 h -1.45856 v -0.9116 h 1.86878 l 0.4672,-1.02555 h -2.33598 v -0.97997 c 0,-0.376035 0.19372,-0.56975 0.59254,-0.56975 h 2.43854 l 0.72928,-1.5953 h -3.70338 c -1.01416,0 -1.65228,0.763465 -1.65228,1.811805 v 1.333215 h -0.74067 v 1.02555 h 0.74067 v 0.9116 h -0.74067 v 1.02555 h 0.74067 v 1.082525 c 0,1.082525 0.61534,1.811805 1.67507,1.811805 h 1.99413 c 0.53556,0 0.95718,-0.170925 1.25344,-0.52417 0.28488,-0.330455 0.43302,-0.763465 0.43302,-1.310425 z"
         style="font-style:normal;font-variant:normal;font-weight:normal;font-stretch:normal;font-size:medium;line-height:1.25;font-family:Mandatory;-inkscape-font-specification:Mandatory;letter-spacing:0px;word-spacing:0px;fill:#61729b;fill-opacity:1;stroke:none;stroke-width:0.42731249"
         id="path4637" />
      <path
         sodipodi:nodetypes="sssssss"
         id="path4639"
         d="m -178.27609,54.508955 c 0,-1.123793 0.91108,-2.034872 2.03488,-2.034872 h 17.44357 c 1.12379,0 2.03486,0.911079 2.03486,2.034872 0,1.123792 -0.91107,2.034871 -2.03486,2.034871 h -17.44357 c -1.1238,0 -2.03488,-0.911079 -2.03488,-2.034871 z"
         inkscape:connector-curvature="0"
         style="fill:#61729b;stroke-width:0.1356581" />
      <path
         id="path4446"
         d="m -160.13777,60.774876 c 0.54651,0 1.07051,-0.217151 1.45674,-0.603519 l 12.36156,-12.361561 c 0.3865,-0.386367 0.60352,-0.91036 0.60352,-1.456741 h -12.36156 c -1.13782,0 -2.06026,0.922447 -2.06026,2.06026 z"
         inkscape:connector-curvature="0"
         style="fill:#c7cfe1;stroke-width:0.13735068" />
    </g>
  </g>
</svg>
