<?xml version="1.0" encoding="UTF-8" standalone="no"?>
<!-- Created with Inkscape (http://www.inkscape.org/) -->

<svg
   xmlns:dc="http://purl.org/dc/elements/1.1/"
   xmlns:cc="http://creativecommons.org/ns#"
   xmlns:rdf="http://www.w3.org/1999/02/22-rdf-syntax-ns#"
   xmlns:svg="http://www.w3.org/2000/svg"
   xmlns="http://www.w3.org/2000/svg"
   xmlns:sodipodi="http://sodipodi.sourceforge.net/DTD/sodipodi-0.dtd"
   xmlns:inkscape="http://www.inkscape.org/namespaces/inkscape"
   width="20"
   height="20"
   viewBox="0 0 5.2916666 5.2916668"
   version="1.1"
   id="svg8"
   inkscape:version="0.92.2 5c3e80d, 2017-08-06"
   sodipodi:docname="icon_fuel.svg">
  <defs
     id="defs2" />
  <sodipodi:namedview
     id="base"
     pagecolor="#ffffff"
     bordercolor="#666666"
     borderopacity="1.0"
     inkscape:pageopacity="0.0"
     inkscape:pageshadow="2"
     inkscape:zoom="13.40625"
     inkscape:cx="4.7615951"
     inkscape:cy="15.024483"
     inkscape:document-units="px"
     inkscape:current-layer="layer1"
     showgrid="false"
     units="px"
     inkscape:showpageshadow="false"
     inkscape:window-width="1920"
     inkscape:window-height="1035"
     inkscape:window-x="0"
     inkscape:window-y="1"
     inkscape:window-maximized="1" />
  <metadata
     id="metadata5">
    <rdf:RDF>
      <cc:Work
         rdf:about="">
        <dc:format>image/svg+xml</dc:format>
        <dc:type
           rdf:resource="http://purl.org/dc/dcmitype/StillImage" />
        <dc:title></dc:title>
      </cc:Work>
    </rdf:RDF>
  </metadata>
  <g
     inkscape:label="Livello 1"
     inkscape:groupmode="layer"
     id="layer1"
     transform="translate(0,-291.70832)">
    <path
       style="fill:#6c5d53;fill-opacity:1;stroke-width:0.01550293"
       d="m 30.366403,282.05701 c -0.206189,0 -0.37207,0.16588 -0.37207,0.37207 v 7.19336 c 0,0.20617 0.165881,0.37207 0.37207,0.37207 h 5.208984 c 0.206188,0 0.372071,-0.1659 0.372071,-0.37207 v -5.08496 h -2.108399 c -0.204638,0 -0.37207,-0.16743 -0.37207,-0.37207 v -2.1084 z m 3.59668,0 v 1.98438 h 1.984375 v -0.0946 c 0,-0.0976 -0.03875,-0.19225 -0.108521,-0.262 L 34.3212,282.1655 c -0.06977,-0.0698 -0.164331,-0.10852 -0.26355,-0.10852 z m -2.852539,0.99219 h 1.240234 c 0.06853,0 0.124023,0.0555 0.124023,0.12402 v 0.24805 c 0,0.0685 -0.0555,0.12402 -0.124023,0.12402 h -1.240234 c -0.06853,0 -0.124024,-0.0555 -0.124024,-0.12402 v -0.24805 c 0,-0.0685 0.0555,-0.12402 0.124024,-0.12402 z m 0,0.99219 h 1.240234 c 0.06853,0 0.124023,0.0555 0.124023,0.12402 v 0.24805 c 0,0.0685 -0.0555,0.12402 -0.124023,0.12402 h -1.240234 c -0.06853,0 -0.124024,-0.0555 -0.124024,-0.12402 v -0.24805 c 0,-0.0685 0.0555,-0.12402 0.124024,-0.12402 z m 2.410705,1.5875 c 0.152945,0 0.297777,0.0235 0.435116,0.0703 0.137338,0.0453 0.267898,0.11308 0.39119,0.2036 v 0.69557 c -0.115489,-0.12017 -0.237377,-0.20993 -0.365352,-0.26924 -0.127975,-0.0609 -0.262099,-0.0915 -0.40256,-0.0915 -0.21069,0 -0.391734,0.0632 -0.543119,0.18965 -0.149824,0.12485 -0.255394,0.29876 -0.31626,0.52193 h 1.261939 l -0.09147,0.27647 -1.221631,0.002 c -0.0016,0.0187 -0.0031,0.0407 -0.0046,0.0656 v 0.10542 0.0961 c 0.0016,0.0203 0.0031,0.0386 0.0046,0.0558 l 1.116211,0.003 -0.0956,0.2713 H 32.70166 c 0.05306,0.2341 0.153527,0.41719 0.30179,0.54829 0.149824,0.13109 0.330869,0.19637 0.543119,0.19637 0.146703,0 0.291028,-0.0291 0.433049,-0.0868 0.143581,-0.0593 0.272611,-0.14243 0.38654,-0.25011 l -0.02326,0.6997 c -0.124854,0.0812 -0.258472,0.14286 -0.400492,0.185 -0.142021,0.0437 -0.283794,0.0656 -0.425814,0.0656 -0.405774,0 -0.745426,-0.12036 -1.018543,-0.36071 -0.273117,-0.24034 -0.446513,-0.57285 -0.519865,-0.99735 h -0.402559 l 0.06304,-0.2713 0.306958,-0.003 c -0.0016,-0.0172 -0.0031,-0.0355 -0.0046,-0.0558 v -0.0961 -0.10542 c 0.0016,-0.025 0.0021,-0.0474 0.0021,-0.0677 H 31.5757 l 0.06304,-0.27647 h 0.344166 c 0.07959,-0.40733 0.257073,-0.72862 0.53175,-0.96428 0.274677,-0.23722 0.610248,-0.35605 1.006657,-0.35605 z"
       id="path890"
       inkscape:connector-curvature="0" />
    <path
       id="path1035"
       d="m 4.4704705,292.85801 -0.6681542,-0.66816 c -0.051143,-0.0511 -0.1352803,-0.0511 -0.1864228,0 l -0.093211,0.0932 c -0.051142,0.0511 -0.051142,0.13528 0,0.18643 l 0.3109802,0.31098 v 0.51225 c 0,0.2318 0.1724,0.42317 0.395943,0.45533 v 1.32641 c 0,0.10889 -0.089087,0.19798 -0.1979715,0.19798 -0.1088845,0 -0.1979715,-0.0891 -0.1979715,-0.19798 v -0.26396 c 0,-0.40089 -0.3250034,-0.72589 -0.7258958,-0.72589 h -0.065991 v -1.58378 c 0,-0.29118 -0.2367412,-0.52792 -0.5279241,-0.52792 h -1.31981 c -0.29118303,0 -0.52792378,0.23674 -0.52792378,0.52792 v 4.23458 H 3.041776 v -2.25486 h 0.065991 c 0.1822987,0 0.3299526,0.14765 0.3299526,0.32995 v 0.22932 c 0,0.31098 0.2227182,0.59391 0.5320485,0.62608 0.354699,0.0355 0.6557806,-0.24333 0.6557806,-0.59144 v -1.84279 c 0,-0.14022 -0.056092,-0.27468 -0.1550779,-0.37366 z m -1.9566186,0.69867 H 1.1940416 v -1.05585 h 1.3198103 z"
       inkscape:connector-curvature="0"
       style="fill:#6c5d53;fill-opacity:1;stroke-width:0.00824881"
       sodipodi:nodetypes="ccccccscssssscsssscccssscsscccccc" />
  </g>
</svg>
