<?xml version="1.0" encoding="UTF-8" standalone="no"?>
<!-- Created with Inkscape (http://www.inkscape.org/) -->

<svg
   xmlns:dc="http://purl.org/dc/elements/1.1/"
   xmlns:cc="http://creativecommons.org/ns#"
   xmlns:rdf="http://www.w3.org/1999/02/22-rdf-syntax-ns#"
   xmlns:svg="http://www.w3.org/2000/svg"
   xmlns="http://www.w3.org/2000/svg"
   xmlns:sodipodi="http://sodipodi.sourceforge.net/DTD/sodipodi-0.dtd"
   xmlns:inkscape="http://www.inkscape.org/namespaces/inkscape"
   width="20"
   height="20"
   viewBox="0 0 5.2916666 5.2916668"
   version="1.1"
   id="svg8"
   inkscape:version="0.92.2 5c3e80d, 2017-08-06"
   sodipodi:docname="icon_reimbursment.svg">
  <defs
     id="defs2" />
  <sodipodi:namedview
     id="base"
     pagecolor="#ffffff"
     bordercolor="#666666"
     borderopacity="1.0"
     inkscape:pageopacity="0.0"
     inkscape:pageshadow="2"
     inkscape:zoom="11.932119"
     inkscape:cx="-10.523567"
     inkscape:cy="22.526806"
     inkscape:document-units="px"
     inkscape:current-layer="layer1"
     showgrid="false"
     units="px"
     inkscape:showpageshadow="false"
     inkscape:window-width="1920"
     inkscape:window-height="1035"
     inkscape:window-x="0"
     inkscape:window-y="1"
     inkscape:window-maximized="1" />
  <metadata
     id="metadata5">
    <rdf:RDF>
      <cc:Work
         rdf:about="">
        <dc:format>image/svg+xml</dc:format>
        <dc:type
           rdf:resource="http://purl.org/dc/dcmitype/StillImage" />
        <dc:title></dc:title>
      </cc:Work>
    </rdf:RDF>
  </metadata>
  <g
     inkscape:label="Livello 1"
     inkscape:groupmode="layer"
     id="layer1"
     transform="translate(0,-291.70832)">
    <path
       style="fill:#6c5d53;fill-opacity:1;stroke-width:0.00930172"
       d="m 1.0831439,291.97294 c -0.1237131,0 -0.2232413,0.0995 -0.2232413,0.22324 v 4.316 c 0,0.1237 0.099528,0.22324 0.2232413,0.22324 h 3.1253788 c 0.1237123,0 0.2232414,-0.0995 0.2232414,-0.22324 v -3.05097 H 3.1667298 c -0.1227823,0 -0.2232413,-0.10045 -0.2232413,-0.22324 v -1.26503 z m 2.1579997,0 v 1.19062 h 1.1906205 v -0.0568 c 0,-0.0586 -0.023251,-0.11535 -0.065112,-0.1572 l -0.9106387,-0.91157 c -0.041861,-0.0419 -0.098598,-0.0651 -0.1581293,-0.0651 z m -1.711517,0.59531 h 0.7441378 c 0.041115,0 0.074414,0.0333 0.074414,0.0744 v 0.14883 c 0,0.0411 -0.033299,0.0744 -0.074414,0.0744 H 1.5296266 c -0.041115,0 -0.074414,-0.0333 -0.074414,-0.0744 v -0.14883 c 0,-0.0411 0.033299,-0.0744 0.074414,-0.0744 z m 0,0.59531 h 0.7441378 c 0.041115,0 0.074414,0.0333 0.074414,0.0744 v 0.14883 c 0,0.0411 -0.033299,0.0744 -0.074414,0.0744 H 1.5296266 c -0.041115,0 -0.074414,-0.0333 -0.074414,-0.0744 v -0.14883 c 0,-0.0411 0.033299,-0.0744 0.074414,-0.0744 z m 1.4464179,0.9525 c 0.091767,0 0.1786654,0.0141 0.2610683,0.0422 0.082403,0.0272 0.1607382,0.0679 0.2347135,0.12216 v 0.41734 c -0.069293,-0.0721 -0.142426,-0.12596 -0.2192105,-0.16155 -0.076785,-0.0365 -0.1572591,-0.0549 -0.2415349,-0.0549 -0.1264135,0 -0.2350398,0.0379 -0.3258702,0.11379 -0.089894,0.0749 -0.1532358,0.17926 -0.1897553,0.31316 h 0.7571604 l -0.054881,0.16588 -0.7329757,10e-4 c -9.36e-4,0.0112 -0.00185,0.0244 -0.00279,0.0394 v 0.0632 0.0577 c 9.36e-4,0.0122 0.00185,0.0232 0.00279,0.0335 l 0.669724,0.002 -0.05736,0.16278 H 2.4842935 c 0.031838,0.14046 0.092116,0.25032 0.1810734,0.32898 0.089894,0.0786 0.1985205,0.11782 0.3258703,0.11782 0.088021,0 0.1746161,-0.0175 0.2598282,-0.0521 0.086149,-0.0356 0.163566,-0.0855 0.231923,-0.15007 l -0.013953,0.41982 c -0.074912,0.0487 -0.1550825,0.0857 -0.2402945,0.111 -0.085212,0.0262 -0.1702753,0.0394 -0.2554873,0.0394 -0.2434632,0 -0.4472537,-0.0722 -0.6111231,-0.21643 -0.1638696,-0.1442 -0.2679073,-0.3437 -0.3119179,-0.5984 H 1.8086782 l 0.037827,-0.16278 0.184174,-0.002 c -9.36e-4,-0.0103 -0.00185,-0.0213 -0.00279,-0.0335 v -0.0577 -0.0632 c 9.359e-4,-0.015 0.00124,-0.0284 0.00124,-0.0406 h -0.220451 l 0.037827,-0.16589 h 0.2064985 c 0.047756,-0.24439 0.1542432,-0.43717 0.3190491,-0.57856 0.1648057,-0.14233 0.3661471,-0.21363 0.6039918,-0.21363 z"
       id="path890"
       inkscape:connector-curvature="0" />
  </g>
</svg>
