<?xml version="1.0" encoding="UTF-8" standalone="no"?>
<!-- Created with Inkscape (http://www.inkscape.org/) -->

<svg
   xmlns:dc="http://purl.org/dc/elements/1.1/"
   xmlns:cc="http://creativecommons.org/ns#"
   xmlns:rdf="http://www.w3.org/1999/02/22-rdf-syntax-ns#"
   xmlns:svg="http://www.w3.org/2000/svg"
   xmlns="http://www.w3.org/2000/svg"
   xmlns:sodipodi="http://sodipodi.sourceforge.net/DTD/sodipodi-0.dtd"
   xmlns:inkscape="http://www.inkscape.org/namespaces/inkscape"
   width="128"
   height="96"
   viewBox="0 0 33.866666 25.400001"
   version="1.1"
   id="svg8"
   inkscape:version="0.92.2 5c3e80d, 2017-08-06"
   sodipodi:docname="login_logo.svg">
  <defs
     id="defs2" />
  <sodipodi:namedview
     id="base"
     pagecolor="#ffffff"
     bordercolor="#666666"
     borderopacity="1.0"
     inkscape:pageopacity="0.0"
     inkscape:pageshadow="2"
     inkscape:zoom="4.46875"
     inkscape:cx="-69.587901"
     inkscape:cy="36.515654"
     inkscape:document-units="px"
     inkscape:current-layer="layer1"
     showgrid="false"
     units="px"
     inkscape:showpageshadow="false"
     inkscape:window-width="1920"
     inkscape:window-height="1035"
     inkscape:window-x="0"
     inkscape:window-y="1"
     inkscape:window-maximized="1" />
  <metadata
     id="metadata5">
    <rdf:RDF>
      <cc:Work
         rdf:about="">
        <dc:format>image/svg+xml</dc:format>
        <dc:type
           rdf:resource="http://purl.org/dc/dcmitype/StillImage" />
        <dc:title />
      </cc:Work>
    </rdf:RDF>
  </metadata>
  <g
     inkscape:label="Livello 1"
     inkscape:groupmode="layer"
     id="layer1"
     transform="translate(0,-271.59998)">
    <g
       id="g888"
       transform="matrix(0.94102556,0,0,0.94102556,0.99838873,17.967413)"
       style="fill:#27467e;fill-opacity:1">
      <g
         transform="matrix(1.4742554,0,0,1.4742554,-8.0308484,-132.83708)"
         id="g860"
         style="fill:#27467e;fill-opacity:1">
        <path
           style="color:#000000;font-style:normal;font-variant:normal;font-weight:normal;font-stretch:normal;font-size:medium;line-height:normal;font-family:sans-serif;font-variant-ligatures:normal;font-variant-position:normal;font-variant-caps:normal;font-variant-numeric:normal;font-variant-alternates:normal;font-feature-settings:normal;text-indent:0;text-align:start;text-decoration:none;text-decoration-line:none;text-decoration-style:solid;text-decoration-color:#000000;letter-spacing:normal;word-spacing:normal;text-transform:none;writing-mode:lr-tb;direction:ltr;text-orientation:mixed;dominant-baseline:auto;baseline-shift:baseline;text-anchor:start;white-space:normal;shape-padding:0;clip-rule:nonzero;display:inline;overflow:visible;visibility:visible;opacity:1;isolation:auto;mix-blend-mode:normal;color-interpolation:sRGB;color-interpolation-filters:linearRGB;solid-color:#000000;solid-opacity:1;vector-effect:none;fill:#27467e;fill-opacity:1;fill-rule:nonzero;stroke:none;stroke-width:0.44804287;stroke-linecap:round;stroke-linejoin:round;stroke-miterlimit:4;stroke-dasharray:none;stroke-dashoffset:0;stroke-opacity:1;color-rendering:auto;image-rendering:auto;shape-rendering:auto;text-rendering:auto;enable-background:accumulate"
           d="m 16.933594,273.22908 c -3.78952,0 -6.866169,3.0783 -6.866169,6.86782 0,3.78952 3.076649,6.86617 6.866169,6.86617 3.789519,0 6.866169,-3.07665 6.866169,-6.86617 0,-3.78952 -3.07665,-6.86782 -6.866169,-6.86782 z m 0,0.44815 c 3.547378,0 6.418016,2.87229 6.418015,6.41967 1e-6,3.54738 -2.870637,6.41802 -6.418015,6.41802 -3.547379,0 -6.418016,-2.87064 -6.418016,-6.41802 0,-3.54738 2.870637,-6.41967 6.418016,-6.41967 z"
           id="path834"
           inkscape:connector-curvature="0" />
        <path
           style="opacity:1;fill:#27467e;fill-opacity:1;stroke:none;stroke-width:0.30709183;stroke-linecap:round;stroke-linejoin:round;stroke-miterlimit:4;stroke-dasharray:none;stroke-dashoffset:0;stroke-opacity:1"
           d="m 18.194369,275.72431 -1.260995,3.85168 -1.260558,-3.85081 a 4.5526899,4.5526899 0 0 0 -3.110923,3.11005 l 3.851243,1.26099 -3.850806,1.26056 a 4.5526899,4.5526899 0 0 0 3.110048,3.11092 l 1.260996,-3.85124 1.260558,3.84993 a 4.5526899,4.5526899 0 0 0 3.110485,-3.10961 l -3.850806,-1.26056 3.852118,-1.26143 a 4.5526899,4.5526899 0 0 0 -3.11136,-3.11048 z"
           id="circle836"
           inkscape:connector-curvature="0" />
      </g>
      <g
         transform="matrix(0.98082694,0,0,0.98082694,0.32466881,5.6766652)"
         id="text856"
         style="font-style:normal;font-variant:normal;font-weight:normal;font-stretch:normal;font-size:6.35000038px;line-height:1.25;font-family:'Futura Md BT';-inkscape-font-specification:'Futura Md BT';letter-spacing:0px;word-spacing:0px;fill:#27467e;fill-opacity:1;stroke:none;stroke-width:0.26458335"
         aria-label="TRANTOR">
        <path
           inkscape:connector-curvature="0"
           id="path862"
           style="font-style:normal;font-variant:normal;font-weight:normal;font-stretch:normal;font-family:'Futura BdCn BT';-inkscape-font-specification:'Futura BdCn BT';fill:#27467e;fill-opacity:1;stroke-width:0.26458335"
           d="m 7.3047237,296.01929 v -3.6897 H 6.613293 v -0.83716 h 2.2913331 v 0.83716 H 8.2131954 v 3.6897 z" />
        <path
           inkscape:connector-curvature="0"
           id="path864"
           style="font-style:normal;font-variant:normal;font-weight:normal;font-stretch:normal;font-family:'Futura BdCn BT';-inkscape-font-specification:'Futura BdCn BT';fill:#27467e;fill-opacity:1;stroke-width:0.26458335"
           d="m 10.222375,293.4551 q 0.0155,0 0.04961,0.003 0.03721,0.003 0.05271,0.003 0.294556,0 0.443384,-0.16433 0.148828,-0.16433 0.148828,-0.48369 0,-0.32556 -0.136425,-0.47439 -0.136426,-0.14883 -0.437183,-0.14883 -0.04651,0 -0.07131,0.003 -0.02481,0 -0.04651,0.003 z m -0.8743652,2.56419 v -4.52686 h 0.9394772 q 0.775147,0 1.122413,0.30386 0.350366,0.30386 0.350366,0.97048 0,0.48369 -0.179834,0.77825 -0.176734,0.29145 -0.536402,0.40928 l 0.868165,2.06499 h -0.95188 l -0.73794,-1.87276 v 1.87276 z" />
        <path
           inkscape:connector-curvature="0"
           id="path866"
           style="font-style:normal;font-variant:normal;font-weight:normal;font-stretch:normal;font-family:'Futura BdCn BT';-inkscape-font-specification:'Futura BdCn BT';fill:#27467e;fill-opacity:1;stroke-width:0.26458335"
           d="m 13.087317,294.5217 h 0.601513 q -0.09302,-0.47439 -0.167431,-0.99218 -0.07441,-0.5209 -0.130225,-1.09761 -0.06821,0.5085 -0.145727,1.03249 -0.07441,0.5209 -0.15813,1.0573 z m -1.206128,1.49759 1.054199,-4.52686 h 0.945679 l 1.00459,4.52686 h -0.902271 l -0.151929,-0.79375 h -0.908471 l -0.139527,0.79375 z" />
        <path
           inkscape:connector-curvature="0"
           id="path868"
           style="font-style:normal;font-variant:normal;font-weight:normal;font-stretch:normal;font-family:'Futura BdCn BT';-inkscape-font-specification:'Futura BdCn BT';fill:#27467e;fill-opacity:1;stroke-width:0.26458335"
           d="m 15.214319,296.01929 v -4.52686 h 0.914673 l 0.914673,2.43706 q 0.04031,0.11782 0.111621,0.36277 0.07441,0.24185 0.167431,0.57051 -0.07131,-0.48059 -0.10542,-0.88057 -0.03411,-0.40307 -0.03411,-0.75034 v -1.73943 h 0.837158 v 4.52686 h -0.837158 l -0.992188,-2.53318 q -0.0248,-0.0558 -0.130224,-0.46199 -0.04961,-0.18603 -0.07752,-0.29145 0.03101,0.26355 0.04651,0.59531 0.0155,0.32866 0.0155,0.78755 v 1.90376 z" />
        <path
           inkscape:connector-curvature="0"
           id="path870"
           style="font-style:normal;font-variant:normal;font-weight:normal;font-stretch:normal;font-family:'Futura BdCn BT';-inkscape-font-specification:'Futura BdCn BT';fill:#27467e;fill-opacity:1;stroke-width:0.26458335"
           d="m 19.161365,296.01929 v -3.6897 h -0.69143 v -0.83716 h 2.291333 v 0.83716 h -0.691431 v 3.6897 z" />
        <path
           inkscape:connector-curvature="0"
           id="path872"
           style="font-style:normal;font-variant:normal;font-weight:normal;font-stretch:normal;font-family:'Futura BdCn BT';-inkscape-font-specification:'Futura BdCn BT';fill:#27467e;fill-opacity:1;stroke-width:0.26458335"
           d="m 22.534803,295.21313 q 0.347265,0 0.517798,-0.36276 0.173632,-0.36277 0.173632,-1.09141 0,-0.73484 -0.173632,-1.09761 -0.170533,-0.36277 -0.517798,-0.36277 -0.347266,0 -0.517798,0.36277 -0.170532,0.35967 -0.170532,1.09761 0,0.73484 0.170532,1.09451 0.170532,0.35966 0.517798,0.35966 z m 1.593701,-1.39216 q 0,1.0356 -0.434082,1.64641 -0.434082,0.60772 -1.159619,0.60772 -0.750342,0 -1.168921,-0.61082 -0.418579,-0.61391 -0.418579,-1.70532 0,-1.08831 0.421679,-1.70532 0.424781,-0.62012 1.165821,-0.62012 0.74414,0 1.168921,0.63252 0.42478,0.63252 0.42478,1.75493 z" />
        <path
           inkscape:connector-curvature="0"
           id="path874"
           style="font-style:normal;font-variant:normal;font-weight:normal;font-stretch:normal;font-family:'Futura BdCn BT';-inkscape-font-specification:'Futura BdCn BT';fill:#27467e;fill-opacity:1;stroke-width:0.26458335"
           d="m 25.564075,293.4551 q 0.0155,0 0.04961,0.003 0.03721,0.003 0.05271,0.003 0.294555,0 0.443384,-0.16433 0.148828,-0.16433 0.148828,-0.48369 0,-0.32556 -0.136426,-0.47439 -0.136426,-0.14883 -0.437183,-0.14883 -0.04651,0 -0.07131,0.003 -0.02481,0 -0.04651,0.003 z m -0.874365,2.56419 v -4.52686 h 0.939478 q 0.775146,0 1.122412,0.30386 0.350366,0.30386 0.350366,0.97048 0,0.48369 -0.179834,0.77825 -0.176733,0.29145 -0.536401,0.40928 l 0.868164,2.06499 h -0.95188 l -0.73794,-1.87276 v 1.87276 z" />
      </g>
    </g>
  </g>
</svg>
