<?xml version="1.0" encoding="UTF-8" standalone="no"?>
<!-- Created with Inkscape (http://www.inkscape.org/) -->

<svg
   xmlns:dc="http://purl.org/dc/elements/1.1/"
   xmlns:cc="http://creativecommons.org/ns#"
   xmlns:rdf="http://www.w3.org/1999/02/22-rdf-syntax-ns#"
   xmlns:svg="http://www.w3.org/2000/svg"
   xmlns="http://www.w3.org/2000/svg"
   xmlns:sodipodi="http://sodipodi.sourceforge.net/DTD/sodipodi-0.dtd"
   xmlns:inkscape="http://www.inkscape.org/namespaces/inkscape"
   width="240"
   height="192"
   viewBox="0 0 63.499996 50.800002"
   version="1.1"
   id="svg8"
   inkscape:version="0.92.3 (2405546, 2018-03-11)"
   sodipodi:docname="main_logo.svg">
  <defs
     id="defs2" />
  <sodipodi:namedview
     id="base"
     pagecolor="#ffffff"
     bordercolor="#666666"
     borderopacity="1.0"
     inkscape:pageopacity="0.0"
     inkscape:pageshadow="2"
     inkscape:zoom="2.3699126"
     inkscape:cx="66.983204"
     inkscape:cy="110.2033"
     inkscape:document-units="px"
     inkscape:current-layer="g1523"
     showgrid="false"
     units="px"
     inkscape:showpageshadow="false"
     inkscape:window-width="1628"
     inkscape:window-height="833"
     inkscape:window-x="41"
     inkscape:window-y="73"
     inkscape:window-maximized="0" />
  <metadata
     id="metadata5">
    <rdf:RDF>
      <cc:Work
         rdf:about="">
        <dc:format>image/svg+xml</dc:format>
        <dc:type
           rdf:resource="http://purl.org/dc/dcmitype/StillImage" />
        <dc:title />
      </cc:Work>
    </rdf:RDF>
  </metadata>
  <g
     inkscape:label="Livello 1"
     inkscape:groupmode="layer"
     id="layer1"
     transform="translate(0,-246.19997)">
    <g
       id="g1523"
       transform="matrix(1.2513439,0,0,1.2523715,-32.149355,-60.076402)">
      <g
         transform="matrix(1.2295559,0,0,1.2295559,30.243783,-85.962663)"
         id="g888"
         style="fill:#194d37;fill-opacity:1">
        <g
           id="g860"
           transform="matrix(1.4742554,0,0,1.4742554,-8.0308484,-132.83708)"
           style="fill:#194d37;fill-opacity:1">
          <path
             inkscape:connector-curvature="0"
             id="path834"
             d="m 16.933594,273.22908 c -3.78952,0 -6.866169,3.0783 -6.866169,6.86782 0,3.78952 3.076649,6.86617 6.866169,6.86617 3.789519,0 6.866169,-3.07665 6.866169,-6.86617 0,-3.78952 -3.07665,-6.86782 -6.866169,-6.86782 z m 0,0.44815 c 3.547378,0 6.418016,2.87229 6.418015,6.41967 1e-6,3.54738 -2.870637,6.41802 -6.418015,6.41802 -3.547379,0 -6.418016,-2.87064 -6.418016,-6.41802 0,-3.54738 2.870637,-6.41967 6.418016,-6.41967 z"
             style="color:#000000;font-style:normal;font-variant:normal;font-weight:normal;font-stretch:normal;font-size:medium;line-height:normal;font-family:sans-serif;font-variant-ligatures:normal;font-variant-position:normal;font-variant-caps:normal;font-variant-numeric:normal;font-variant-alternates:normal;font-feature-settings:normal;text-indent:0;text-align:start;text-decoration:none;text-decoration-line:none;text-decoration-style:solid;text-decoration-color:#000000;letter-spacing:normal;word-spacing:normal;text-transform:none;writing-mode:lr-tb;direction:ltr;text-orientation:mixed;dominant-baseline:auto;baseline-shift:baseline;text-anchor:start;white-space:normal;shape-padding:0;clip-rule:nonzero;display:inline;overflow:visible;visibility:visible;opacity:1;isolation:auto;mix-blend-mode:normal;color-interpolation:sRGB;color-interpolation-filters:linearRGB;solid-color:#000000;solid-opacity:1;vector-effect:none;fill:#194d37;fill-opacity:1;fill-rule:nonzero;stroke:none;stroke-width:0.44804287;stroke-linecap:round;stroke-linejoin:round;stroke-miterlimit:4;stroke-dasharray:none;stroke-dashoffset:0;stroke-opacity:1;color-rendering:auto;image-rendering:auto;shape-rendering:auto;text-rendering:auto;enable-background:accumulate" />
          <path
             inkscape:connector-curvature="0"
             id="circle836"
             d="m 18.194369,275.72431 -1.260995,3.85168 -1.260558,-3.85081 a 4.5526899,4.5526899 0 0 0 -3.110923,3.11005 l 3.851243,1.26099 -3.850806,1.26056 a 4.5526899,4.5526899 0 0 0 3.110048,3.11092 l 1.260996,-3.85124 1.260558,3.84993 a 4.5526899,4.5526899 0 0 0 3.110485,-3.10961 l -3.850806,-1.26056 3.852118,-1.26143 a 4.5526899,4.5526899 0 0 0 -3.11136,-3.11048 z"
             style="opacity:1;fill:#194d37;fill-opacity:1;stroke:none;stroke-width:0.30709183;stroke-linecap:round;stroke-linejoin:round;stroke-miterlimit:4;stroke-dasharray:none;stroke-dashoffset:0;stroke-opacity:1" />
        </g>
        <g
           aria-label="TRANTOR"
           style="font-style:normal;font-variant:normal;font-weight:normal;font-stretch:normal;font-size:6.35000038px;line-height:1.25;font-family:'Futura Md BT';-inkscape-font-specification:'Futura Md BT';letter-spacing:0px;word-spacing:0px;fill:#194d37;fill-opacity:1;stroke:none;stroke-width:0.26458335"
           id="text856"
           transform="matrix(0.98082694,0,0,0.98082694,0.32466881,5.6766652)">
          <path
             d="m 7.3047237,296.01929 v -3.6897 H 6.613293 v -0.83716 h 2.2913331 v 0.83716 H 8.2131954 v 3.6897 z"
             style="font-style:normal;font-variant:normal;font-weight:normal;font-stretch:normal;font-family:'Futura BdCn BT';-inkscape-font-specification:'Futura BdCn BT';fill:#194d37;fill-opacity:1;stroke-width:0.26458335"
             id="path862"
             inkscape:connector-curvature="0" />
          <path
             d="m 10.222375,293.4551 q 0.0155,0 0.04961,0.003 0.03721,0.003 0.05271,0.003 0.294556,0 0.443384,-0.16433 0.148828,-0.16433 0.148828,-0.48369 0,-0.32556 -0.136425,-0.47439 -0.136426,-0.14883 -0.437183,-0.14883 -0.04651,0 -0.07131,0.003 -0.02481,0 -0.04651,0.003 z m -0.8743652,2.56419 v -4.52686 h 0.9394772 q 0.775147,0 1.122413,0.30386 0.350366,0.30386 0.350366,0.97048 0,0.48369 -0.179834,0.77825 -0.176734,0.29145 -0.536402,0.40928 l 0.868165,2.06499 h -0.95188 l -0.73794,-1.87276 v 1.87276 z"
             style="font-style:normal;font-variant:normal;font-weight:normal;font-stretch:normal;font-family:'Futura BdCn BT';-inkscape-font-specification:'Futura BdCn BT';fill:#194d37;fill-opacity:1;stroke-width:0.26458335"
             id="path864"
             inkscape:connector-curvature="0" />
          <path
             d="m 13.087317,294.5217 h 0.601513 q -0.09302,-0.47439 -0.167431,-0.99218 -0.07441,-0.5209 -0.130225,-1.09761 -0.06821,0.5085 -0.145727,1.03249 -0.07441,0.5209 -0.15813,1.0573 z m -1.206128,1.49759 1.054199,-4.52686 h 0.945679 l 1.00459,4.52686 h -0.902271 l -0.151929,-0.79375 h -0.908471 l -0.139527,0.79375 z"
             style="font-style:normal;font-variant:normal;font-weight:normal;font-stretch:normal;font-family:'Futura BdCn BT';-inkscape-font-specification:'Futura BdCn BT';fill:#194d37;fill-opacity:1;stroke-width:0.26458335"
             id="path866"
             inkscape:connector-curvature="0" />
          <path
             d="m 15.214319,296.01929 v -4.52686 h 0.914673 l 0.914673,2.43706 q 0.04031,0.11782 0.111621,0.36277 0.07441,0.24185 0.167431,0.57051 -0.07131,-0.48059 -0.10542,-0.88057 -0.03411,-0.40307 -0.03411,-0.75034 v -1.73943 h 0.837158 v 4.52686 h -0.837158 l -0.992188,-2.53318 q -0.0248,-0.0558 -0.130224,-0.46199 -0.04961,-0.18603 -0.07752,-0.29145 0.03101,0.26355 0.04651,0.59531 0.0155,0.32866 0.0155,0.78755 v 1.90376 z"
             style="font-style:normal;font-variant:normal;font-weight:normal;font-stretch:normal;font-family:'Futura BdCn BT';-inkscape-font-specification:'Futura BdCn BT';fill:#194d37;fill-opacity:1;stroke-width:0.26458335"
             id="path868"
             inkscape:connector-curvature="0" />
          <path
             d="m 19.161365,296.01929 v -3.6897 h -0.69143 v -0.83716 h 2.291333 v 0.83716 h -0.691431 v 3.6897 z"
             style="font-style:normal;font-variant:normal;font-weight:normal;font-stretch:normal;font-family:'Futura BdCn BT';-inkscape-font-specification:'Futura BdCn BT';fill:#194d37;fill-opacity:1;stroke-width:0.26458335"
             id="path870"
             inkscape:connector-curvature="0" />
          <path
             d="m 22.534803,295.21313 q 0.347265,0 0.517798,-0.36276 0.173632,-0.36277 0.173632,-1.09141 0,-0.73484 -0.173632,-1.09761 -0.170533,-0.36277 -0.517798,-0.36277 -0.347266,0 -0.517798,0.36277 -0.170532,0.35967 -0.170532,1.09761 0,0.73484 0.170532,1.09451 0.170532,0.35966 0.517798,0.35966 z m 1.593701,-1.39216 q 0,1.0356 -0.434082,1.64641 -0.434082,0.60772 -1.159619,0.60772 -0.750342,0 -1.168921,-0.61082 -0.418579,-0.61391 -0.418579,-1.70532 0,-1.08831 0.421679,-1.70532 0.424781,-0.62012 1.165821,-0.62012 0.74414,0 1.168921,0.63252 0.42478,0.63252 0.42478,1.75493 z"
             style="font-style:normal;font-variant:normal;font-weight:normal;font-stretch:normal;font-family:'Futura BdCn BT';-inkscape-font-specification:'Futura BdCn BT';fill:#194d37;fill-opacity:1;stroke-width:0.26458335"
             id="path872"
             inkscape:connector-curvature="0" />
          <path
             d="m 25.564075,293.4551 q 0.0155,0 0.04961,0.003 0.03721,0.003 0.05271,0.003 0.294555,0 0.443384,-0.16433 0.148828,-0.16433 0.148828,-0.48369 0,-0.32556 -0.136426,-0.47439 -0.136426,-0.14883 -0.437183,-0.14883 -0.04651,0 -0.07131,0.003 -0.02481,0 -0.04651,0.003 z m -0.874365,2.56419 v -4.52686 h 0.939478 q 0.775146,0 1.122412,0.30386 0.350366,0.30386 0.350366,0.97048 0,0.48369 -0.179834,0.77825 -0.176733,0.29145 -0.536401,0.40928 l 0.868164,2.06499 h -0.95188 l -0.73794,-1.87276 v 1.87276 z"
             style="font-style:normal;font-variant:normal;font-weight:normal;font-stretch:normal;font-family:'Futura BdCn BT';-inkscape-font-specification:'Futura BdCn BT';fill:#194d37;fill-opacity:1;stroke-width:0.26458335"
             id="path874"
             inkscape:connector-curvature="0" />
        </g>
      </g>
      <g
         aria-label="applicativo web per la gestione dei rimborsi spese"
         style="font-style:normal;font-variant:normal;font-weight:normal;font-stretch:normal;font-size:3.04942274px;line-height:1.25;font-family:'Futura Md BT';-inkscape-font-specification:'Futura Md BT';letter-spacing:0px;word-spacing:0px;fill:#9c27b0;fill-opacity:1;stroke:none;stroke-width:0.12705928"
         id="text1507">
        <path
           d="m 28.408325,283.10571 v -0.14294 q -0.05509,0.0879 -0.126563,0.12954 -0.06998,0.0402 -0.162298,0.0402 -0.184633,0 -0.279928,-0.19207 -0.09529,-0.19208 -0.09529,-0.5673 0,-0.37225 0.0938,-0.56284 0.0953,-0.19207 0.281417,-0.19207 0.0938,0 0.163787,0.0402 0.07147,0.0402 0.125074,0.12656 v -0.13996 h 0.268016 v 1.46068 z m -0.39309,-0.73257 q 0,0.27992 0.04616,0.39458 0.04765,0.11465 0.154853,0.11465 0.107206,0 0.153365,-0.11465 0.04765,-0.11614 0.04765,-0.39458 0,-0.27993 -0.04616,-0.3916 -0.04616,-0.11317 -0.154854,-0.11317 -0.108695,0 -0.154853,0.11317 -0.04616,0.11167 -0.04616,0.3916 z"
           style="font-style:normal;font-variant:normal;font-weight:normal;font-stretch:normal;font-family:'Futura MdCn BT';-inkscape-font-specification:'Futura MdCn BT';fill:#9b4900;fill-opacity:1;stroke-width:0.12705928"
           id="path1525" />
        <path
           d="m 29.239173,282.37314 q 0,0.28141 0.04616,0.39458 0.04765,0.11167 0.156342,0.11167 0.108695,0 0.154854,-0.11167 0.04616,-0.11317 0.04616,-0.39458 0,-0.27993 -0.04616,-0.3916 -0.04616,-0.11317 -0.154854,-0.11317 -0.108695,0 -0.156342,0.11317 -0.04616,0.11167 -0.04616,0.3916 z m -0.259081,1.32072 v -2.04883 h 0.269504 v 0.13996 q 0.0536,-0.0864 0.123585,-0.12656 0.07147,-0.0402 0.165277,-0.0402 0.192078,0 0.282905,0.18463 0.09232,0.18314 0.09232,0.57028 0,0.38862 -0.09232,0.57325 -0.09083,0.18315 -0.282905,0.18315 -0.09232,0 -0.163788,-0.0417 -0.06998,-0.0417 -0.125074,-0.12806 v 0.73407 z"
           style="font-style:normal;font-variant:normal;font-weight:normal;font-stretch:normal;font-family:'Futura MdCn BT';-inkscape-font-specification:'Futura MdCn BT';fill:#9b4900;fill-opacity:1;stroke-width:0.12705928"
           id="path1527" />
        <path
           d="m 30.430354,282.37314 q 0,0.28141 0.04616,0.39458 0.04765,0.11167 0.156343,0.11167 0.108695,0 0.154853,-0.11167 0.04616,-0.11317 0.04616,-0.39458 0,-0.27993 -0.04616,-0.3916 -0.04616,-0.11317 -0.154853,-0.11317 -0.108695,0 -0.156343,0.11317 -0.04616,0.11167 -0.04616,0.3916 z m -0.259082,1.32072 v -2.04883 h 0.269505 v 0.13996 q 0.0536,-0.0864 0.123585,-0.12656 0.07147,-0.0402 0.165276,-0.0402 0.192078,0 0.282906,0.18463 0.09232,0.18314 0.09232,0.57028 0,0.38862 -0.09232,0.57325 -0.09083,0.18315 -0.282906,0.18315 -0.09232,0 -0.163787,-0.0417 -0.06998,-0.0417 -0.125074,-0.12806 v 0.73407 z"
           style="font-style:normal;font-variant:normal;font-weight:normal;font-stretch:normal;font-family:'Futura MdCn BT';-inkscape-font-specification:'Futura MdCn BT';fill:#9b4900;fill-opacity:1;stroke-width:0.12705928"
           id="path1529" />
        <path
           d="m 31.38181,283.10571 v -2.30791 h 0.268015 v 2.30791 z"
           style="font-style:normal;font-variant:normal;font-weight:normal;font-stretch:normal;font-family:'Futura MdCn BT';-inkscape-font-specification:'Futura MdCn BT';fill:#9b4900;fill-opacity:1;stroke-width:0.12705928"
           id="path1531" />
        <path
           d="m 31.958043,281.20876 q 0,-0.073 0.04914,-0.12359 0.04914,-0.0506 0.122096,-0.0506 0.07147,0 0.120607,0.0506 0.04914,0.0506 0.04914,0.12359 0,0.0715 -0.05063,0.12209 -0.04914,0.0491 -0.119118,0.0491 -0.07296,0 -0.122096,-0.0491 -0.04914,-0.0491 -0.04914,-0.12209 z m 0.03722,1.89695 v -1.46068 h 0.268016 v 1.46068 z"
           style="font-style:normal;font-variant:normal;font-weight:normal;font-stretch:normal;font-family:'Futura MdCn BT';-inkscape-font-specification:'Futura MdCn BT';fill:#9b4900;fill-opacity:1;stroke-width:0.12705928"
           id="path1533" />
        <path
           d="m 33.176026,283.08189 q -0.05658,0.0268 -0.110184,0.0402 -0.0536,0.0134 -0.110185,0.0134 -0.220368,0 -0.326085,-0.18314 -0.104229,-0.18463 -0.104229,-0.57475 0,-0.37373 0.105718,-0.56581 0.105717,-0.19356 0.309707,-0.19356 0.06254,0 0.120607,0.0149 0.05807,0.0134 0.114651,0.0417 v 0.25759 q -0.03722,-0.0357 -0.07296,-0.0521 -0.03573,-0.0164 -0.07445,-0.0164 -0.11614,0 -0.17421,0.13103 -0.05658,0.13103 -0.05658,0.39458 0,0.2427 0.05509,0.36182 0.05658,0.11911 0.169743,0.11911 0.0402,0 0.07743,-0.0149 0.03871,-0.0164 0.07594,-0.0491 z"
           style="font-style:normal;font-variant:normal;font-weight:normal;font-stretch:normal;font-family:'Futura MdCn BT';-inkscape-font-specification:'Futura MdCn BT';fill:#9b4900;fill-opacity:1;stroke-width:0.12705928"
           id="path1535" />
        <path
           d="m 33.989007,283.10571 v -0.14294 q -0.05509,0.0879 -0.126563,0.12954 -0.06998,0.0402 -0.162299,0.0402 -0.184633,0 -0.279927,-0.19207 -0.0953,-0.19208 -0.0953,-0.5673 0,-0.37225 0.09381,-0.56284 0.09529,-0.19207 0.281416,-0.19207 0.09381,0 0.163788,0.0402 0.07147,0.0402 0.125074,0.12656 v -0.13996 h 0.268015 v 1.46068 z m -0.39309,-0.73257 q 0,0.27992 0.04616,0.39458 0.04765,0.11465 0.154854,0.11465 0.107206,0 0.153364,-0.11465 0.04765,-0.11614 0.04765,-0.39458 0,-0.27993 -0.04616,-0.3916 -0.04616,-0.11317 -0.154853,-0.11317 -0.108695,0 -0.154854,0.11317 -0.04616,0.11167 -0.04616,0.3916 z"
           style="font-style:normal;font-variant:normal;font-weight:normal;font-stretch:normal;font-family:'Futura MdCn BT';-inkscape-font-specification:'Futura MdCn BT';fill:#9b4900;fill-opacity:1;stroke-width:0.12705928"
           id="path1537" />
        <path
           d="m 34.592042,283.10571 v -1.26265 h -0.14592 v -0.19803 h 0.14592 v -0.39607 h 0.268016 v 0.39607 h 0.201011 v 0.19803 h -0.201011 v 1.26265 z"
           style="font-style:normal;font-variant:normal;font-weight:normal;font-stretch:normal;font-family:'Futura MdCn BT';-inkscape-font-specification:'Futura MdCn BT';fill:#9b4900;fill-opacity:1;stroke-width:0.12705928"
           id="path1539" />
        <path
           d="m 35.209967,281.20876 q 0,-0.073 0.04914,-0.12359 0.04914,-0.0506 0.122096,-0.0506 0.07147,0 0.120607,0.0506 0.04914,0.0506 0.04914,0.12359 0,0.0715 -0.05063,0.12209 -0.04914,0.0491 -0.119118,0.0491 -0.07296,0 -0.122096,-0.0491 -0.04914,-0.0491 -0.04914,-0.12209 z m 0.03722,1.89695 v -1.46068 h 0.268016 v 1.46068 z"
           style="font-style:normal;font-variant:normal;font-weight:normal;font-stretch:normal;font-family:'Futura MdCn BT';-inkscape-font-specification:'Futura MdCn BT';fill:#9b4900;fill-opacity:1;stroke-width:0.12705928"
           id="path1541" />
        <path
           d="m 35.716218,281.64503 h 0.278439 l 0.151876,0.76235 q 0.0134,0.067 0.02382,0.15188 0.01042,0.0834 0.01936,0.18314 0.0134,-0.1206 0.02382,-0.20399 0.01191,-0.0834 0.02234,-0.12805 l 0.148898,-0.76533 h 0.276949 l -0.364799,1.46068 h -0.214412 z"
           style="font-style:normal;font-variant:normal;font-weight:normal;font-stretch:normal;font-family:'Futura MdCn BT';-inkscape-font-specification:'Futura MdCn BT';fill:#9b4900;fill-opacity:1;stroke-width:0.12705928"
           id="path1543" />
        <path
           d="m 37.053319,282.37016 q 0,0.26801 0.05211,0.39309 0.0536,0.12358 0.166766,0.12358 0.114651,0 0.168254,-0.12507 0.05509,-0.12507 0.05509,-0.3916 0,-0.26504 -0.05509,-0.39011 -0.0536,-0.12508 -0.168254,-0.12508 -0.113162,0 -0.166766,0.12508 -0.05211,0.12358 -0.05211,0.39011 z m -0.272482,0.003 q 0,-0.36927 0.125074,-0.56135 0.126563,-0.19356 0.366288,-0.19356 0.239725,0 0.364799,0.19356 0.126563,0.19208 0.126563,0.56135 0,0.37224 -0.126563,0.56581 -0.125074,0.19356 -0.364799,0.19356 -0.239725,0 -0.366288,-0.19356 -0.125074,-0.19357 -0.125074,-0.56581 z"
           style="font-style:normal;font-variant:normal;font-weight:normal;font-stretch:normal;font-family:'Futura MdCn BT';-inkscape-font-specification:'Futura MdCn BT';fill:#9b4900;fill-opacity:1;stroke-width:0.12705928"
           id="path1545" />
        <path
           d="m 39.236158,282.38803 q -0.0089,-0.0566 -0.01936,-0.13103 -0.0089,-0.0759 -0.01936,-0.18166 -0.0089,0.0938 -0.01936,0.17421 -0.0089,0.0804 -0.02085,0.13997 l -0.13103,0.71619 h -0.1891 l -0.337997,-1.46068 h 0.262059 l 0.139964,0.74895 q 0.01042,0.0596 0.01936,0.13252 0.0089,0.073 0.02085,0.17868 0.01042,-0.10721 0.01936,-0.18166 0.01042,-0.0745 0.01936,-0.12805 l 0.13103,-0.75044 h 0.17421 l 0.134008,0.75044 q 0.01489,0.0774 0.03425,0.27993 l 0.003,0.0298 q 0.0074,-0.0893 0.01787,-0.16974 0.01042,-0.0804 0.02234,-0.13997 l 0.136985,-0.75044 h 0.265038 l -0.342464,1.46068 h -0.1891 z"
           style="font-style:normal;font-variant:normal;font-weight:normal;font-stretch:normal;font-family:'Futura MdCn BT';-inkscape-font-specification:'Futura MdCn BT';fill:#9b4900;fill-opacity:1;stroke-width:0.12705928"
           id="path1547" />
        <path
           d="m 40.297798,282.21531 h 0.409468 v -0.0372 q 0,-0.18017 -0.04765,-0.26057 -0.04765,-0.0804 -0.153365,-0.0804 -0.102739,0 -0.156342,0.0968 -0.05211,0.0953 -0.05211,0.28142 z m 0.65366,0.40202 v 0.0194 q 0,0.23079 -0.11614,0.36331 -0.11614,0.13251 -0.317152,0.13251 -0.245681,0 -0.360332,-0.18165 -0.113162,-0.18314 -0.113162,-0.58368 0,-0.37671 0.113162,-0.56283 0.114651,-0.18612 0.345442,-0.18612 0.245681,0 0.354376,0.16974 0.108696,0.16825 0.108696,0.55241 v 0.0849 h -0.66855 v 0.0432 q 0,0.2293 0.05211,0.33353 0.05211,0.10274 0.165276,0.10274 0.09083,0 0.136986,-0.0715 0.04765,-0.0715 0.05211,-0.21441 z"
           style="font-style:normal;font-variant:normal;font-weight:normal;font-stretch:normal;font-family:'Futura MdCn BT';-inkscape-font-specification:'Futura MdCn BT';fill:#9b4900;fill-opacity:1;stroke-width:0.12705928"
           id="path1549" />
        <path
           d="m 41.466643,282.3776 q 0,0.27993 0.04616,0.39309 0.04765,0.11168 0.156342,0.11168 0.108695,0 0.154854,-0.11168 0.04616,-0.11316 0.04616,-0.39309 0,-0.28141 -0.04616,-0.39309 -0.04616,-0.11316 -0.154854,-0.11316 -0.108695,0 -0.156342,0.11316 -0.04616,0.11168 -0.04616,0.39309 z m -0.259081,0.72811 v -2.30791 h 0.269504 v 0.99017 q 0.0536,-0.0864 0.123585,-0.12656 0.07147,-0.0402 0.165277,-0.0402 0.192077,0 0.282905,0.18464 0.09232,0.18314 0.09232,0.57176 0,0.38714 -0.09232,0.57177 -0.09083,0.18314 -0.282905,0.18314 -0.09232,0 -0.163788,-0.0402 -0.06998,-0.0417 -0.125074,-0.12954 v 0.14294 z"
           style="font-style:normal;font-variant:normal;font-weight:normal;font-stretch:normal;font-family:'Futura MdCn BT';-inkscape-font-specification:'Futura MdCn BT';fill:#9b4900;fill-opacity:1;stroke-width:0.12705928"
           id="path1551" />
        <path
           d="m 43.247458,282.37314 q 0,0.28141 0.04616,0.39458 0.04765,0.11167 0.156342,0.11167 0.108695,0 0.154854,-0.11167 0.04616,-0.11317 0.04616,-0.39458 0,-0.27993 -0.04616,-0.3916 -0.04616,-0.11317 -0.154854,-0.11317 -0.108695,0 -0.156342,0.11317 -0.04616,0.11167 -0.04616,0.3916 z m -0.259081,1.32072 v -2.04883 h 0.269504 v 0.13996 q 0.0536,-0.0864 0.123585,-0.12656 0.07147,-0.0402 0.165277,-0.0402 0.192078,0 0.282905,0.18463 0.09232,0.18314 0.09232,0.57028 0,0.38862 -0.09232,0.57325 -0.09083,0.18315 -0.282905,0.18315 -0.09232,0 -0.163788,-0.0417 -0.06998,-0.0417 -0.125074,-0.12806 v 0.73407 z"
           style="font-style:normal;font-variant:normal;font-weight:normal;font-stretch:normal;font-family:'Futura MdCn BT';-inkscape-font-specification:'Futura MdCn BT';fill:#9b4900;fill-opacity:1;stroke-width:0.12705928"
           id="path1553" />
        <path
           d="m 44.371635,282.21531 h 0.409468 v -0.0372 q 0,-0.18017 -0.04765,-0.26057 -0.04765,-0.0804 -0.153365,-0.0804 -0.102739,0 -0.156342,0.0968 -0.05211,0.0953 -0.05211,0.28142 z m 0.65366,0.40202 v 0.0194 q 0,0.23079 -0.11614,0.36331 -0.11614,0.13251 -0.317152,0.13251 -0.245681,0 -0.360332,-0.18165 -0.113162,-0.18314 -0.113162,-0.58368 0,-0.37671 0.113162,-0.56283 0.114651,-0.18612 0.345442,-0.18612 0.245682,0 0.354377,0.16974 0.108695,0.16825 0.108695,0.55241 v 0.0849 h -0.66855 v 0.0432 q 0,0.2293 0.05211,0.33353 0.05211,0.10274 0.165276,0.10274 0.09083,0 0.136986,-0.0715 0.04765,-0.0715 0.05211,-0.21441 z"
           style="font-style:normal;font-variant:normal;font-weight:normal;font-stretch:normal;font-family:'Futura MdCn BT';-inkscape-font-specification:'Futura MdCn BT';fill:#9b4900;fill-opacity:1;stroke-width:0.12705928"
           id="path1555" />
        <path
           d="m 45.300756,283.10571 v -1.46068 h 0.259082 v 0.21292 q 0.05509,-0.11614 0.141453,-0.17421 0.08636,-0.0596 0.211435,-0.0655 v 0.2829 h -0.04467 q -0.156342,0 -0.229302,0.0789 -0.07296,0.0774 -0.07296,0.24419 v 0.88147 z"
           style="font-style:normal;font-variant:normal;font-weight:normal;font-stretch:normal;font-family:'Futura MdCn BT';-inkscape-font-specification:'Futura MdCn BT';fill:#9b4900;fill-opacity:1;stroke-width:0.12705928"
           id="path1557" />
        <path
           d="m 46.718262,283.10571 v -2.30791 h 0.268015 v 2.30791 z"
           style="font-style:normal;font-variant:normal;font-weight:normal;font-stretch:normal;font-family:'Futura MdCn BT';-inkscape-font-specification:'Futura MdCn BT';fill:#9b4900;fill-opacity:1;stroke-width:0.12705928"
           id="path1559" />
        <path
           d="m 47.931778,283.10571 v -0.14294 q -0.05509,0.0879 -0.126563,0.12954 -0.06998,0.0402 -0.162299,0.0402 -0.184633,0 -0.279927,-0.19207 -0.0953,-0.19208 -0.0953,-0.5673 0,-0.37225 0.09381,-0.56284 0.09529,-0.19207 0.281416,-0.19207 0.09381,0 0.163788,0.0402 0.07147,0.0402 0.125074,0.12656 v -0.13996 h 0.268015 v 1.46068 z m -0.39309,-0.73257 q 0,0.27992 0.04616,0.39458 0.04765,0.11465 0.154854,0.11465 0.107206,0 0.153364,-0.11465 0.04765,-0.11614 0.04765,-0.39458 0,-0.27993 -0.04616,-0.3916 -0.04616,-0.11317 -0.154853,-0.11317 -0.108695,0 -0.154854,0.11317 -0.04616,0.11167 -0.04616,0.3916 z"
           style="font-style:normal;font-variant:normal;font-weight:normal;font-stretch:normal;font-family:'Futura MdCn BT';-inkscape-font-specification:'Futura MdCn BT';fill:#9b4900;fill-opacity:1;stroke-width:0.12705928"
           id="path1561" />
        <path
           d="m 49.319503,282.37314 q 0,0.28141 0.04616,0.39458 0.04616,0.11167 0.154854,0.11167 0.108695,0 0.154853,-0.11167 0.04616,-0.11317 0.04616,-0.39458 0,-0.27993 -0.04616,-0.3916 -0.04616,-0.11317 -0.154853,-0.11317 -0.108695,0 -0.154854,0.11317 -0.04616,0.11167 -0.04616,0.3916 z m 0.661105,0.76682 q 0,0.30226 -0.111673,0.42734 -0.110184,0.12656 -0.369266,0.12656 -0.212923,0 -0.326085,-0.1087 -0.113163,-0.1072 -0.113163,-0.30821 v -0.0462 h 0.254615 q 0.0045,0.11911 0.04914,0.17719 0.04616,0.0581 0.138475,0.0581 0.111673,0 0.16081,-0.07 0.04914,-0.07 0.04914,-0.2293 v -0.20697 q -0.05509,0.0864 -0.126563,0.12806 -0.06998,0.0417 -0.162299,0.0417 -0.193566,0 -0.284394,-0.18315 -0.09083,-0.18463 -0.09083,-0.57325 0,-0.38714 0.09083,-0.57028 0.09083,-0.18463 0.284394,-0.18463 0.09381,0 0.163788,0.0402 0.07147,0.0402 0.125074,0.12656 v -0.13996 h 0.268015 z"
           style="font-style:normal;font-variant:normal;font-weight:normal;font-stretch:normal;font-family:'Futura MdCn BT';-inkscape-font-specification:'Futura MdCn BT';fill:#9b4900;fill-opacity:1;stroke-width:0.12705928"
           id="path1563" />
        <path
           d="m 50.476438,282.21531 h 0.409468 v -0.0372 q 0,-0.18017 -0.04765,-0.26057 -0.04765,-0.0804 -0.153364,-0.0804 -0.10274,0 -0.156343,0.0968 -0.05211,0.0953 -0.05211,0.28142 z m 0.65366,0.40202 v 0.0194 q 0,0.23079 -0.11614,0.36331 -0.11614,0.13251 -0.317152,0.13251 -0.245681,0 -0.360332,-0.18165 -0.113162,-0.18314 -0.113162,-0.58368 0,-0.37671 0.113162,-0.56283 0.114651,-0.18612 0.345443,-0.18612 0.245681,0 0.354376,0.16974 0.108695,0.16825 0.108695,0.55241 v 0.0849 h -0.66855 v 0.0432 q 0,0.2293 0.05211,0.33353 0.05211,0.10274 0.165276,0.10274 0.09083,0 0.136986,-0.0715 0.04765,-0.0715 0.05211,-0.21441 z"
           style="font-style:normal;font-variant:normal;font-weight:normal;font-stretch:normal;font-family:'Futura MdCn BT';-inkscape-font-specification:'Futura MdCn BT';fill:#9b4900;fill-opacity:1;stroke-width:0.12705928"
           id="path1565" />
        <path
           d="m 51.319197,282.79749 q 0.05658,0.0491 0.111673,0.0745 0.05658,0.0238 0.114651,0.0238 0.08487,0 0.138475,-0.0506 0.0536,-0.0506 0.0536,-0.12954 0,-0.0938 -0.147408,-0.23377 -0.01936,-0.0193 -0.02978,-0.0283 -0.142942,-0.1355 -0.192078,-0.22483 -0.04914,-0.0893 -0.04914,-0.19655 0,-0.18463 0.113162,-0.30077 0.113162,-0.11614 0.293328,-0.11614 0.05956,0 0.116141,0.0149 0.05807,0.0149 0.114651,0.0447 v 0.27546 q -0.04318,-0.0506 -0.0953,-0.0745 -0.05063,-0.0238 -0.117629,-0.0238 -0.07445,0 -0.123585,0.0476 -0.04765,0.0477 -0.04765,0.12061 0,0.0968 0.141453,0.22632 0.02829,0.0253 0.04169,0.0387 0.132519,0.12209 0.183144,0.22037 0.05211,0.0983 0.05211,0.21888 0,0.18612 -0.113162,0.29779 -0.113162,0.11018 -0.302262,0.11018 -0.06105,0 -0.125074,-0.0134 -0.06403,-0.0134 -0.13103,-0.0402 z"
           style="font-style:normal;font-variant:normal;font-weight:normal;font-stretch:normal;font-family:'Futura MdCn BT';-inkscape-font-specification:'Futura MdCn BT';fill:#9b4900;fill-opacity:1;stroke-width:0.12705928"
           id="path1567" />
        <path
           d="m 52.251296,283.10571 v -1.26265 h -0.14592 v -0.19803 h 0.14592 v -0.39607 h 0.268015 v 0.39607 h 0.201012 v 0.19803 h -0.201012 v 1.26265 z"
           style="font-style:normal;font-variant:normal;font-weight:normal;font-stretch:normal;font-family:'Futura MdCn BT';-inkscape-font-specification:'Futura MdCn BT';fill:#9b4900;fill-opacity:1;stroke-width:0.12705928"
           id="path1569" />
        <path
           d="m 52.869222,281.20876 q 0,-0.073 0.04914,-0.12359 0.04914,-0.0506 0.122096,-0.0506 0.07147,0 0.120607,0.0506 0.04914,0.0506 0.04914,0.12359 0,0.0715 -0.05063,0.12209 -0.04914,0.0491 -0.119118,0.0491 -0.07296,0 -0.122096,-0.0491 -0.04914,-0.0491 -0.04914,-0.12209 z m 0.03722,1.89695 v -1.46068 h 0.268016 v 1.46068 z"
           style="font-style:normal;font-variant:normal;font-weight:normal;font-stretch:normal;font-family:'Futura MdCn BT';-inkscape-font-specification:'Futura MdCn BT';fill:#9b4900;fill-opacity:1;stroke-width:0.12705928"
           id="path1571" />
        <path
           d="m 53.711981,282.37016 q 0,0.26801 0.05211,0.39309 0.0536,0.12358 0.166766,0.12358 0.114651,0 0.168254,-0.12507 0.05509,-0.12507 0.05509,-0.3916 0,-0.26504 -0.05509,-0.39011 -0.0536,-0.12508 -0.168254,-0.12508 -0.113163,0 -0.166766,0.12508 -0.05211,0.12358 -0.05211,0.39011 z m -0.272483,0.003 q 0,-0.36927 0.125074,-0.56135 0.126563,-0.19356 0.366289,-0.19356 0.239725,0 0.364799,0.19356 0.126563,0.19208 0.126563,0.56135 0,0.37224 -0.126563,0.56581 -0.125074,0.19356 -0.364799,0.19356 -0.239726,0 -0.366289,-0.19356 -0.125074,-0.19357 -0.125074,-0.56581 z"
           style="font-style:normal;font-variant:normal;font-weight:normal;font-stretch:normal;font-family:'Futura MdCn BT';-inkscape-font-specification:'Futura MdCn BT';fill:#9b4900;fill-opacity:1;stroke-width:0.12705928"
           id="path1573" />
        <path
           d="m 54.684284,283.10571 v -1.46068 h 0.265037 v 0.14592 q 0.0536,-0.0804 0.129541,-0.12061 0.07743,-0.0402 0.178677,-0.0402 0.16081,0 0.238237,0.0893 0.07892,0.0893 0.07892,0.27248 v 1.11375 h -0.269504 v -0.98123 q 0,-0.1489 -0.03871,-0.2025 -0.03871,-0.0536 -0.134008,-0.0536 -0.08934,0 -0.135496,0.0566 -0.04467,0.0551 -0.04467,0.16528 v 1.01548 z"
           style="font-style:normal;font-variant:normal;font-weight:normal;font-stretch:normal;font-family:'Futura MdCn BT';-inkscape-font-specification:'Futura MdCn BT';fill:#9b4900;fill-opacity:1;stroke-width:0.12705928"
           id="path1575" />
        <path
           d="m 56.074987,282.21531 h 0.409468 v -0.0372 q 0,-0.18017 -0.04765,-0.26057 -0.04765,-0.0804 -0.153365,-0.0804 -0.102739,0 -0.156342,0.0968 -0.05211,0.0953 -0.05211,0.28142 z m 0.65366,0.40202 v 0.0194 q 0,0.23079 -0.11614,0.36331 -0.11614,0.13251 -0.317152,0.13251 -0.245681,0 -0.360332,-0.18165 -0.113162,-0.18314 -0.113162,-0.58368 0,-0.37671 0.113162,-0.56283 0.114651,-0.18612 0.345442,-0.18612 0.245681,0 0.354377,0.16974 0.108695,0.16825 0.108695,0.55241 v 0.0849 h -0.66855 v 0.0432 q 0,0.2293 0.05211,0.33353 0.05211,0.10274 0.165276,0.10274 0.09083,0 0.136986,-0.0715 0.04765,-0.0715 0.05211,-0.21441 z"
           style="font-style:normal;font-variant:normal;font-weight:normal;font-stretch:normal;font-family:'Futura MdCn BT';-inkscape-font-specification:'Futura MdCn BT';fill:#9b4900;fill-opacity:1;stroke-width:0.12705928"
           id="path1577" />
        <path
           d="m 57.80071,282.3776 q 0,0.27993 0.04616,0.39309 0.04616,0.11168 0.154854,0.11168 0.108695,0 0.154853,-0.11168 0.04616,-0.11316 0.04616,-0.39309 0,-0.28141 -0.04616,-0.39309 -0.04616,-0.11316 -0.154853,-0.11316 -0.108695,0 -0.154854,0.11316 -0.04616,0.11168 -0.04616,0.39309 z m 0.39309,0.72811 v -0.14294 q -0.05509,0.0879 -0.126563,0.12954 -0.06998,0.0402 -0.162299,0.0402 -0.193567,0 -0.284394,-0.18314 -0.09083,-0.18463 -0.09083,-0.57177 0,-0.38862 0.09083,-0.57176 0.09083,-0.18464 0.284394,-0.18464 0.09381,0 0.163788,0.0402 0.07147,0.0402 0.125074,0.12656 v -0.99017 h 0.268015 v 2.30791 z"
           style="font-style:normal;font-variant:normal;font-weight:normal;font-stretch:normal;font-family:'Futura MdCn BT';-inkscape-font-specification:'Futura MdCn BT';fill:#9b4900;fill-opacity:1;stroke-width:0.12705928"
           id="path1579" />
        <path
           d="m 58.957643,282.21531 h 0.409468 v -0.0372 q 0,-0.18017 -0.04765,-0.26057 -0.04765,-0.0804 -0.153365,-0.0804 -0.102739,0 -0.156342,0.0968 -0.05211,0.0953 -0.05211,0.28142 z m 0.65366,0.40202 v 0.0194 q 0,0.23079 -0.11614,0.36331 -0.11614,0.13251 -0.317152,0.13251 -0.245681,0 -0.360332,-0.18165 -0.113162,-0.18314 -0.113162,-0.58368 0,-0.37671 0.113162,-0.56283 0.114651,-0.18612 0.345443,-0.18612 0.245681,0 0.354376,0.16974 0.108695,0.16825 0.108695,0.55241 v 0.0849 h -0.66855 v 0.0432 q 0,0.2293 0.05211,0.33353 0.05211,0.10274 0.165276,0.10274 0.09083,0 0.136986,-0.0715 0.04765,-0.0715 0.05211,-0.21441 z"
           style="font-style:normal;font-variant:normal;font-weight:normal;font-stretch:normal;font-family:'Futura MdCn BT';-inkscape-font-specification:'Futura MdCn BT';fill:#9b4900;fill-opacity:1;stroke-width:0.12705928"
           id="path1581" />
        <path
           d="m 59.849542,281.20876 q 0,-0.073 0.04914,-0.12359 0.04914,-0.0506 0.122096,-0.0506 0.07147,0 0.120607,0.0506 0.04914,0.0506 0.04914,0.12359 0,0.0715 -0.05063,0.12209 -0.04914,0.0491 -0.119118,0.0491 -0.07296,0 -0.122096,-0.0491 -0.04914,-0.0491 -0.04914,-0.12209 z m 0.03722,1.89695 v -1.46068 h 0.268016 v 1.46068 z"
           style="font-style:normal;font-variant:normal;font-weight:normal;font-stretch:normal;font-family:'Futura MdCn BT';-inkscape-font-specification:'Futura MdCn BT';fill:#9b4900;fill-opacity:1;stroke-width:0.12705928"
           id="path1583" />
        <path
           d="m 61.089857,283.10571 v -1.46068 h 0.259082 v 0.21292 q 0.05509,-0.11614 0.141453,-0.17421 0.08636,-0.0596 0.211434,-0.0655 v 0.2829 h -0.04467 q -0.156343,0 -0.229302,0.0789 -0.07296,0.0774 -0.07296,0.24419 v 0.88147 z"
           style="font-style:normal;font-variant:normal;font-weight:normal;font-stretch:normal;font-family:'Futura MdCn BT';-inkscape-font-specification:'Futura MdCn BT';fill:#9b4900;fill-opacity:1;stroke-width:0.12705928"
           id="path1585" />
        <path
           d="m 61.880502,281.20876 q 0,-0.073 0.04914,-0.12359 0.04914,-0.0506 0.122096,-0.0506 0.07147,0 0.120607,0.0506 0.04914,0.0506 0.04914,0.12359 0,0.0715 -0.05063,0.12209 -0.04914,0.0491 -0.119118,0.0491 -0.07296,0 -0.122096,-0.0491 -0.04914,-0.0491 -0.04914,-0.12209 z m 0.03722,1.89695 v -1.46068 h 0.268015 v 1.46068 z"
           style="font-style:normal;font-variant:normal;font-weight:normal;font-stretch:normal;font-family:'Futura MdCn BT';-inkscape-font-specification:'Futura MdCn BT';fill:#9b4900;fill-opacity:1;stroke-width:0.12705928"
           id="path1587" />
        <path
           d="m 62.528209,283.10571 v -1.46068 h 0.265038 v 0.14592 q 0.05062,-0.0804 0.125074,-0.12061 0.07445,-0.0402 0.17421,-0.0402 0.09827,0 0.168254,0.0432 0.07147,0.0417 0.126563,0.13401 0.05956,-0.0893 0.139964,-0.13252 0.0804,-0.0447 0.183144,-0.0447 0.160809,0 0.238236,0.0893 0.07892,0.0893 0.07892,0.27248 v 1.11375 h -0.268016 v -0.98123 q 0,-0.1489 -0.03871,-0.2025 -0.03871,-0.0536 -0.135497,-0.0536 -0.08785,0 -0.134008,0.0566 -0.04616,0.0551 -0.04616,0.16528 v 1.01548 h -0.265038 v -0.98123 q 0,-0.14592 -0.03871,-0.20101 -0.03871,-0.0551 -0.13103,-0.0551 -0.08636,0 -0.13103,0.0566 -0.04318,0.0551 -0.04318,0.16528 v 1.01548 z"
           style="font-style:normal;font-variant:normal;font-weight:normal;font-stretch:normal;font-family:'Futura MdCn BT';-inkscape-font-specification:'Futura MdCn BT';fill:#9b4900;fill-opacity:1;stroke-width:0.12705928"
           id="path1589" />
        <path
           d="m 64.599373,282.3776 q 0,0.27993 0.04616,0.39309 0.04765,0.11168 0.156343,0.11168 0.108695,0 0.154853,-0.11168 0.04616,-0.11316 0.04616,-0.39309 0,-0.28141 -0.04616,-0.39309 -0.04616,-0.11316 -0.154853,-0.11316 -0.108696,0 -0.156343,0.11316 -0.04616,0.11168 -0.04616,0.39309 z m -0.259082,0.72811 v -2.30791 h 0.269505 v 0.99017 q 0.0536,-0.0864 0.123585,-0.12656 0.07147,-0.0402 0.165276,-0.0402 0.192078,0 0.282905,0.18464 0.09232,0.18314 0.09232,0.57176 0,0.38714 -0.09232,0.57177 -0.09083,0.18314 -0.282905,0.18314 -0.09232,0 -0.163787,-0.0402 -0.06998,-0.0417 -0.125074,-0.12954 v 0.14294 z"
           style="font-style:normal;font-variant:normal;font-weight:normal;font-stretch:normal;font-family:'Futura MdCn BT';-inkscape-font-specification:'Futura MdCn BT';fill:#9b4900;fill-opacity:1;stroke-width:0.12705928"
           id="path1591" />
        <path
           d="m 65.742907,282.37016 q 0,0.26801 0.05211,0.39309 0.0536,0.12358 0.166765,0.12358 0.114651,0 0.168255,-0.12507 0.05509,-0.12507 0.05509,-0.3916 0,-0.26504 -0.05509,-0.39011 -0.0536,-0.12508 -0.168255,-0.12508 -0.113162,0 -0.166765,0.12508 -0.05211,0.12358 -0.05211,0.39011 z m -0.272483,0.003 q 0,-0.36927 0.125074,-0.56135 0.126563,-0.19356 0.366288,-0.19356 0.239725,0 0.364799,0.19356 0.126563,0.19208 0.126563,0.56135 0,0.37224 -0.126563,0.56581 -0.125074,0.19356 -0.364799,0.19356 -0.239725,0 -0.366288,-0.19356 -0.125074,-0.19357 -0.125074,-0.56581 z"
           style="font-style:normal;font-variant:normal;font-weight:normal;font-stretch:normal;font-family:'Futura MdCn BT';-inkscape-font-specification:'Futura MdCn BT';fill:#9b4900;fill-opacity:1;stroke-width:0.12705928"
           id="path1593" />
        <path
           d="m 66.718187,283.10571 v -1.46068 h 0.259082 v 0.21292 q 0.05509,-0.11614 0.141453,-0.17421 0.08636,-0.0596 0.211434,-0.0655 v 0.2829 h -0.04467 q -0.156342,0 -0.229302,0.0789 -0.07296,0.0774 -0.07296,0.24419 v 0.88147 z"
           style="font-style:normal;font-variant:normal;font-weight:normal;font-stretch:normal;font-family:'Futura MdCn BT';-inkscape-font-specification:'Futura MdCn BT';fill:#9b4900;fill-opacity:1;stroke-width:0.12705928"
           id="path1595" />
        <path
           d="m 67.459696,282.79749 q 0.05658,0.0491 0.111673,0.0745 0.05658,0.0238 0.114651,0.0238 0.08487,0 0.138475,-0.0506 0.0536,-0.0506 0.0536,-0.12954 0,-0.0938 -0.147408,-0.23377 -0.01936,-0.0193 -0.02978,-0.0283 -0.142941,-0.1355 -0.192078,-0.22483 -0.04914,-0.0893 -0.04914,-0.19655 0,-0.18463 0.113162,-0.30077 0.113162,-0.11614 0.293329,-0.11614 0.05956,0 0.11614,0.0149 0.05807,0.0149 0.114651,0.0447 v 0.27546 q -0.04318,-0.0506 -0.09529,-0.0745 -0.05062,-0.0238 -0.117629,-0.0238 -0.07445,0 -0.123585,0.0476 -0.04765,0.0477 -0.04765,0.12061 0,0.0968 0.141453,0.22632 0.02829,0.0253 0.04169,0.0387 0.132519,0.12209 0.183144,0.22037 0.05211,0.0983 0.05211,0.21888 0,0.18612 -0.113162,0.29779 -0.113162,0.11018 -0.302262,0.11018 -0.06105,0 -0.125074,-0.0134 -0.06403,-0.0134 -0.13103,-0.0402 z"
           style="font-style:normal;font-variant:normal;font-weight:normal;font-stretch:normal;font-family:'Futura MdCn BT';-inkscape-font-specification:'Futura MdCn BT';fill:#9b4900;fill-opacity:1;stroke-width:0.12705928"
           id="path1597" />
        <path
           d="m 68.34266,281.20876 q 0,-0.073 0.04914,-0.12359 0.04914,-0.0506 0.122096,-0.0506 0.07147,0 0.120607,0.0506 0.04914,0.0506 0.04914,0.12359 0,0.0715 -0.05063,0.12209 -0.04914,0.0491 -0.119118,0.0491 -0.07296,0 -0.122096,-0.0491 -0.04914,-0.0491 -0.04914,-0.12209 z m 0.03723,1.89695 v -1.46068 H 68.6479 v 1.46068 z"
           style="font-style:normal;font-variant:normal;font-weight:normal;font-stretch:normal;font-family:'Futura MdCn BT';-inkscape-font-specification:'Futura MdCn BT';fill:#9b4900;fill-opacity:1;stroke-width:0.12705928"
           id="path1599" />
        <path
           d="m 69.496615,282.79749 q 0.05658,0.0491 0.111673,0.0745 0.05658,0.0238 0.114651,0.0238 0.08487,0 0.138475,-0.0506 0.0536,-0.0506 0.0536,-0.12954 0,-0.0938 -0.147409,-0.23377 -0.01936,-0.0193 -0.02978,-0.0283 -0.142942,-0.1355 -0.192078,-0.22483 -0.04914,-0.0893 -0.04914,-0.19655 0,-0.18463 0.113162,-0.30077 0.113162,-0.11614 0.293328,-0.11614 0.05956,0 0.11614,0.0149 0.05807,0.0149 0.114651,0.0447 v 0.27546 q -0.04318,-0.0506 -0.09529,-0.0745 -0.05062,-0.0238 -0.117629,-0.0238 -0.07445,0 -0.123585,0.0476 -0.04765,0.0477 -0.04765,0.12061 0,0.0968 0.141452,0.22632 0.02829,0.0253 0.04169,0.0387 0.132519,0.12209 0.183144,0.22037 0.05211,0.0983 0.05211,0.21888 0,0.18612 -0.113162,0.29779 -0.113162,0.11018 -0.302262,0.11018 -0.06105,0 -0.125074,-0.0134 -0.06403,-0.0134 -0.13103,-0.0402 z"
           style="font-style:normal;font-variant:normal;font-weight:normal;font-stretch:normal;font-family:'Futura MdCn BT';-inkscape-font-specification:'Futura MdCn BT';fill:#9b4900;fill-opacity:1;stroke-width:0.12705928"
           id="path1601" />
        <path
           d="m 70.656528,282.37314 q 0,0.28141 0.04616,0.39458 0.04765,0.11167 0.156342,0.11167 0.108695,0 0.154854,-0.11167 0.04616,-0.11317 0.04616,-0.39458 0,-0.27993 -0.04616,-0.3916 -0.04616,-0.11317 -0.154854,-0.11317 -0.108695,0 -0.156342,0.11317 -0.04616,0.11167 -0.04616,0.3916 z m -0.259081,1.32072 v -2.04883 h 0.269504 v 0.13996 q 0.0536,-0.0864 0.123585,-0.12656 0.07147,-0.0402 0.165277,-0.0402 0.192078,0 0.282905,0.18463 0.09232,0.18314 0.09232,0.57028 0,0.38862 -0.09232,0.57325 -0.09083,0.18315 -0.282905,0.18315 -0.09232,0 -0.163788,-0.0417 -0.06998,-0.0417 -0.125074,-0.12806 v 0.73407 z"
           style="font-style:normal;font-variant:normal;font-weight:normal;font-stretch:normal;font-family:'Futura MdCn BT';-inkscape-font-specification:'Futura MdCn BT';fill:#9b4900;fill-opacity:1;stroke-width:0.12705928"
           id="path1603" />
        <path
           d="m 71.780706,282.21531 h 0.409468 v -0.0372 q 0,-0.18017 -0.04765,-0.26057 -0.04765,-0.0804 -0.153365,-0.0804 -0.102739,0 -0.156342,0.0968 -0.05211,0.0953 -0.05211,0.28142 z m 0.65366,0.40202 v 0.0194 q 0,0.23079 -0.11614,0.36331 -0.11614,0.13251 -0.317152,0.13251 -0.245681,0 -0.360332,-0.18165 -0.113162,-0.18314 -0.113162,-0.58368 0,-0.37671 0.113162,-0.56283 0.114651,-0.18612 0.345442,-0.18612 0.245681,0 0.354377,0.16974 0.108695,0.16825 0.108695,0.55241 v 0.0849 h -0.66855 v 0.0432 q 0,0.2293 0.05211,0.33353 0.05211,0.10274 0.165276,0.10274 0.09083,0 0.136986,-0.0715 0.04765,-0.0715 0.05211,-0.21441 z"
           style="font-style:normal;font-variant:normal;font-weight:normal;font-stretch:normal;font-family:'Futura MdCn BT';-inkscape-font-specification:'Futura MdCn BT';fill:#9b4900;fill-opacity:1;stroke-width:0.12705928"
           id="path1605" />
        <path
           d="m 72.623465,282.79749 q 0.05658,0.0491 0.111673,0.0745 0.05658,0.0238 0.114651,0.0238 0.08487,0 0.138475,-0.0506 0.0536,-0.0506 0.0536,-0.12954 0,-0.0938 -0.147408,-0.23377 -0.01936,-0.0193 -0.02978,-0.0283 -0.142942,-0.1355 -0.192078,-0.22483 -0.04914,-0.0893 -0.04914,-0.19655 0,-0.18463 0.113162,-0.30077 0.113162,-0.11614 0.293328,-0.11614 0.05956,0 0.11614,0.0149 0.05807,0.0149 0.114652,0.0447 v 0.27546 q -0.04318,-0.0506 -0.09529,-0.0745 -0.05062,-0.0238 -0.117629,-0.0238 -0.07445,0 -0.123585,0.0476 -0.04765,0.0477 -0.04765,0.12061 0,0.0968 0.141453,0.22632 0.02829,0.0253 0.04169,0.0387 0.132519,0.12209 0.183144,0.22037 0.05211,0.0983 0.05211,0.21888 0,0.18612 -0.113162,0.29779 -0.113162,0.11018 -0.302262,0.11018 -0.06105,0 -0.125074,-0.0134 -0.06403,-0.0134 -0.13103,-0.0402 z"
           style="font-style:normal;font-variant:normal;font-weight:normal;font-stretch:normal;font-family:'Futura MdCn BT';-inkscape-font-specification:'Futura MdCn BT';fill:#9b4900;fill-opacity:1;stroke-width:0.12705928"
           id="path1607" />
        <path
           d="m 73.716375,282.21531 h 0.409468 v -0.0372 q 0,-0.18017 -0.04765,-0.26057 -0.04765,-0.0804 -0.153365,-0.0804 -0.102739,0 -0.156342,0.0968 -0.05211,0.0953 -0.05211,0.28142 z m 0.65366,0.40202 v 0.0194 q 0,0.23079 -0.11614,0.36331 -0.11614,0.13251 -0.317152,0.13251 -0.245681,0 -0.360332,-0.18165 -0.113162,-0.18314 -0.113162,-0.58368 0,-0.37671 0.113162,-0.56283 0.114651,-0.18612 0.345442,-0.18612 0.245681,0 0.354377,0.16974 0.108695,0.16825 0.108695,0.55241 v 0.0849 h -0.66855 v 0.0432 q 0,0.2293 0.05211,0.33353 0.05211,0.10274 0.165276,0.10274 0.09083,0 0.136986,-0.0715 0.04765,-0.0715 0.05211,-0.21441 z"
           style="font-style:normal;font-variant:normal;font-weight:normal;font-stretch:normal;font-family:'Futura MdCn BT';-inkscape-font-specification:'Futura MdCn BT';fill:#9b4900;fill-opacity:1;stroke-width:0.12705928"
           id="path1609" />
      </g>
    </g>
  </g>
</svg>
