<?xml version="1.0" encoding="UTF-8" standalone="no"?>
<!-- Created with Inkscape (http://www.inkscape.org/) -->

<svg
   xmlns:dc="http://purl.org/dc/elements/1.1/"
   xmlns:cc="http://creativecommons.org/ns#"
   xmlns:rdf="http://www.w3.org/1999/02/22-rdf-syntax-ns#"
   xmlns:svg="http://www.w3.org/2000/svg"
   xmlns="http://www.w3.org/2000/svg"
   xmlns:sodipodi="http://sodipodi.sourceforge.net/DTD/sodipodi-0.dtd"
   xmlns:inkscape="http://www.inkscape.org/namespaces/inkscape"
   width="50"
   height="30"
   viewBox="0 0 13.229166 7.9375"
   version="1.1"
   id="svg2957"
   inkscape:version="0.92.2 5c3e80d, 2017-08-06"
   sodipodi:docname="reimbursment_edit_icon.svg">
  <defs
     id="defs2951" />
  <sodipodi:namedview
     id="base"
     pagecolor="#ffffff"
     bordercolor="#666666"
     borderopacity="1.0"
     inkscape:pageopacity="0.0"
     inkscape:pageshadow="2"
     inkscape:zoom="9.0553911"
     inkscape:cx="4.0970069"
     inkscape:cy="18.671343"
     inkscape:document-units="px"
     inkscape:current-layer="g3936"
     showgrid="false"
     units="px"
     inkscape:showpageshadow="false"
     inkscape:window-width="1920"
     inkscape:window-height="1035"
     inkscape:window-x="0"
     inkscape:window-y="1"
     inkscape:window-maximized="1" />
  <metadata
     id="metadata2954">
    <rdf:RDF>
      <cc:Work
         rdf:about="">
        <dc:format>image/svg+xml</dc:format>
        <dc:type
           rdf:resource="http://purl.org/dc/dcmitype/StillImage" />
        <dc:title></dc:title>
      </cc:Work>
    </rdf:RDF>
  </metadata>
  <g
     inkscape:label="Livello 1"
     inkscape:groupmode="layer"
     id="layer1"
     transform="translate(0,-289.06248)">
    <g
       id="g3936"
       transform="matrix(0.06444444,0,0,0.06444444,21.814264,291.38061)">
      <path
         id="path3645"
         d="M -155.47776,-22.011915 V 1.8005848 c 0,2.19075 -1.778,3.9687499 -3.96874,3.9687499 h -127.52917 c -2.19075,0 -3.96875,-1.7779999 -3.96875,-3.9687499 V -22.011915 c 0,-2.19075 1.778,-3.96875 3.96875,-3.96875 h 127.52917 c 2.19074,0 3.96874,1.778 3.96874,3.96875 z"
         inkscape:connector-curvature="0"
         style="fill:#7ed8f6;stroke-width:0.26458332" />
      <path
         id="path3647"
         d="M -155.47776,-22.011915 V 1.8005848 c 0,2.19075 -1.778,3.9687499 -3.96874,3.9687499 h -63.76459 V -25.980665 h 63.76459 c 2.19074,0 3.96874,1.778 3.96874,3.96875 z"
         inkscape:connector-curvature="0"
         style="fill:#68d2f4;fill-opacity:1;stroke-width:0.26458332" />
      <path
         id="path3649"
         d="M -155.47776,1.8005848 V 81.175584 c 0,2.19075 -1.778,3.96875 -3.96874,3.96875 h -127.52917 c -2.19075,0 -3.96875,-1.778 -3.96875,-3.96875 V 1.8005848 Z"
         inkscape:connector-curvature="0"
         style="fill:#f0f7ff;stroke-width:0.26458332" />
      <path
         id="path3651"
         d="M -155.47776,1.8005848 V 81.175584 c 0,2.19075 -1.778,3.96875 -3.96874,3.96875 h -63.76459 V 1.8005848 Z"
         inkscape:connector-curvature="0"
         style="fill:#e8f3ff;fill-opacity:1;stroke-width:0.26458332" />
      <path
         style="fill:#61729b;stroke-width:0.26458332"
         inkscape:connector-curvature="0"
         d="m -262.89859,-10.105665 c -2.19181,0 -3.96875,-1.776942 -3.96875,-3.96875 v -15.875 c 0,-2.191808 1.77694,-3.96875 3.96875,-3.96875 2.19181,0 3.96875,1.776942 3.96875,3.96875 v 15.875 c 0,2.191808 -1.77694,3.96875 -3.96875,3.96875 z"
         id="path3669" />
      <path
         style="fill:#61729b;fill-opacity:1;stroke-width:0.26458332"
         inkscape:connector-curvature="0"
         d="m -183.52359,-10.105665 c -2.19181,0 -3.96875,-1.776942 -3.96875,-3.96875 v -15.875 c 0,-2.191808 1.77694,-3.96875 3.96875,-3.96875 2.19181,0 3.96875,1.776942 3.96875,3.96875 v 15.875 c 0,2.191808 -1.77694,3.96875 -3.96875,3.96875 z"
         id="path3673" />
      <g
         id="g4303"
         transform="translate(6.4383964)"
         style="fill:#ffcc00">
        <g
           transform="matrix(1.1430083,0,0,1.1430083,220.53648,44.743699)"
           id="g3912"
           style="font-style:normal;font-variant:normal;font-weight:normal;font-stretch:normal;font-size:28.10739517px;line-height:1.25;font-family:Mandatory;-inkscape-font-specification:Mandatory;letter-spacing:0px;word-spacing:0px;fill:#ffcc00;fill-opacity:1;stroke:none;stroke-width:1.05402732"
           aria-label="€">
          <path
             id="path3910"
             style="fill:#ffcc00;fill-opacity:1;stroke-width:1.05402732"
             d="m -428.44309,18.733243 c 0.0281,1.039974 -0.47783,1.574014 -1.48969,1.574014 h -2.38913 c -0.98376,0 -1.46159,-0.449718 -1.46159,-1.349155 v -1.855088 h 2.44535 l 1.1524,-2.529666 h -3.59775 v -2.248591 h 4.60962 l 1.1524,-2.5296657 h -5.76202 v -2.417236 c 0,-0.927544 0.47783,-1.4053698 1.46159,-1.4053698 h 6.01498 l 1.79888,-3.9350353 h -9.13491 c -2.50156,0 -4.07557,1.8831955 -4.07557,4.4690759 v 3.2885652 h -1.82698 v 2.5296657 h 1.82698 v 2.248591 h -1.82698 v 2.529666 h 1.82698 v 2.670203 c 0,2.670202 1.5178,4.469075 4.13179,4.469075 h 4.91879 c 1.32105,0 2.36102,-0.421611 3.09181,-1.29294 0.70269,-0.815114 1.06809,-1.883195 1.06809,-3.23235 z"
             inkscape:connector-curvature="0" />
        </g>
        <path
           sodipodi:nodetypes="sssssss"
           id="path3918"
           d="m -243.74375,59.762681 c 0,-3.168414 2.56869,-5.737103 5.73711,-5.737103 h 32.16887 c 3.16841,0 5.7371,2.568689 5.7371,5.737103 0,3.168413 -2.56869,5.737103 -5.7371,5.737103 h -32.16887 c -3.16842,0 -5.73711,-2.56869 -5.73711,-5.737103 z"
           inkscape:connector-curvature="0"
           style="fill:#ffcc00;stroke-width:0.38247353" />
      </g>
      <path
         style="fill:#ff0000;fill-opacity:1;stroke-width:0.2383429"
         inkscape:connector-curvature="0"
         d="m -149.43169,-1.53476 -10.11203,10.11203 12.64004,12.640044 c 1.39546,1.395461 3.66056,1.39546 5.05602,-2e-6 l 7.58402,-7.584022 c 1.39547,-1.39546 1.39546,-3.66056 0,-5.05602 l -10.11203,-10.11203 c -1.39546,-1.39546 -3.66055,-1.39546 -5.05602,0 z"
         id="path4200" />
      <path
         style="fill:#d40000;fill-opacity:1;stroke-width:0.2383429"
         inkscape:connector-curvature="0"
         d="m -149.43169,-1.53476 -10.11203,10.11203 7.58403,7.58403 12.64004,-12.64004 -5.05602,-5.05602 c -1.39546,-1.39546 -3.66055,-1.39546 -5.05602,0 z"
         id="path4202" />
      <path
         style="fill:#ff0000;fill-opacity:1;stroke-width:0.2383429"
         inkscape:connector-curvature="0"
         d="m -146.90368,21.217314 c 1.39546,1.395461 1.39546,3.660556 0,5.056016 l -32.8641,32.864106 c -0.39269,0.392683 -0.87132,0.689303 -1.39715,0.864578 l -15.16805,5.056016 c -1.28422,0.428077 -2.70159,0.09269 -3.65887,-0.864578 -0.95727,-0.957273 -1.29265,-2.374643 -0.86458,-3.658871 l 5.05602,-15.168048 c 0.17528,-0.525826 0.4719,-1.004462 0.86458,-1.397146 L -159.54372,8.57727 Z"
         id="path4204" />
      <path
         style="fill:#d40000;fill-opacity:1;stroke-width:0.2383429"
         inkscape:connector-curvature="0"
         d="m -159.54372,8.57727 -35.39211,35.392117 c -0.39268,0.392684 -0.6893,0.87132 -0.86458,1.397146 l -5.05602,15.168048 c -0.42807,1.284228 -0.0927,2.701598 0.86458,3.658871 L -151.95969,16.1613 Z"
         id="path4206" />
      <g
         id="g4210"
         transform="matrix(-0.16853387,-0.16853387,-0.16853387,0.16853387,-108.64649,3.18419)"
         style="fill:#ff5555;fill-opacity:1">
        <path
           style="fill:#ff5555;fill-opacity:1"
           inkscape:connector-curvature="0"
           d="m 195,167 c 0,8.28 -6.72,15 -15,15 H 45 v -30 h 135 c 8.28,0 15,6.72 15,15 z"
           id="path4208" />
      </g>
      <path
         style="fill:#d40000;fill-opacity:1;stroke-width:0.2383429"
         inkscape:connector-curvature="0"
         d="m -169.65575,-1.53476 c -1.39546,1.39546 -1.39546,3.66056 0,5.05602 l 15.16805,15.16805 5.05601,-5.05602 -15.16804,-15.16805 c -1.39546,-1.39546 -3.66056,-1.39546 -5.05602,0 z"
         id="path4212" />
      <g
         id="g4220"
         transform="matrix(-0.16853387,-0.16853387,-0.16853387,0.16853387,-108.64649,3.18419)"
         style="fill:#ff5555;fill-opacity:1">
        <g
           id="g4218"
           style="fill:#ff5555;fill-opacity:1">
          <g
             id="g4216"
             style="fill:#ff5555;fill-opacity:1">
            <path
               style="fill:#ff5555;fill-opacity:1"
               inkscape:connector-curvature="0"
               d="m 195,137 v 120 c 0,8.28 -6.72,15 -15,15 -8.28,0 -15,-6.72 -15,-15 V 137 c 0,-8.28 6.72,-15 15,-15 8.28,0 15,6.72 15,15 z"
               id="path4214" />
          </g>
        </g>
      </g>
    </g>
  </g>
</svg>
