<?xml version="1.0" encoding="UTF-8" standalone="no"?>
<!-- Created with Inkscape (http://www.inkscape.org/) -->

<svg
   width="750"
   height="180"
   viewBox="0 0 198.4375 47.624999"
   version="1.1"
   id="svg1"
   inkscape:version="1.3.2 (091e20ef0f, 2023-11-25)"
   sodipodi:docname="main-logo.svg"
   xmlns:inkscape="http://www.inkscape.org/namespaces/inkscape"
   xmlns:sodipodi="http://sodipodi.sourceforge.net/DTD/sodipodi-0.dtd"
   xmlns="http://www.w3.org/2000/svg"
   xmlns:svg="http://www.w3.org/2000/svg">
  <sodipodi:namedview
     id="namedview1"
     pagecolor="#ffffff"
     bordercolor="#000000"
     borderopacity="0.25"
     inkscape:showpageshadow="false"
     inkscape:pageopacity="0.0"
     inkscape:pagecheckerboard="0"
     inkscape:deskcolor="#d1d1d1"
     inkscape:document-units="px"
     inkscape:zoom="5.024"
     inkscape:cx="604.69745"
     inkscape:cy="177.64729"
     inkscape:window-width="2528"
     inkscape:window-height="1404"
     inkscape:window-x="2592"
     inkscape:window-y="0"
     inkscape:window-maximized="1"
     inkscape:current-layer="layer1" />
  <defs
     id="defs1" />
  <g
     inkscape:label="Livello 1"
     inkscape:groupmode="layer"
     id="layer1">
    <path
       d="m 192.24666,38.834838 c -0.43229,0 -0.78367,0.176204 -1.0542,0.527617 l -0.0336,-0.443901 h -1.10846 v 4.526856 h 1.18391 v -3.288172 c 0.11993,-0.223119 0.28703,-0.334863 0.50178,-0.334863 0.17292,0 0.30267,0.05184 0.38912,0.155029 0.0893,0.100404 0.13384,0.294094 0.13384,0.58136 v 2.886646 h 1.18391 v -2.878378 c 0,-0.641468 -0.11174,-1.090617 -0.33486,-1.347204 -0.22033,-0.256588 -0.50724,-0.38499 -0.86145,-0.38499 z"
       style="font-weight:bold;font-size:8.56779px;font-family:'Roboto Condensed';-inkscape-font-specification:'Roboto Condensed,  Bold';letter-spacing:0px;fill:#0d7474;stroke-width:2.40969;stroke-linecap:square;stroke-linejoin:round"
       id="path50" />
    <path
       d="m 187.50638,38.834838 c -0.5578,0 -1.0024,0.189655 -1.33428,0.568958 -0.32911,0.376514 -0.49351,0.920749 -0.49351,1.631942 v 0.297139 c 0,0.711193 0.16575,1.254911 0.49764,1.631425 0.33189,0.376514 0.77834,0.564824 1.33894,0.564824 0.55779,0 1.00104,-0.18831 1.33015,-0.564824 0.33188,-0.376514 0.49764,-0.920232 0.49764,-1.631425 v -0.297139 c 0,-0.711193 -0.16576,-1.255428 -0.49764,-1.631942 -0.32911,-0.379303 -0.77556,-0.568958 -1.33894,-0.568958 z m 0,0.983403 c 0.43508,0 0.65268,0.4059 0.65268,1.217497 v 0.37207 c -0.0139,0.758605 -0.22833,1.137915 -0.64389,1.137915 -0.43509,0 -0.65268,-0.404039 -0.65268,-1.212846 V 40.96029 c 0.0139,-0.761394 0.22833,-1.142049 0.64389,-1.142049 z"
       style="font-weight:bold;font-size:8.56779px;font-family:'Roboto Condensed';-inkscape-font-specification:'Roboto Condensed,  Bold';letter-spacing:0px;fill:#0d7474;stroke-width:2.40969;stroke-linecap:square;stroke-linejoin:round"
       id="path49" />
    <path
       d="m 183.70403,38.918554 v 4.526856 h 1.18804 v -4.526856 z"
       style="font-weight:bold;font-size:8.56779px;font-family:'Roboto Condensed';-inkscape-font-specification:'Roboto Condensed,  Bold';letter-spacing:0px;fill:#0d7474;stroke-width:2.40969;stroke-linecap:square;stroke-linejoin:round"
       id="path51" />
    <path
       d="m 184.29779,37.115564 c -0.19802,0 -0.3557,0.05991 -0.47284,0.179834 -0.11714,0.117137 -0.1757,0.268095 -0.1757,0.452168 0,0.181285 0.0586,0.331726 0.1757,0.451652 0.11714,0.117138 0.27482,0.1757 0.47284,0.1757 0.19524,0 0.35157,-0.05856 0.46871,-0.1757 0.11714,-0.119926 0.1757,-0.270367 0.1757,-0.451652 0,-0.184073 -0.0586,-0.335031 -0.1757,-0.452168 -0.11714,-0.119927 -0.27347,-0.179834 -0.46871,-0.179834 z"
       style="font-weight:bold;font-size:8.56779px;font-family:'Roboto Condensed';-inkscape-font-specification:'Roboto Condensed,  Bold';letter-spacing:0px;fill:#0d7474;stroke-width:2.40969;stroke-linecap:square;stroke-linejoin:round"
       id="path39" />
    <path
       d="m 181.21478,37.801827 v 1.116727 h -0.5271 v 0.891419 h 0.5271 v 2.376082 c 0,0.482496 0.1045,0.827144 0.31367,1.033529 0.20918,0.206385 0.48937,0.309542 0.84078,0.309542 0.24543,0 0.46437,-0.03787 0.65681,-0.113172 l 0.004,-0.924491 c -0.0781,0.02231 -0.17131,0.03359 -0.28009,0.03359 -0.12827,0 -0.22067,-0.03062 -0.27647,-0.09198 -0.053,-0.06136 -0.0791,-0.18707 -0.0791,-0.376721 v -2.246374 h 0.60668 v -0.891419 h -0.60668 v -1.116727 z"
       style="font-weight:bold;font-size:8.56779px;font-family:'Roboto Condensed';-inkscape-font-specification:'Roboto Condensed,  Bold';letter-spacing:0px;fill:#0d7474;stroke-width:2.40969;stroke-linecap:square;stroke-linejoin:round"
       id="path43" />
    <path
       d="m 178.59582,38.834838 c -0.5076,0 -0.91215,0.14237 -1.21337,0.426848 -0.29842,0.281688 -0.44752,0.620438 -0.44752,1.016475 h 1.18391 c 0,-0.345835 0.14775,-0.518314 0.44339,-0.518314 0.27332,0 0.41031,0.185102 0.41031,0.556038 v 0.364319 h -0.31833 c -0.608,0 -1.05984,0.135127 -1.35547,0.40566 -0.29564,0.267743 -0.44339,0.631739 -0.44339,1.091923 0,0.409981 0.12706,0.737454 0.38086,0.982886 0.25658,0.245431 0.5674,0.368453 0.93276,0.368453 0.35978,0 0.64721,-0.145061 0.86196,-0.435116 0.0251,0.139449 0.0584,0.256574 0.10025,0.3514 h 1.19218 v -0.07131 c -0.10343,-0.209174 -0.15745,-0.514608 -0.16278,-0.916223 v -2.124935 c 0,-0.529908 -0.14961,-0.911908 -0.44804,-1.146183 -0.29563,-0.234276 -0.6677,-0.351917 -1.11672,-0.351917 z m 0.0961,2.552299 h 0.28061 v 0.941028 c -0.0446,0.07251 -0.11313,0.135626 -0.20516,0.188619 -0.092,0.05299 -0.20244,0.07906 -0.33073,0.07906 -0.26495,0 -0.39739,-0.167099 -0.39739,-0.501778 0,-0.198018 0.0532,-0.365634 0.15916,-0.502295 0.10598,-0.13666 0.27039,-0.204639 0.49351,-0.204639 z"
       style="font-weight:bold;font-size:8.56779px;font-family:'Roboto Condensed';-inkscape-font-specification:'Roboto Condensed,  Bold';letter-spacing:0px;fill:#0d7474;stroke-width:2.40969;stroke-linecap:square;stroke-linejoin:round"
       id="path48" />
    <path
       d="m 176.19028,38.834838 c -0.32632,0 -0.58446,0.191517 -0.77412,0.573609 l -0.0331,-0.489893 h -1.11724 v 4.526856 h 1.1839 v -2.995683 c 0.11156,-0.281688 0.33185,-0.422196 0.66095,-0.422196 0.11992,0 0.24967,0.01076 0.38912,0.03307 l 0.0124,-1.175122 c -0.0865,-0.03347 -0.19365,-0.05064 -0.32194,-0.05064 z"
       style="font-weight:bold;font-size:8.56779px;font-family:'Roboto Condensed';-inkscape-font-specification:'Roboto Condensed,  Bold';letter-spacing:0px;fill:#0d7474;stroke-width:2.40969;stroke-linecap:square;stroke-linejoin:round"
       id="path47" />
    <path
       d="m 171.86858,38.834838 c -0.56896,0 -1.01356,0.189655 -1.33429,0.568958 -0.31794,0.376514 -0.47697,0.932027 -0.47697,1.665531 v 0.372071 c 0,0.655413 0.1671,1.167159 0.50178,1.535306 0.33746,0.368147 0.81455,0.552422 1.43092,0.552422 0.38767,0 0.70976,-0.07253 0.96635,-0.217558 0.25937,-0.145027 0.44903,-0.298675 0.56895,-0.460437 l -0.4687,-0.715202 c -0.25937,0.273321 -0.5882,0.409794 -0.98702,0.409794 -0.2538,0 -0.45204,-0.07118 -0.59428,-0.213424 -0.13946,-0.145027 -0.21603,-0.397279 -0.22996,-0.757059 h 2.34714 v -0.58136 c -0.006,-0.71956 -0.15198,-1.259243 -0.43925,-1.619023 -0.28726,-0.35978 -0.71572,-0.540019 -1.28467,-0.540019 z m -0.004,0.983403 c 0.20638,0 0.35145,0.06984 0.43512,0.20929 0.0839,0.136661 0.12851,0.341628 0.13384,0.614949 v 0.104386 h -1.18391 c 0.0167,-0.326312 0.0713,-0.561906 0.1633,-0.706933 0.0948,-0.147817 0.24527,-0.221692 0.45165,-0.221692 z"
       style="font-weight:bold;font-size:8.56779px;font-family:'Roboto Condensed';-inkscape-font-specification:'Roboto Condensed,  Bold';letter-spacing:0px;fill:#0d7474;stroke-width:2.40969;stroke-linecap:square;stroke-linejoin:round"
       id="path46" />
    <path
       d="m 168.11635,38.834838 c -0.43229,0 -0.78366,0.176204 -1.0542,0.527617 l -0.0336,-0.443901 h -1.10897 v 4.526856 h 1.1839 v -3.288172 c 0.11993,-0.223119 0.28755,-0.334863 0.5023,-0.334863 0.17292,0 0.30266,0.05184 0.38912,0.155029 0.0892,0.100404 0.13384,0.294094 0.13384,0.58136 v 2.886646 h 1.18391 v -2.878378 c 0,-0.641468 -0.11174,-1.090617 -0.33486,-1.347204 -0.22034,-0.256588 -0.50725,-0.38499 -0.86145,-0.38499 z"
       style="font-weight:bold;font-size:8.56779px;font-family:'Roboto Condensed';-inkscape-font-specification:'Roboto Condensed,  Bold';letter-spacing:0px;fill:#0d7474;stroke-width:2.40969;stroke-linecap:square;stroke-linejoin:round"
       id="path45" />
    <path
       d="m 163.54764,38.834838 c -0.56895,0 -1.01355,0.189655 -1.33429,0.568958 -0.31794,0.376514 -0.47697,0.93151 -0.47697,1.665015 v 0.372587 c 0,0.655413 0.1671,1.167159 0.50178,1.535306 0.33746,0.368147 0.81455,0.552422 1.43092,0.552422 0.38766,0 0.70976,-0.07253 0.96635,-0.217558 0.25938,-0.145027 0.44903,-0.298675 0.56895,-0.460437 l -0.4687,-0.715202 c -0.25938,0.273321 -0.58819,0.409794 -0.98702,0.409794 -0.2538,0 -0.45205,-0.07118 -0.59428,-0.213424 -0.13947,-0.145027 -0.21603,-0.397279 -0.22996,-0.757059 h 2.34714 v -0.58136 c -0.006,-0.71956 -0.15198,-1.259243 -0.43925,-1.619023 -0.28726,-0.35978 -0.71571,-0.540019 -1.28467,-0.540019 z m -0.004,0.983403 c 0.20639,0 0.35145,0.06984 0.43512,0.20929 0.0839,0.136661 0.12851,0.341628 0.13384,0.614949 v 0.104386 h -1.18391 c 0.0167,-0.326312 0.0713,-0.561906 0.1633,-0.706933 0.0948,-0.147817 0.24527,-0.221692 0.45165,-0.221692 z"
       style="font-weight:bold;font-size:8.56779px;font-family:'Roboto Condensed';-inkscape-font-specification:'Roboto Condensed,  Bold';letter-spacing:0px;fill:#0d7474;stroke-width:2.40969;stroke-linecap:square;stroke-linejoin:round"
       id="path44" />
    <path
       d="m 158.94999,37.266459 c -0.66378,0 -1.1895,0.214383 -1.57717,0.643888 -0.38766,0.429505 -0.58136,1.087657 -0.58136,1.974557 v 1.033528 c 0,0.884111 0.20228,1.540918 0.60668,1.970423 0.4072,0.426716 0.94957,0.640271 1.62729,0.640271 0.57175,0 1.01635,-0.09509 1.33429,-0.284738 0.31795,-0.189651 0.54143,-0.352715 0.66973,-0.489375 v -2.514059 h -2.10013 v 0.928626 h 0.86558 v 1.116727 l -0.22583,0.133842 c -0.0976,0.05857 -0.25478,0.08785 -0.47232,0.08785 -0.36257,0 -0.632,-0.119815 -0.80771,-0.359668 -0.1757,-0.242642 -0.26355,-0.652577 -0.26355,-1.229899 v -1.075386 c 0.003,-0.563376 0.0839,-0.963379 0.24288,-1.200444 0.15898,-0.237064 0.39726,-0.355534 0.71521,-0.355534 0.27332,0 0.47425,0.07253 0.60254,0.217558 0.13109,0.142239 0.21303,0.404424 0.2465,0.786515 h 1.19269 c -0.0474,-0.66099 -0.23303,-1.163321 -0.55655,-1.506368 -0.32353,-0.345835 -0.82989,-0.518314 -1.51877,-0.518314 z"
       style="font-weight:bold;font-size:8.56779px;font-family:'Roboto Condensed';-inkscape-font-specification:'Roboto Condensed,  Bold';letter-spacing:0px;fill:#0d7474;stroke-width:2.40969;stroke-linecap:square;stroke-linejoin:round"
       id="path41" />
    <path
       d="m 152.13076,37.266459 c -0.47413,0 -0.87817,0.151786 -1.21284,0.455786 -0.33189,0.301211 -0.49816,0.703076 -0.49816,1.205094 h 1.1839 c 0,-0.209174 0.0559,-0.3741 0.16744,-0.494026 0.11434,-0.122716 0.24543,-0.183969 0.39325,-0.183969 0.19523,0 0.34029,0.07388 0.43512,0.221692 0.0948,0.145028 0.14211,0.329302 0.14211,0.552421 0,0.25101 -0.0513,0.453287 -0.15451,0.606682 -0.10041,0.150605 -0.25944,0.225826 -0.47698,0.225826 H 151.537 v 0.958081 h 0.58136 c 0.46576,0.0028 0.69867,0.30367 0.69867,0.903304 0,0.24822 -0.0599,0.449153 -0.17984,0.602547 -0.11714,0.150605 -0.27751,0.225826 -0.4811,0.225826 -0.17571,0 -0.32077,-0.07253 -0.43512,-0.217558 -0.11435,-0.147816 -0.17157,-0.332918 -0.17157,-0.556038 h -1.1839 c 0,0.602422 0.18292,1.045673 0.54828,1.330151 0.36536,0.284477 0.7694,0.426848 1.21285,0.426848 0.52991,0 0.97502,-0.156339 1.3348,-0.468706 0.35978,-0.312367 0.5395,-0.754274 0.5395,-1.326017 0,-0.33189 -0.0712,-0.620666 -0.21342,-0.866097 -0.14224,-0.24822 -0.35528,-0.432494 -0.63975,-0.552421 0.24822,-0.136661 0.43922,-0.323626 0.57309,-0.560689 0.13666,-0.237065 0.20464,-0.487971 0.20464,-0.752926 0,-0.568954 -0.16575,-0.999583 -0.49765,-1.292427 -0.33189,-0.295633 -0.76438,-0.443384 -1.29708,-0.443384 z"
       style="font-weight:bold;font-size:8.56779px;font-family:'Roboto Condensed';-inkscape-font-specification:'Roboto Condensed,  Bold';letter-spacing:0px;fill:#0d7474;stroke-width:2.40969;stroke-linecap:square;stroke-linejoin:round"
       id="path40" />
    <path
       d="m 145.3286,37.354309 v 6.091101 h 1.23403 v -3.995105 l 1.79886,3.995105 h 1.22989 v -6.091101 h -1.22989 v 3.999239 l -1.79886,-3.999239 z"
       style="font-weight:bold;font-size:8.56779px;font-family:'Roboto Condensed';-inkscape-font-specification:'Roboto Condensed,  Bold';letter-spacing:0px;fill:#0d7474;stroke-width:2.40969;stroke-linecap:square;stroke-linejoin:round"
       id="path42" />
    <g
       id="g22"
       transform="matrix(5,0,0,5,4.9945291,1.6666666e-7)">
      <path
         d="M 34.045983,0.98650307 V 6.4218301 h 1.101225 V 4.4359049 h 0.545186 l 0.817521,1.9859252 h 1.179773 V 6.3696369 L 36.733674,4.1408324 c 0.246401,-0.1319115 0.439399,-0.3182327 0.578776,-0.5596557 0.139379,-0.241423 0.20929,-0.5591508 0.20929,-0.9523966 0,-0.5351129 -0.15214,-0.9418409 -0.455786,-1.2205973 C 36.762308,1.1269373 36.33936,0.98650307 35.796781,0.98650307 Z m 1.101225,0.91467283 h 0.671794 c 0.403201,0.00996 0.605131,0.2824083 0.605131,0.8175211 0,0.243912 -0.05482,0.4391659 -0.164332,0.5860108 -0.109511,0.144356 -0.27397,0.2165242 -0.492993,0.2165242 h -0.6196 z"
         style="font-weight:bold;font-size:7.6459px;font-family:'Roboto Condensed';-inkscape-font-specification:'Roboto Condensed,  Bold';letter-spacing:0px;fill:#0d7474;fill-opacity:1;stroke-width:2.15041;stroke-linecap:square;stroke-linejoin:round"
         id="path18" />
      <path
         d="m 31.294213,0.91157225 c -0.582402,0 -1.05401,0.20028445 -1.4149,0.60099685 -0.36089,0.3982236 -0.541053,0.9895325 -0.541053,1.7735352 v 0.903304 c 0,0.7665803 0.181291,1.3427976 0.54467,1.7285766 0.363379,0.3857791 0.836633,0.578776 1.419035,0.578776 0.584891,0 1.056499,-0.1929969 1.4149,-0.578776 C 33.075266,5.5322059 33.2543,4.9559886 33.2543,4.1894083 v -0.903304 c 0,-0.7840027 -0.180679,-1.3753116 -0.541569,-1.7735352 -0.36089,-0.4007124 -0.833627,-0.60099685 -1.418518,-0.60099685 z m 0,0.91829015 c 0.281245,0 0.495493,0.1124128 0.642338,0.3364136 0.146845,0.2240008 0.220142,0.5943862 0.220142,1.1120768 v 0.9374105 c -0.0025,0.482846 -0.07579,0.831369 -0.220142,1.0454142 -0.144356,0.2140451 -0.355829,0.3209106 -0.634586,0.3209106 -0.281245,0 -0.496622,-0.1085107 -0.645956,-0.3250448 C 30.509164,5.0380204 30.435868,4.6822099 30.435868,4.1894083 V 3.2488972 c 0.0025,-0.5052461 0.07578,-0.8677324 0.220141,-1.0867553 0.146845,-0.2215119 0.359448,-0.3322795 0.638204,-0.3322795 z"
         style="font-weight:bold;font-size:7.6459px;font-family:'Roboto Condensed';-inkscape-font-specification:'Roboto Condensed,  Bold';letter-spacing:0px;fill:#0d7474;fill-opacity:1;stroke-width:2.15041;stroke-linecap:square;stroke-linejoin:round"
         id="path12" />
      <path
         d="M 25.134383,0.98650307 V 1.9011759 h 1.321366 v 4.5206542 h 1.097607 V 1.9011759 h 1.347722 V 0.98650307 Z"
         style="font-weight:bold;font-size:7.6459px;font-family:'Roboto Condensed';-inkscape-font-specification:'Roboto Condensed,  Bold';letter-spacing:0px;fill:#0d7474;fill-opacity:1;stroke-width:2.15041;stroke-linecap:square;stroke-linejoin:round"
         id="path17" />
      <path
         d="M 20.803381,0.98650307 V 6.4218301 h 1.101741 v -3.565157 l 1.60507,3.565157 H 24.6078 V 0.98650307 H 23.510192 V 4.5552774 l -1.60507,-3.56877433 z"
         style="font-weight:bold;font-size:7.6459px;font-family:'Roboto Condensed';-inkscape-font-specification:'Roboto Condensed,  Bold';letter-spacing:0px;fill:#0d7474;fill-opacity:1;stroke-width:2.15041;stroke-linecap:square;stroke-linejoin:round"
         id="path16" />
      <path
         d="M 17.577738,0.98650307 15.879134,6.4218301 h 1.164787 l 0.291455,-1.1120768 h 1.497066 l 0.290938,1.1120768 h 1.168921 L 18.582328,0.98650307 Z M 18.0821,2.453597 18.593697,4.3950805 h -1.019576 z"
         style="font-weight:bold;font-size:7.6459px;font-family:'Roboto Condensed';-inkscape-font-specification:'Roboto Condensed,  Bold';letter-spacing:0px;fill:#0d7474;fill-opacity:1;stroke-width:2.15041;stroke-linecap:square;stroke-linejoin:round"
         id="path15" />
      <path
         d="M 12.003918,0.98650307 V 6.4218301 H 13.10566 V 4.4359049 h 0.544669 l 0.817521,1.9859252 h 1.179773 V 6.3696369 L 14.692126,4.1408324 c 0.246401,-0.1319115 0.439398,-0.3182327 0.578776,-0.5596557 0.139379,-0.241423 0.208773,-0.5591508 0.208773,-0.9523966 0,-0.5351129 -0.151624,-0.9418409 -0.455269,-1.2205973 C 14.720761,1.1269373 14.297812,0.98650307 13.755232,0.98650307 Z M 13.10566,1.9011759 h 0.671793 c 0.403201,0.00996 0.604615,0.2824083 0.604615,0.8175211 0,0.243912 -0.05482,0.4391659 -0.164331,0.5860108 -0.109512,0.144356 -0.273454,0.2165242 -0.492477,0.2165242 h -0.6196 z"
         style="font-weight:bold;font-size:7.6459px;font-family:'Roboto Condensed';-inkscape-font-specification:'Roboto Condensed,  Bold';letter-spacing:0px;fill:#0d7474;fill-opacity:1;stroke-width:2.15041;stroke-linecap:square;stroke-linejoin:round"
         id="path14" />
      <path
         d="M 7.6026366,0.98650307 V 1.9011759 H 8.9240029 V 6.4218301 H 10.02161 V 1.9011759 h 1.347722 V 0.98650307 Z"
         style="font-weight:bold;font-size:7.6459px;font-family:'Roboto Condensed';-inkscape-font-specification:'Roboto Condensed,  Bold';letter-spacing:0px;fill:#0d7474;fill-opacity:1;stroke-width:2.15041;stroke-linecap:square;stroke-linejoin:round"
         id="path13" />
      <path
         id="path2"
         style="fill:#0d7474;fill-opacity:1;stroke-linecap:square;stroke-linejoin:round"
         d="M 3.7052001,0 C 1.663834,-3.6735316e-8 -3.6735316e-8,1.663834 0,3.7052001 c 0,2.0413663 1.663834,3.7031332 3.7052001,3.7031331 2.0413663,0 3.7031331,-1.6617668 3.7031331,-3.7031331 C 7.4083333,1.663834 5.7465664,0 3.7052001,0 Z m 0,0.7400065 c 1.3152566,0 2.424194,0.8501913 2.813265,2.0324341 C 5.32591,2.3193684 4.3301115,1.69301 3.7052001,0.7400065 Z"
         sodipodi:nodetypes="sssssccc" />
    </g>
  </g>
</svg>
