<?xml version="1.0" encoding="UTF-8" standalone="no"?>
<!-- Created with Inkscape (http://www.inkscape.org/) -->

<svg
   width="348"
   height="54"
   viewBox="0 0 92.074998 14.2875"
   version="1.1"
   id="svg1"
   inkscape:version="1.3.2 (091e20ef0f, 2023-11-25)"
   sodipodi:docname="reason-logo-new.svg"
   xml:space="preserve"
   xmlns:inkscape="http://www.inkscape.org/namespaces/inkscape"
   xmlns:sodipodi="http://sodipodi.sourceforge.net/DTD/sodipodi-0.dtd"
   xmlns="http://www.w3.org/2000/svg"
   xmlns:svg="http://www.w3.org/2000/svg"><sodipodi:namedview
     id="namedview1"
     pagecolor="#ffffff"
     bordercolor="#000000"
     borderopacity="0.25"
     inkscape:showpageshadow="false"
     inkscape:pageopacity="0.0"
     inkscape:pagecheckerboard="0"
     inkscape:deskcolor="#d1d1d1"
     inkscape:document-units="px"
     inkscape:zoom="14.71875"
     inkscape:cx="54.012739"
     inkscape:cy="22.590233"
     inkscape:window-width="2528"
     inkscape:window-height="1404"
     inkscape:window-x="2592"
     inkscape:window-y="0"
     inkscape:window-maximized="1"
     inkscape:current-layer="layer1" /><defs
     id="defs1"><style
       id="style1">.cls-1{fill:#ffffff;}.cls-2{fill:#e5e5e5;}.cls-3{fill:#426572;}.cls-4{fill:#fbc907;}.cls-5{fill:#f3a70f;}.cls-6{fill:#f9f9f9;}.cls-7{opacity:0.5;}.cls-8{fill:#7490a8;}</style></defs><g
     inkscape:label="Livello 1"
     inkscape:groupmode="layer"
     id="layer1"><path
       d="m 29.066443,5.8750935 1.090889,3.9754679 h 0.995805 L 32.244543,5.8750935 H 31.160372 L 30.66066,8.3772663 30.153715,5.8750935 Z"
       style="font-weight:bold;font-size:7.52446px;font-family:'Roboto Condensed';-inkscape-font-specification:'Roboto Condensed,  Bold';letter-spacing:0px;fill:#1d9c22;stroke-width:2.11625;stroke-linecap:square;stroke-linejoin:round"
       id="path66" /><path
       d="m 21.935095,5.8750935 v 2.571936 c 0,0.5241644 0.102761,0.9014734 0.308508,1.1317139 0.205747,0.2302404 0.47277,0.3451985 0.800985,0.3451985 0.364956,0 0.655203,-0.146876 0.870748,-0.4407999 l 0.02584,0.3674194 h 0.977201 V 5.8750935 h -1.043347 v 2.8695923 c -0.105322,0.2057467 -0.278277,0.3085083 -0.518314,0.3085083 -0.254735,0 -0.381889,-0.2020192 -0.381889,-0.6061646 v -2.571936 z"
       style="font-weight:bold;font-size:7.52446px;font-family:'Roboto Condensed';-inkscape-font-specification:'Roboto Condensed,  Bold';letter-spacing:0px;fill:#1d9c22;stroke-width:2.11625;stroke-linecap:square;stroke-linejoin:round"
       id="path65" /><path
       d="m 34.162255,5.801713 c -0.489872,0 -0.880546,0.1665973 -1.172021,0.4997111 -0.289025,0.3306644 -0.433565,0.8083991 -0.433565,1.4329874 v 0.2604493 c 0,0.6245883 0.145708,1.102323 0.437182,1.4329874 0.291475,0.3306644 0.683317,0.4960937 1.175639,0.4960937 0.489874,0 0.879379,-0.1654293 1.168404,-0.4960937 0.291475,-0.3306644 0.437183,-0.8083991 0.437183,-1.4329874 V 7.7344115 c 0,-0.6245883 -0.145708,-1.102323 -0.437183,-1.4329874 C 35.048869,5.9683103 34.657028,5.801713 34.162255,5.801713 Z m 0,0.8635132 c 0.382101,0 0.573092,0.3564198 0.573092,1.0691853 v 0.3265951 c -0.01225,0.6662275 -0.200901,0.9994222 -0.565857,0.9994222 -0.382101,0 -0.573091,-0.355252 -0.573091,-1.065568 V 7.6682657 C 33.608645,6.9995888 33.7973,6.6652262 34.162255,6.6652262 Z"
       style="font-weight:bold;font-size:7.52446px;font-family:'Roboto Condensed';-inkscape-font-specification:'Roboto Condensed,  Bold';letter-spacing:0px;fill:#1d9c22;stroke-width:2.11625;stroke-linecap:square;stroke-linejoin:round"
       id="path64" /><path
       d="m 27.14873,5.801713 c -0.489873,0 -0.881064,0.1665973 -1.172538,0.4997111 -0.289025,0.3306644 -0.433049,0.8083991 -0.433049,1.4329874 v 0.2604493 c 0,0.6245883 0.145709,1.102323 0.437183,1.4329874 0.291474,0.3306644 0.683316,0.4960937 1.175639,0.4960937 0.489873,0 0.879378,-0.1654293 1.168404,-0.4960937 0.291474,-0.3306644 0.437183,-0.8083991 0.437183,-1.4329874 V 7.7344115 c 0,-0.6245883 -0.145709,-1.102323 -0.437183,-1.4329874 C 28.035343,5.9683103 27.643502,5.801713 27.14873,5.801713 Z m 0,0.8635132 c 0.382101,0 0.573092,0.3564198 0.573092,1.0691853 v 0.3265951 c -0.01225,0.6662275 -0.200901,0.9994222 -0.565857,0.9994222 -0.382101,0 -0.573092,-0.355252 -0.573092,-1.065568 V 7.6682657 C 26.59512,6.9995888 26.783775,6.6652262 27.14873,6.6652262 Z"
       style="font-weight:bold;font-size:7.52446px;font-family:'Roboto Condensed';-inkscape-font-specification:'Roboto Condensed,  Bold';letter-spacing:0px;fill:#1d9c22;stroke-width:2.11625;stroke-linecap:square;stroke-linejoin:round"
       id="path63" /><path
       d="m 17.401005,4.5010172 v 5.3495442 h 1.084171 V 6.3417317 l 1.579749,3.5088297 h 1.080037 V 4.5010172 H 20.064925 V 8.0134643 L 18.485176,4.5010172 Z"
       style="font-weight:bold;font-size:7.52446px;font-family:'Roboto Condensed';-inkscape-font-specification:'Roboto Condensed,  Bold';letter-spacing:0px;fill:#1d9c22;stroke-width:2.11625;stroke-linecap:square;stroke-linejoin:round"
       id="path62" /><rect
       class="cls-1"
       height="12.579011"
       rx="1.3074983"
       ry="1.3074983"
       width="9.5241079"
       x="1.6534376"
       y="0.96691668"
       id="rect1"
       style="stroke-width:0.03594" /><path
       class="cls-2"
       d="m 1.554962,12.251727 v -0.796791 a 1.3509857,1.3509857 0 0 0 1.3509857,1.351345 h 7.0083058 a 1.3509857,1.3509857 0 0 0 1.3499075,-1.351345 v 0.796072 A 1.3509857,1.3509857 0 0 1 9.9131753,13.601994 H 2.9048695 A 1.3509857,1.3509857 0 0 1 1.554962,12.251727 Z"
       id="path1"
       style="stroke-width:0.03594" /><path
       class="cls-3"
       d="M 9.9426462,13.758333 H 2.9343403 A 1.5684229,1.5684229 0 0 1 1.3687926,12.192066 V 2.095793 A 1.5684229,1.5684229 0 0 1 2.9354185,0.52916711 H 9.9437244 A 1.5684229,1.5684229 0 0 1 11.51035,2.095793 V 4.9497908 H 11.07907 V 2.095793 A 1.1364237,1.1364237 0 0 0 9.9426462,0.96044747 H 2.9343403 A 1.1364237,1.1364237 0 0 0 1.800073,2.095793 v 10.096273 a 1.1364237,1.1364237 0 0 0 1.1353455,1.135346 H 9.9437244 A 1.1364237,1.1364237 0 0 0 11.07907,12.192066 V 10.58986 h 0.43128 v 1.602206 a 1.5684229,1.5684229 0 0 1 -1.5677038,1.566267 z"
       id="path2"
       style="fill:#0d7474;fill-opacity:1;stroke-width:0.03594" /><rect
       class="cls-3"
       height="0.43128037"
       width="3.3064828"
       x="3.4339068"
       y="6.3669057"
       id="rect6"
       style="fill:#0d7474;fill-opacity:1;stroke-width:0.03594" /><rect
       class="cls-3"
       height="0.43128037"
       width="3.3064828"
       x="3.4339068"
       y="7.4077296"
       id="rect7"
       style="fill:#0d7474;fill-opacity:1;stroke-width:0.03594" /><rect
       class="cls-3"
       height="0.43128037"
       width="3.3064828"
       x="3.4339068"
       y="8.4489117"
       id="rect8"
       style="fill:#0d7474;fill-opacity:1;stroke-width:0.03594" /><g
       class="cls-7"
       id="g13"
       transform="matrix(0.03594003,0,0,0.03594003,1.3687926,0.52916711)"><path
         class="cls-8"
         d="m 38,35.95 h 34.77 c 3.86,0 3.87,-6 0,-6 H 38 c -3.86,0 -3.87,6 0,6 z"
         id="path12" /><path
         class="cls-8"
         d="m 87.17,35.95 h 86.34 c 3.86,0 3.87,-6 0,-6 H 87.17 c -3.86,0 -3.87,6 0,6 z"
         id="path13" /></g><path
       d="M 7.9938272,2.7683065 V 4.7857543 H 9.4252644 V 4.1315307 H 8.7198811 V 2.7683065 Z"
       style="font-size:2.82223px;font-family:'Futura XBlk BT';-inkscape-font-specification:'Futura XBlk BT';letter-spacing:0px;fill:#0d7474;stroke-width:0.79375;stroke-linecap:square;stroke-linejoin:round"
       id="path20" /><path
       d="M 6.865214,2.7683065 V 4.7857543 H 7.6021199 V 2.7683065 Z"
       style="font-size:2.82223px;font-family:'Futura XBlk BT';-inkscape-font-specification:'Futura XBlk BT';letter-spacing:0px;fill:#0d7474;stroke-width:0.79375;stroke-linecap:square;stroke-linejoin:round"
       id="path19" /><path
       d="m 5.5050903,2.7228312 c -0.1525032,0 -0.2944406,0.026068 -0.4258138,0.077515 -0.1313732,0.051447 -0.247128,0.1259755 -0.3472656,0.2242758 -0.099219,0.097382 -0.1750111,0.2103802 -0.2273763,0.3389973 -0.051447,0.1276985 -0.077515,0.2668798 -0.077515,0.4175456 0,0.1497471 0.026068,0.2888136 0.077515,0.4165121 0.051447,0.1276984 0.1272387,0.2408119 0.2273763,0.3400309 0.1010563,0.099219 0.2168111,0.1748957 0.3472656,0.2263427 0.1313732,0.050528 0.2733106,0.075448 0.4258138,0.075448 0.2067061,0 0.3913626,-0.045475 0.5539713,-0.1364257 0.1626089,-0.091869 0.2950149,-0.2241606 0.3979086,-0.396875 0.04226,-0.073495 0.074588,-0.1576708 0.096635,-0.2532146 0.022049,-0.095544 0.033073,-0.2015378 0.033073,-0.3172932 0,-0.015618 -6.303e-4,-0.033532 -0.00155,-0.053744 -9.133e-4,-0.020211 -0.00229,-0.050643 -0.00413,-0.091984 H 5.466333 V 4.063835 H 5.782076 C 5.773806,4.116201 5.747625,4.15691 5.703528,4.1863081 5.660349,4.2157061 5.60385,4.2307501 5.5340293,4.2307501 c -0.1175928,0 -0.208543,-0.039217 -0.2728516,-0.1173055 -0.064309,-0.079008 -0.096635,-0.189882 -0.096635,-0.3322795 0,-0.137804 0.031695,-0.2474151 0.095085,-0.3291789 0.064309,-0.081764 0.1503783,-0.1224731 0.2578654,-0.1224731 0.061553,0 0.1160422,0.01378 0.1638143,0.041341 0.047772,0.027561 0.088482,0.069017 0.1224732,0.125057 L 6.4502522,3.256132 C 6.3482772,3.0815801 6.2167325,2.9492889 6.055961,2.859257 5.8951897,2.7683063 5.7117964,2.7228312 5.5050903,2.7228312 Z"
       style="font-size:2.82223px;font-family:'Futura XBlk BT';-inkscape-font-specification:'Futura XBlk BT';letter-spacing:0px;fill:#0d7474;stroke-width:0.79375;stroke-linecap:square;stroke-linejoin:round"
       id="path7" /><path
       d="m 3.7036499,2.7202474 c -0.1534219,0 -0.2961057,0.025551 -0.4283977,0.076998 -0.1313732,0.050528 -0.2471279,0.1255735 -0.3472656,0.2247924 -0.099219,0.0983 -0.175011,0.2119306 -0.2273763,0.3405477 -0.051447,0.1286172 -0.076998,0.2679133 -0.076998,0.4185791 0,0.20395 0.045475,0.3844724 0.1364258,0.541569 0.091869,0.1570967 0.2269166,0.2872634 0.4051432,0.3901571 0.073496,0.040423 0.1555461,0.071486 0.2464966,0.093534 0.090951,0.022049 0.1854034,0.033073 0.2837036,0.033073 0.079008,0 0.1581872,-0.00827 0.2371949,-0.024805 0.079008,-0.015618 0.1581871,-0.03916 0.2371948,-0.071313 l 0.023254,-0.7596436 c -0.085438,0.065227 -0.1646181,0.1133434 -0.2371948,0.1436605 -0.071658,0.029398 -0.1420527,0.043925 -0.2118734,0.043925 -0.1157554,0 -0.2080837,-0.035197 -0.2769857,-0.1059367 C 3.3980697,3.9946454 3.3636189,3.899676 3.3636189,3.7811645 c 0,-0.1212676 0.035829,-0.2178447 0.107487,-0.2904215 0.072577,-0.073495 0.1677759,-0.1105876 0.2862875,-0.1105876 0.076251,0 0.1491724,0.01579 0.2180745,0.047026 0.068902,0.031235 0.1364257,0.07872 0.2025716,0.1421101 V 2.8220499 C 4.1027066,2.7880586 4.0249051,2.763139 3.9449788,2.7466023 3.8659711,2.729147 3.7854137,2.7202474 3.7036499,2.7202474 Z"
       style="font-size:2.82223px;font-family:'Futura XBlk BT';-inkscape-font-specification:'Futura XBlk BT';letter-spacing:0px;fill:#0d7474;stroke-width:0.79375;stroke-linecap:square;stroke-linejoin:round"
       id="path6" /><path
       d="m 86.106444,5.8197997 c -0.506531,0 -0.902496,0.1687417 -1.188041,0.5064291 -0.283061,0.3352044 -0.42478,0.829569 -0.42478,1.4825968 v 0.3312459 c 0,0.583504 0.149042,1.0390862 0.447001,1.3668417 0.300443,0.3277554 0.725083,0.4914428 1.273824,0.4914428 0.345137,0 0.631978,-0.064154 0.860413,-0.1932698 C 87.305779,9.6759704 87.47452,9.5393058 87.58129,9.3952921 L 87.164261,8.7581217 c -0.230919,0.2433335 -0.523948,0.3653523 -0.879016,0.3653523 -0.225953,0 -0.402534,-0.063536 -0.529167,-0.1901692 C 85.631927,8.804189 85.563853,8.5797505 85.551439,8.2594441 h 2.089279 V 7.7416462 C 87.635752,7.1010334 87.505275,6.620697 87.249527,6.3003906 86.993778,5.9800841 86.612975,5.8197997 86.106444,5.8197997 Z m -0.0041,0.8753988 c 0.183741,0 0.313084,0.061885 0.387573,0.1860352 0.07449,0.1216667 0.114407,0.3039197 0.119373,0.5472534 v 0.093534 h -1.054199 c 0.0149,-0.2905105 0.06327,-0.5003032 0.145211,-0.6294189 0.08442,-0.1315988 0.2183,-0.197404 0.402042,-0.1974037 z"
       style="font-weight:bold;font-size:7.62777px;font-family:'Roboto Condensed';-inkscape-font-specification:'Roboto Condensed,  Bold';letter-spacing:0px;fill:#0d7474;stroke-width:2.1453;stroke-linecap:square;stroke-linejoin:round"
       id="path53" /><path
       d="m 82.765563,5.8197997 c -0.384864,0 -0.69811,0.1563646 -0.938961,0.469222 l -0.02946,-0.3948079 h -0.98702 V 9.923942 h 1.054199 V 6.9964721 c 0.106769,-0.1986397 0.255294,-0.2976562 0.446484,-0.2976562 0.153946,0 0.269777,0.045588 0.346749,0.1374593 0.07946,0.089388 0.118856,0.2620493 0.118856,0.5177978 v 2.569869 h 1.054199 V 7.3618245 c 0,-0.571089 -0.09953,-0.9709744 -0.298173,-1.19941 C 83.336285,5.9339789 83.080903,5.8197997 82.765563,5.8197997 Z"
       style="font-weight:bold;font-size:7.62777px;font-family:'Roboto Condensed';-inkscape-font-specification:'Roboto Condensed,  Bold';letter-spacing:0px;fill:#0d7474;stroke-width:2.1453;stroke-linecap:square;stroke-linejoin:round"
       id="path52" /><path
       d="m 78.545666,5.8197997 c -0.4966,0 -0.892565,0.1687417 -1.188042,0.5064291 -0.292993,0.3352044 -0.439766,0.8194606 -0.439766,1.4526245 v 0.2645833 c 0,0.6331638 0.147907,1.1169033 0.443384,1.4521077 0.295476,0.3352044 0.692576,0.5028117 1.191658,0.5028117 0.496599,0 0.89143,-0.1676073 1.184424,-0.5028117 C 80.0328,9.1603399 80.180708,8.6766004 80.180708,8.0434366 V 7.7788533 c 0,-0.6331639 -0.147908,-1.1174201 -0.443384,-1.4526245 C 79.44433,5.9885414 79.04723,5.8197997 78.545666,5.8197997 Z m 0,0.8753988 c 0.387347,0 0.580843,0.361103 0.580843,1.0836548 V 8.1100992 C 79.114099,8.785474 78.922867,9.123474 78.5529,9.123474 c -0.387347,0 -0.580843,-0.3599687 -0.580843,-1.0800374 V 7.7116739 c 0.01242,-0.6778578 0.203642,-1.0164754 0.573609,-1.0164754 z"
       style="font-weight:bold;font-size:7.62777px;font-family:'Roboto Condensed';-inkscape-font-specification:'Roboto Condensed,  Bold';letter-spacing:0px;fill:#0d7474;stroke-width:2.1453;stroke-linecap:square;stroke-linejoin:round"
       id="path51" /><path
       d="M 75.159826,5.8942138 V 9.923942 h 1.057816 V 5.8942138 Z"
       style="font-weight:bold;font-size:7.62777px;font-family:'Roboto Condensed';-inkscape-font-specification:'Roboto Condensed,  Bold';letter-spacing:0px;fill:#0d7474;stroke-width:2.1453;stroke-linecap:square;stroke-linejoin:round"
       id="path58" /><path
       d="m 75.688992,4.2891438 c -0.176293,0 -0.316877,0.052911 -0.421162,0.1596802 -0.104286,0.1042858 -0.156063,0.2386817 -0.156063,0.4025594 0,0.1613947 0.05178,0.2952738 0.156063,0.4020427 0.104285,0.1042858 0.244869,0.1565795 0.421162,0.1565795 0.17381,0 0.312743,-0.052294 0.417029,-0.1565795 0.104286,-0.1067689 0.15658,-0.240648 0.15658,-0.4020427 0,-0.1638777 -0.05229,-0.2982736 -0.15658,-0.4025594 C 76.001735,4.3420552 75.862802,4.2891438 75.688992,4.2891438 Z"
       style="font-weight:bold;font-size:7.62777px;font-family:'Roboto Condensed';-inkscape-font-specification:'Roboto Condensed,  Bold';letter-spacing:0px;fill:#0d7474;stroke-width:2.1453;stroke-linecap:square;stroke-linejoin:round"
       id="path44" /><path
       d="m 72.984765,5.8197997 c -0.437008,0 -0.778411,0.1192334 -1.024227,0.357601 -0.245817,0.2358846 -0.368453,0.521074 -0.368453,0.8562784 0,0.3227894 0.09788,0.5764187 0.294039,0.7601603 0.19864,0.1837417 0.48156,0.3474291 0.849044,0.4914429 0.250782,0.1092518 0.429632,0.203731 0.536401,0.2831869 0.106769,0.079456 0.160197,0.1711496 0.160197,0.2754353 0,0.2557486 -0.141719,0.3839559 -0.42478,0.3839559 -0.151463,0 -0.275233,-0.037648 -0.372071,-0.1121378 -0.09687,-0.07449 -0.148029,-0.2207461 -0.152962,-0.4392497 h -0.997872 c 0,0.3277554 0.127691,0.6303762 0.383439,0.9084717 0.258231,0.2756125 0.630577,0.4134114 1.117245,0.4134114 0.449422,0 0.807122,-0.1102593 1.072802,-0.3312459 0.265681,-0.2209867 0.398426,-0.510096 0.398426,-0.8676473 0,-0.3327214 -0.09561,-0.5925391 -0.286804,-0.7787638 C 73.980481,7.8344743 73.685183,7.6657327 73.282938,7.5142699 73.024706,7.4075011 72.845856,7.3180761 72.746536,7.2460693 c -0.09684,-0.072007 -0.14521,-0.1602975 -0.14521,-0.2645834 0,-0.2631975 0.126556,-0.3942911 0.379821,-0.3942911 0.27313,0 0.409795,0.1648218 0.409795,0.4950602 h 1.053682 c 0,-0.3774153 -0.129959,-0.6816872 -0.390674,-0.9126058 C 73.793236,5.9362476 73.43667,5.8197997 72.984765,5.8197997 Z"
       style="font-weight:bold;font-size:7.62777px;font-family:'Roboto Condensed';-inkscape-font-specification:'Roboto Condensed,  Bold';letter-spacing:0px;fill:#0d7474;stroke-width:2.1453;stroke-linecap:square;stroke-linejoin:round"
       id="path50" /><path
       d="m 69.520894,5.8197997 c -0.437008,0 -0.778411,0.1192334 -1.024227,0.357601 -0.245817,0.2358846 -0.368453,0.521074 -0.368453,0.8562784 0,0.3227894 0.09788,0.5764187 0.294039,0.7601603 0.198639,0.1837417 0.48156,0.3474291 0.849043,0.4914429 0.250783,0.1092518 0.429633,0.203731 0.536402,0.2831869 0.106768,0.079456 0.160197,0.1711496 0.160197,0.2754353 0,0.2557486 -0.141203,0.3839559 -0.424264,0.3839559 -0.151463,0 -0.27575,-0.037648 -0.372587,-0.1121378 -0.09687,-0.07449 -0.148029,-0.2207461 -0.152962,-0.4392497 H 68.02021 c 0,0.3277554 0.127691,0.6303762 0.383439,0.9084717 0.258232,0.2756125 0.630577,0.4134114 1.117245,0.4134114 0.449422,0 0.807122,-0.1102593 1.072802,-0.3312459 0.265681,-0.2209867 0.398426,-0.510096 0.398426,-0.8676473 0,-0.3327214 -0.09561,-0.5925391 -0.286805,-0.7787638 C 70.51661,7.8344743 70.221312,7.6657327 69.819067,7.5142699 69.560835,7.4075011 69.381985,7.3180761 69.282665,7.2460693 69.185828,7.1740624 69.137454,7.0857718 69.137454,6.9814859 c 0,-0.2631975 0.126556,-0.3942911 0.379822,-0.3942911 0.27313,0 0.409794,0.1648218 0.409794,0.4950602 h 1.0542 c 0,-0.3774153 -0.130477,-0.6816872 -0.391191,-0.9126058 C 70.329365,5.9362476 69.972798,5.8197997 69.520894,5.8197997 Z"
       style="font-weight:bold;font-size:7.62777px;font-family:'Roboto Condensed';-inkscape-font-specification:'Roboto Condensed,  Bold';letter-spacing:0px;fill:#0d7474;stroke-width:2.1453;stroke-linecap:square;stroke-linejoin:round"
       id="path49" /><path
       d="M 66.306619,5.8942138 V 9.923942 h 1.057817 V 5.8942138 Z"
       style="font-weight:bold;font-size:7.62777px;font-family:'Roboto Condensed';-inkscape-font-specification:'Roboto Condensed,  Bold';letter-spacing:0px;fill:#0d7474;stroke-width:2.1453;stroke-linecap:square;stroke-linejoin:round"
       id="path57" /><path
       d="m 66.835786,4.2891438 c -0.176292,0 -0.316877,0.052911 -0.421163,0.1596802 -0.104286,0.1042858 -0.156063,0.2386817 -0.156063,0.4025594 0,0.1613947 0.05178,0.2952738 0.156063,0.4020427 0.104286,0.1042858 0.244871,0.1565795 0.421163,0.1565795 0.17381,0 0.312743,-0.052294 0.417029,-0.1565795 0.104286,-0.1067689 0.15658,-0.240648 0.15658,-0.4020427 0,-0.1638777 -0.05229,-0.2982736 -0.15658,-0.4025594 C 67.148529,4.3420552 67.009596,4.2891438 66.835786,4.2891438 Z"
       style="font-weight:bold;font-size:7.62777px;font-family:'Roboto Condensed';-inkscape-font-specification:'Roboto Condensed,  Bold';letter-spacing:0px;fill:#0d7474;stroke-width:2.1453;stroke-linecap:square;stroke-linejoin:round"
       id="path43" /><path
       d="M 60.526611,4.5010172 V 9.923942 h 1.098641 V 8.4568481 L 61.524482,6.2109903 62.60452,9.923942 h 0.748791 L 64.433349,6.2109903 64.333097,8.4568481 V 9.923942 h 1.09864 V 4.5010172 H 64.001334 L 62.980724,8.419641 61.956497,4.5010172 Z"
       style="font-weight:bold;font-size:7.62777px;font-family:'Roboto Condensed';-inkscape-font-specification:'Roboto Condensed,  Bold';letter-spacing:0px;fill:#0d7474;stroke-width:2.1453;stroke-linecap:square;stroke-linejoin:round"
       id="path46" /><path
       d="m 52.019119,5.8942138 1.106392,4.0297282 h 1.009241 L 55.240628,5.8942138 H 54.141987 L 53.635558,8.4304931 53.121377,5.8942138 Z"
       style="font-weight:bold;font-size:7.62777px;font-family:'Roboto Condensed';-inkscape-font-specification:'Roboto Condensed,  Bold';letter-spacing:0px;fill:#0d7474;stroke-width:2.1453;stroke-linecap:square;stroke-linejoin:round"
       id="path55" /><path
       d="M 50.428518,5.8942138 V 9.923942 h 1.057817 V 5.8942138 Z"
       style="font-weight:bold;font-size:7.62777px;font-family:'Roboto Condensed';-inkscape-font-specification:'Roboto Condensed,  Bold';letter-spacing:0px;fill:#0d7474;stroke-width:2.1453;stroke-linecap:square;stroke-linejoin:round"
       id="path54" /><path
       d="m 50.957685,4.2891438 c -0.176293,0 -0.316878,0.052911 -0.421163,0.1596802 -0.104286,0.1042858 -0.156063,0.2386817 -0.156063,0.4025594 0,0.1613947 0.05178,0.2952738 0.156063,0.4020427 0.104285,0.1042858 0.24487,0.1565795 0.421163,0.1565795 0.17381,0 0.312744,-0.052294 0.417029,-0.1565795 0.104286,-0.1067689 0.156579,-0.240648 0.156579,-0.4020427 0,-0.1638777 -0.05229,-0.2982736 -0.156579,-0.4025594 C 51.270429,4.3420552 51.131495,4.2891438 50.957685,4.2891438 Z"
       style="font-weight:bold;font-size:7.62777px;font-family:'Roboto Condensed';-inkscape-font-specification:'Roboto Condensed,  Bold';letter-spacing:0px;fill:#0d7474;stroke-width:2.1453;stroke-linecap:square;stroke-linejoin:round"
       id="path41" /><path
       d="M 48.212633,4.8999593 V 5.8942138 H 47.743411 V 6.687447 h 0.469222 v 2.1156332 c 0,0.4295581 0.09334,0.7360988 0.279569,0.9198404 0.186225,0.1837417 0.435418,0.2754354 0.748275,0.2754354 0.218503,0 0.41365,-0.033211 0.584977,-0.1002523 l 0.0036,-0.8232055 c -0.06952,0.019864 -0.152761,0.029972 -0.249597,0.029972 -0.114218,0 -0.19632,-0.02754 -0.24598,-0.082166 -0.04717,-0.054626 -0.07028,-0.1665364 -0.07028,-0.3353801 V 6.687447 h 0.540037 V 5.8942138 H 49.263215 V 4.8999593 Z"
       style="font-weight:bold;font-size:7.62777px;font-family:'Roboto Condensed';-inkscape-font-specification:'Roboto Condensed,  Bold';letter-spacing:0px;fill:#0d7474;stroke-width:2.1453;stroke-linecap:square;stroke-linejoin:round"
       id="path47" /><path
       d="m 45.750768,5.8197997 c -0.4966,0 -0.892565,0.1687417 -1.188041,0.5064291 -0.292994,0.3352044 -0.439767,0.8194606 -0.439767,1.4526245 v 0.2645833 c 0,0.6331638 0.147907,1.1169033 0.443384,1.4521077 0.295476,0.3352044 0.692576,0.5028117 1.191658,0.5028117 0.496599,0 0.891431,-0.1676073 1.184424,-0.5028117 C 47.237903,9.1603399 47.38581,8.6766004 47.38581,8.0434366 V 7.7788533 c 0,-0.6331639 -0.147907,-1.1174201 -0.443384,-1.4526245 C 46.649433,5.9885414 46.252333,5.8197997 45.750768,5.8197997 Z m 0,0.8753988 c 0.387347,0 0.580843,0.361103 0.580843,1.0836548 v 0.3312459 c -0.01242,0.6753748 -0.203642,1.0133748 -0.573609,1.0133748 -0.387347,0 -0.580843,-0.3599687 -0.580843,-1.0800374 V 7.7116739 c 0.01242,-0.6778578 0.203642,-1.0164754 0.573609,-1.0164754 z"
       style="font-weight:bold;font-size:7.62777px;font-family:'Roboto Condensed';-inkscape-font-specification:'Roboto Condensed,  Bold';letter-spacing:0px;fill:#0d7474;stroke-width:2.1453;stroke-linecap:square;stroke-linejoin:round"
       id="path48" /><path
       d="M 38.510383,4.5010172 V 9.923942 h 1.098641 V 8.4568481 L 39.508772,6.2109903 40.588809,9.923942 h 0.748275 L 42.417121,6.2109903 42.316869,8.4568481 V 9.923942 H 43.41551 V 4.5010172 H 41.985106 L 40.965013,8.419641 39.940787,4.5010172 Z"
       style="font-weight:bold;font-size:7.62777px;font-family:'Roboto Condensed';-inkscape-font-specification:'Roboto Condensed,  Bold';letter-spacing:0px;fill:#0d7474;stroke-width:2.1453;stroke-linecap:square;stroke-linejoin:round"
       id="path45" /><path
       fill="#ffce31"
       d="M 7.9101511,8.8352088 12.899041,3.8475701 15.232529,6.1816837 10.243483,11.169322 Z"
       id="path1-7"
       style="stroke-width:0.156421;fill:#0f8a8a;fill-opacity:1" /><path
       d="m 16.257712,3.1208383 -0.2972,-0.2971998 c -0.563116,-0.5631155 -1.470357,-0.5631155 -2.049115,0 l -1.016736,1.0167362 2.346315,2.3463144 1.016736,-1.0167362 c 0.563115,-0.5631155 0.563115,-1.4859991 0,-2.0491146"
       fill="#ed4c5c"
       id="path2-1"
       style="fill:#e9291f;stroke-width:0.156421;fill-opacity:1" /><path
       fill="#93a2aa"
       d="m 12.266162,4.4832649 0.641326,-0.6416388 2.3338,2.3338007 -0.641326,0.6414824 z"
       id="path3"
       style="stroke-width:0.156421" /><path
       fill="#c7d3d8"
       d="m 12.509553,4.7264995 0.641326,-0.6414824 1.836225,1.8360692 -0.641638,0.641326 z"
       id="path4"
       style="stroke-width:0.156421" /><path
       fill="#fed0ac"
       d="M 7.9048328,8.8302034 6.8880965,11.489359 7.5919909,12.193254 10.251147,11.176518 Z"
       id="path5"
       style="stroke-width:0.156421" /><path
       d="m 6.7160335,11.958622 c -0.1407789,0.375411 0.046926,0.547474 0.4223366,0.406695 L 8.421022,11.880412 7.2165806,10.67597 6.7160335,11.958622"
       fill="#333333"
       id="path6-7"
       style="stroke-width:0.156421" /><path
       fill="#ffdf85"
       d="M 7.9032686,8.8419349 12.261156,4.484047 13.03544,5.2583307 8.6775523,9.6162187 Z"
       id="path7-2"
       style="stroke-width:0.156421;fill:#15b7b7;fill-opacity:1" /><path
       fill="#ff8736"
       d="M 9.4696681,10.400982 13.827556,6.0430947 14.601839,6.8173784 10.243952,11.175266 Z"
       id="path8"
       style="stroke-width:0.156421;fill:#0d7474;fill-opacity:1" /><path
       d="m 57.40122,5.8197997 c -0.4966,0 -0.892565,0.1687417 -1.188041,0.5064291 -0.292994,0.3352044 -0.439767,0.8194606 -0.439767,1.4526245 v 0.2645833 c 0,0.6331638 0.147907,1.1169033 0.443384,1.4521077 0.295476,0.3352044 0.692576,0.5028117 1.191658,0.5028117 0.496599,0 0.891431,-0.1676073 1.184424,-0.5028117 0.295477,-0.3352044 0.443384,-0.8189439 0.443384,-1.4521077 V 7.7788533 c 0,-0.6331639 -0.147907,-1.1174201 -0.443384,-1.4526245 C 58.299885,5.9885414 57.902785,5.8197997 57.40122,5.8197997 Z m 0,0.8753988 c 0.387347,0 0.580843,0.361103 0.580843,1.0836548 v 0.3312459 c -0.01242,0.6753748 -0.203642,1.0133748 -0.573609,1.0133748 -0.387347,0 -0.580843,-0.3599687 -0.580843,-1.0800374 V 7.7116739 c 0.01242,-0.6778578 0.203642,-1.0164754 0.573609,-1.0164754 z"
       style="font-weight:bold;font-size:7.62777px;font-family:'Roboto Condensed';-inkscape-font-specification:'Roboto Condensed,  Bold';letter-spacing:0px;fill:#0d7474;stroke-width:2.1453;stroke-linecap:square;stroke-linejoin:round"
       id="path61" /></g></svg>
