<?xml version="1.0" encoding="UTF-8" standalone="no"?>
<!-- Created with Inkscape (http://www.inkscape.org/) -->

<svg
   width="372"
   height="54"
   viewBox="0 0 98.425 14.2875"
   version="1.1"
   id="svg1"
   inkscape:version="1.3.2 (091e20ef0f, 2023-11-25)"
   sodipodi:docname="reason-logo-edit.svg"
   xml:space="preserve"
   xmlns:inkscape="http://www.inkscape.org/namespaces/inkscape"
   xmlns:sodipodi="http://sodipodi.sourceforge.net/DTD/sodipodi-0.dtd"
   xmlns="http://www.w3.org/2000/svg"
   xmlns:svg="http://www.w3.org/2000/svg"><sodipodi:namedview
     id="namedview1"
     pagecolor="#ffffff"
     bordercolor="#000000"
     borderopacity="0.25"
     inkscape:showpageshadow="false"
     inkscape:pageopacity="0.0"
     inkscape:pagecheckerboard="0"
     inkscape:deskcolor="#d1d1d1"
     inkscape:document-units="px"
     inkscape:zoom="20.815456"
     inkscape:cx="85.08101"
     inkscape:cy="26.446694"
     inkscape:window-width="2528"
     inkscape:window-height="1404"
     inkscape:window-x="2592"
     inkscape:window-y="0"
     inkscape:window-maximized="1"
     inkscape:current-layer="layer1" /><defs
     id="defs1"><style
       id="style1">.cls-1{fill:#ffffff;}.cls-2{fill:#e5e5e5;}.cls-3{fill:#426572;}.cls-4{fill:#fbc907;}.cls-5{fill:#f3a70f;}.cls-6{fill:#f9f9f9;}.cls-7{opacity:0.5;}.cls-8{fill:#7490a8;}</style></defs><g
     inkscape:label="Livello 1"
     inkscape:groupmode="layer"
     id="layer1"><rect
       class="cls-1"
       height="12.579011"
       rx="1.3074983"
       ry="1.3074983"
       width="9.5241079"
       x="1.6534376"
       y="0.96691668"
       id="rect1"
       style="stroke-width:0.03594" /><path
       class="cls-2"
       d="m 1.554962,12.251727 v -0.796791 a 1.3509857,1.3509857 0 0 0 1.3509857,1.351345 h 7.0083058 a 1.3509857,1.3509857 0 0 0 1.3499075,-1.351345 v 0.796072 A 1.3509857,1.3509857 0 0 1 9.9131753,13.601994 H 2.9048695 A 1.3509857,1.3509857 0 0 1 1.554962,12.251727 Z"
       id="path1"
       style="stroke-width:0.03594" /><path
       class="cls-3"
       d="M 9.9426462,13.758333 H 2.9343403 A 1.5684229,1.5684229 0 0 1 1.3687926,12.192066 V 2.095793 A 1.5684229,1.5684229 0 0 1 2.9354185,0.52916711 H 9.9437244 A 1.5684229,1.5684229 0 0 1 11.51035,2.095793 V 4.9497908 H 11.07907 V 2.095793 A 1.1364237,1.1364237 0 0 0 9.9426462,0.96044747 H 2.9343403 A 1.1364237,1.1364237 0 0 0 1.800073,2.095793 v 10.096273 a 1.1364237,1.1364237 0 0 0 1.1353455,1.135346 H 9.9437244 A 1.1364237,1.1364237 0 0 0 11.07907,12.192066 V 10.58986 h 0.43128 v 1.602206 a 1.5684229,1.5684229 0 0 1 -1.5677038,1.566267 z"
       id="path2"
       style="fill:#0d7474;fill-opacity:1;stroke-width:0.03594" /><rect
       class="cls-3"
       height="0.43128037"
       width="3.3064828"
       x="3.4339068"
       y="6.3669057"
       id="rect6"
       style="fill:#0d7474;fill-opacity:1;stroke-width:0.03594" /><rect
       class="cls-3"
       height="0.43128037"
       width="3.3064828"
       x="3.4339068"
       y="7.4077296"
       id="rect7"
       style="fill:#0d7474;fill-opacity:1;stroke-width:0.03594" /><rect
       class="cls-3"
       height="0.43128037"
       width="3.3064828"
       x="3.4339068"
       y="8.4489117"
       id="rect8"
       style="fill:#0d7474;fill-opacity:1;stroke-width:0.03594" /><g
       class="cls-7"
       id="g13"
       transform="matrix(0.03594003,0,0,0.03594003,1.3687926,0.52916711)"><path
         class="cls-8"
         d="m 38,35.95 h 34.77 c 3.86,0 3.87,-6 0,-6 H 38 c -3.86,0 -3.87,6 0,6 z"
         id="path12" /><path
         class="cls-8"
         d="m 87.17,35.95 h 86.34 c 3.86,0 3.87,-6 0,-6 H 87.17 c -3.86,0 -3.87,6 0,6 z"
         id="path13" /></g><path
       d="M 7.9938272,2.7683065 V 4.7857543 H 9.4252644 V 4.1315307 H 8.7198811 V 2.7683065 Z"
       style="font-size:2.82223px;font-family:'Futura XBlk BT';-inkscape-font-specification:'Futura XBlk BT';letter-spacing:0px;fill:#0d7474;stroke-width:0.79375;stroke-linecap:square;stroke-linejoin:round"
       id="path20" /><path
       d="M 6.865214,2.7683065 V 4.7857543 H 7.6021199 V 2.7683065 Z"
       style="font-size:2.82223px;font-family:'Futura XBlk BT';-inkscape-font-specification:'Futura XBlk BT';letter-spacing:0px;fill:#0d7474;stroke-width:0.79375;stroke-linecap:square;stroke-linejoin:round"
       id="path19" /><path
       d="m 5.5050903,2.7228312 c -0.1525032,0 -0.2944406,0.026068 -0.4258138,0.077515 -0.1313732,0.051447 -0.247128,0.1259755 -0.3472656,0.2242758 -0.099219,0.097382 -0.1750111,0.2103802 -0.2273763,0.3389973 -0.051447,0.1276985 -0.077515,0.2668798 -0.077515,0.4175456 0,0.1497471 0.026068,0.2888136 0.077515,0.4165121 0.051447,0.1276984 0.1272387,0.2408119 0.2273763,0.3400309 0.1010563,0.099219 0.2168111,0.1748957 0.3472656,0.2263427 0.1313732,0.050528 0.2733106,0.075448 0.4258138,0.075448 0.2067061,0 0.3913626,-0.045475 0.5539713,-0.1364257 0.1626089,-0.091869 0.2950149,-0.2241606 0.3979086,-0.396875 0.04226,-0.073495 0.074588,-0.1576708 0.096635,-0.2532146 0.022049,-0.095544 0.033073,-0.2015378 0.033073,-0.3172932 0,-0.015618 -6.303e-4,-0.033532 -0.00155,-0.053744 -9.133e-4,-0.020211 -0.00229,-0.050643 -0.00413,-0.091984 H 5.466333 V 4.063835 H 5.782076 C 5.773806,4.116201 5.747625,4.15691 5.703528,4.1863081 5.660349,4.2157061 5.60385,4.2307501 5.5340293,4.2307501 c -0.1175928,0 -0.208543,-0.039217 -0.2728516,-0.1173055 -0.064309,-0.079008 -0.096635,-0.189882 -0.096635,-0.3322795 0,-0.137804 0.031695,-0.2474151 0.095085,-0.3291789 0.064309,-0.081764 0.1503783,-0.1224731 0.2578654,-0.1224731 0.061553,0 0.1160422,0.01378 0.1638143,0.041341 0.047772,0.027561 0.088482,0.069017 0.1224732,0.125057 L 6.4502522,3.256132 C 6.3482772,3.0815801 6.2167325,2.9492889 6.055961,2.859257 5.8951897,2.7683063 5.7117964,2.7228312 5.5050903,2.7228312 Z"
       style="font-size:2.82223px;font-family:'Futura XBlk BT';-inkscape-font-specification:'Futura XBlk BT';letter-spacing:0px;fill:#0d7474;stroke-width:0.79375;stroke-linecap:square;stroke-linejoin:round"
       id="path7" /><path
       d="m 3.7036499,2.7202474 c -0.1534219,0 -0.2961057,0.025551 -0.4283977,0.076998 -0.1313732,0.050528 -0.2471279,0.1255735 -0.3472656,0.2247924 -0.099219,0.0983 -0.175011,0.2119306 -0.2273763,0.3405477 -0.051447,0.1286172 -0.076998,0.2679133 -0.076998,0.4185791 0,0.20395 0.045475,0.3844724 0.1364258,0.541569 0.091869,0.1570967 0.2269166,0.2872634 0.4051432,0.3901571 0.073496,0.040423 0.1555461,0.071486 0.2464966,0.093534 0.090951,0.022049 0.1854034,0.033073 0.2837036,0.033073 0.079008,0 0.1581872,-0.00827 0.2371949,-0.024805 0.079008,-0.015618 0.1581871,-0.03916 0.2371948,-0.071313 l 0.023254,-0.7596436 c -0.085438,0.065227 -0.1646181,0.1133434 -0.2371948,0.1436605 -0.071658,0.029398 -0.1420527,0.043925 -0.2118734,0.043925 -0.1157554,0 -0.2080837,-0.035197 -0.2769857,-0.1059367 C 3.3980697,3.9946454 3.3636189,3.899676 3.3636189,3.7811645 c 0,-0.1212676 0.035829,-0.2178447 0.107487,-0.2904215 0.072577,-0.073495 0.1677759,-0.1105876 0.2862875,-0.1105876 0.076251,0 0.1491724,0.01579 0.2180745,0.047026 0.068902,0.031235 0.1364257,0.07872 0.2025716,0.1421101 V 2.8220499 C 4.1027066,2.7880586 4.0249051,2.763139 3.9449788,2.7466023 3.8659711,2.729147 3.7854137,2.7202474 3.7036499,2.7202474 Z"
       style="font-size:2.82223px;font-family:'Futura XBlk BT';-inkscape-font-specification:'Futura XBlk BT';letter-spacing:0px;fill:#0d7474;stroke-width:0.79375;stroke-linecap:square;stroke-linejoin:round"
       id="path6" /><path
       d="m 93.99033,5.8197997 c -0.506531,0 -0.902496,0.1687417 -1.188041,0.5064291 -0.283061,0.3352044 -0.42478,0.829569 -0.42478,1.4825968 v 0.3312459 c 0,0.583504 0.149042,1.0390862 0.447001,1.3668417 0.300443,0.3277554 0.725083,0.4914428 1.273824,0.4914428 0.345137,0 0.631978,-0.064154 0.860413,-0.1932698 0.230918,-0.1291158 0.399659,-0.2657804 0.506429,-0.4097941 L 95.048147,8.7581217 c -0.230919,0.2433335 -0.523948,0.3653523 -0.879016,0.3653523 -0.225953,0 -0.402534,-0.063536 -0.529167,-0.1901692 C 93.515813,8.804189 93.447739,8.5797505 93.435325,8.2594441 h 2.089279 V 7.7416462 C 95.519638,7.1010334 95.389161,6.620697 95.133413,6.3003906 94.877664,5.9800841 94.496861,5.8197997 93.99033,5.8197997 Z m -0.0041,0.8753988 c 0.183741,0 0.313084,0.061885 0.387573,0.1860352 0.07449,0.1216667 0.114407,0.3039197 0.119373,0.5472534 v 0.093534 h -1.054199 c 0.0149,-0.2905105 0.06327,-0.5003032 0.145211,-0.6294189 0.08442,-0.1315988 0.2183,-0.197404 0.402042,-0.1974037 z"
       style="font-weight:bold;font-size:7.62777px;font-family:'Roboto Condensed';-inkscape-font-specification:'Roboto Condensed,  Bold';letter-spacing:0px;fill:#0d7474;stroke-width:2.1453;stroke-linecap:square;stroke-linejoin:round"
       id="path53" /><path
       d="m 90.649449,5.8197997 c -0.384864,0 -0.69811,0.1563646 -0.938961,0.469222 l -0.02946,-0.3948079 h -0.98702 V 9.923942 h 1.054199 V 6.9964721 c 0.106769,-0.1986397 0.255294,-0.2976562 0.446484,-0.2976562 0.153946,0 0.269777,0.045588 0.346749,0.1374593 0.07946,0.089388 0.118856,0.2620493 0.118856,0.5177978 v 2.569869 h 1.054199 V 7.3618245 c 0,-0.571089 -0.09953,-0.9709744 -0.298173,-1.19941 C 91.220171,5.9339789 90.964789,5.8197997 90.649449,5.8197997 Z"
       style="font-weight:bold;font-size:7.62777px;font-family:'Roboto Condensed';-inkscape-font-specification:'Roboto Condensed,  Bold';letter-spacing:0px;fill:#0d7474;stroke-width:2.1453;stroke-linecap:square;stroke-linejoin:round"
       id="path52" /><path
       d="m 86.429552,5.8197997 c -0.4966,0 -0.892565,0.1687417 -1.188042,0.5064291 -0.292993,0.3352044 -0.439766,0.8194606 -0.439766,1.4526245 v 0.2645833 c 0,0.6331638 0.147907,1.1169033 0.443384,1.4521077 0.295476,0.3352044 0.692576,0.5028117 1.191658,0.5028117 0.496599,0 0.89143,-0.1676073 1.184424,-0.5028117 0.295476,-0.3352044 0.443384,-0.8189439 0.443384,-1.4521077 V 7.7788533 c 0,-0.6331639 -0.147908,-1.1174201 -0.443384,-1.4526245 C 87.328216,5.9885414 86.931116,5.8197997 86.429552,5.8197997 Z m 0,0.8753988 c 0.387347,0 0.580843,0.361103 0.580843,1.0836548 v 0.3312459 c -0.01241,0.6753748 -0.203642,1.0133748 -0.573609,1.0133748 -0.387347,0 -0.580843,-0.3599687 -0.580843,-1.0800374 V 7.7116739 c 0.01242,-0.6778578 0.203642,-1.0164754 0.573609,-1.0164754 z"
       style="font-weight:bold;font-size:7.62777px;font-family:'Roboto Condensed';-inkscape-font-specification:'Roboto Condensed,  Bold';letter-spacing:0px;fill:#0d7474;stroke-width:2.1453;stroke-linecap:square;stroke-linejoin:round"
       id="path51" /><path
       d="M 83.043712,5.8942138 V 9.923942 h 1.057816 V 5.8942138 Z"
       style="font-weight:bold;font-size:7.62777px;font-family:'Roboto Condensed';-inkscape-font-specification:'Roboto Condensed,  Bold';letter-spacing:0px;fill:#0d7474;stroke-width:2.1453;stroke-linecap:square;stroke-linejoin:round"
       id="path58" /><path
       d="m 83.572878,4.2891438 c -0.176293,0 -0.316877,0.052911 -0.421162,0.1596802 -0.104286,0.1042858 -0.156063,0.2386817 -0.156063,0.4025594 0,0.1613947 0.05178,0.2952738 0.156063,0.4020427 0.104285,0.1042858 0.244869,0.1565795 0.421162,0.1565795 0.17381,0 0.312743,-0.052294 0.417029,-0.1565795 0.104286,-0.1067689 0.15658,-0.240648 0.15658,-0.4020427 0,-0.1638777 -0.05229,-0.2982736 -0.15658,-0.4025594 C 83.885621,4.3420552 83.746688,4.2891438 83.572878,4.2891438 Z"
       style="font-weight:bold;font-size:7.62777px;font-family:'Roboto Condensed';-inkscape-font-specification:'Roboto Condensed,  Bold';letter-spacing:0px;fill:#0d7474;stroke-width:2.1453;stroke-linecap:square;stroke-linejoin:round"
       id="path44" /><path
       d="m 80.868651,5.8197997 c -0.437008,0 -0.778411,0.1192334 -1.024227,0.357601 -0.245817,0.2358846 -0.368453,0.521074 -0.368453,0.8562784 0,0.3227894 0.09788,0.5764187 0.294039,0.7601603 0.19864,0.1837417 0.48156,0.3474291 0.849044,0.4914429 0.250782,0.1092518 0.429632,0.203731 0.536401,0.2831869 0.106769,0.079456 0.160197,0.1711496 0.160197,0.2754353 0,0.2557486 -0.141719,0.3839559 -0.42478,0.3839559 -0.151463,0 -0.275233,-0.037648 -0.372071,-0.1121378 -0.09687,-0.07449 -0.148029,-0.2207461 -0.152962,-0.4392497 h -0.997872 c 0,0.3277554 0.127691,0.6303762 0.383439,0.9084717 0.258231,0.2756125 0.630577,0.4134114 1.117245,0.4134114 0.449422,0 0.807122,-0.1102593 1.072802,-0.3312459 0.265681,-0.2209867 0.398426,-0.510096 0.398426,-0.8676473 0,-0.3327214 -0.09561,-0.5925391 -0.286804,-0.7787638 C 81.864367,7.8344743 81.569069,7.6657327 81.166824,7.5142699 80.908592,7.4075011 80.729742,7.3180761 80.630422,7.2460693 c -0.09684,-0.072007 -0.14521,-0.1602975 -0.14521,-0.2645834 0,-0.2631975 0.126556,-0.3942911 0.379821,-0.3942911 0.27313,0 0.409795,0.1648218 0.409795,0.4950602 h 1.053682 c 0,-0.3774153 -0.129959,-0.6816872 -0.390674,-0.9126058 -0.260714,-0.2334016 -0.61728,-0.3498495 -1.069185,-0.3498495 z"
       style="font-weight:bold;font-size:7.62777px;font-family:'Roboto Condensed';-inkscape-font-specification:'Roboto Condensed,  Bold';letter-spacing:0px;fill:#0d7474;stroke-width:2.1453;stroke-linecap:square;stroke-linejoin:round"
       id="path50" /><path
       d="m 77.40478,5.8197997 c -0.437008,0 -0.778411,0.1192334 -1.024227,0.357601 -0.245817,0.2358846 -0.368453,0.521074 -0.368453,0.8562784 0,0.3227894 0.09788,0.5764187 0.294039,0.7601603 0.198639,0.1837417 0.48156,0.3474291 0.849043,0.4914429 0.250783,0.1092518 0.429633,0.203731 0.536402,0.2831869 0.106768,0.079456 0.160197,0.1711496 0.160197,0.2754353 0,0.2557486 -0.141203,0.3839559 -0.424264,0.3839559 -0.151463,0 -0.27575,-0.037648 -0.372587,-0.1121378 -0.09687,-0.07449 -0.148029,-0.2207461 -0.152962,-0.4392497 h -0.997872 c 0,0.3277554 0.127691,0.6303762 0.383439,0.9084717 0.258232,0.2756125 0.630577,0.4134114 1.117245,0.4134114 0.449422,0 0.807122,-0.1102593 1.072802,-0.3312459 0.265681,-0.2209867 0.398426,-0.510096 0.398426,-0.8676473 0,-0.3327214 -0.09561,-0.5925391 -0.286805,-0.7787638 C 78.400496,7.8344743 78.105198,7.6657327 77.702953,7.5142699 77.444721,7.4075011 77.265871,7.3180761 77.166551,7.2460693 77.069714,7.1740624 77.02134,7.0857718 77.02134,6.9814859 c 0,-0.2631975 0.126556,-0.3942911 0.379822,-0.3942911 0.27313,0 0.409794,0.1648218 0.409794,0.4950602 h 1.0542 c 0,-0.3774153 -0.130477,-0.6816872 -0.391191,-0.9126058 C 78.213251,5.9362476 77.856684,5.8197997 77.40478,5.8197997 Z"
       style="font-weight:bold;font-size:7.62777px;font-family:'Roboto Condensed';-inkscape-font-specification:'Roboto Condensed,  Bold';letter-spacing:0px;fill:#0d7474;stroke-width:2.1453;stroke-linecap:square;stroke-linejoin:round"
       id="path49" /><path
       d="M 74.190505,5.8942138 V 9.923942 h 1.057817 V 5.8942138 Z"
       style="font-weight:bold;font-size:7.62777px;font-family:'Roboto Condensed';-inkscape-font-specification:'Roboto Condensed,  Bold';letter-spacing:0px;fill:#0d7474;stroke-width:2.1453;stroke-linecap:square;stroke-linejoin:round"
       id="path57" /><path
       d="m 74.719672,4.2891438 c -0.176292,0 -0.316877,0.052911 -0.421163,0.1596802 -0.104286,0.1042858 -0.156063,0.2386817 -0.156063,0.4025594 0,0.1613947 0.05178,0.2952738 0.156063,0.4020427 0.104286,0.1042858 0.244871,0.1565795 0.421163,0.1565795 0.17381,0 0.312743,-0.052294 0.417029,-0.1565795 0.104286,-0.1067689 0.15658,-0.240648 0.15658,-0.4020427 0,-0.1638777 -0.05229,-0.2982736 -0.15658,-0.4025594 C 75.032415,4.3420552 74.893482,4.2891438 74.719672,4.2891438 Z"
       style="font-weight:bold;font-size:7.62777px;font-family:'Roboto Condensed';-inkscape-font-specification:'Roboto Condensed,  Bold';letter-spacing:0px;fill:#0d7474;stroke-width:2.1453;stroke-linecap:square;stroke-linejoin:round"
       id="path43" /><path
       d="M 68.410497,4.5010172 V 9.923942 h 1.098641 V 8.4568481 l -0.10077,-2.2458578 1.080038,3.7129517 h 0.748791 L 72.317235,6.2109903 72.216983,8.4568481 V 9.923942 h 1.09864 V 4.5010172 H 71.88522 L 70.86461,8.419641 69.840383,4.5010172 Z"
       style="font-weight:bold;font-size:7.62777px;font-family:'Roboto Condensed';-inkscape-font-specification:'Roboto Condensed,  Bold';letter-spacing:0px;fill:#0d7474;stroke-width:2.1453;stroke-linecap:square;stroke-linejoin:round"
       id="path46" /><path
       d="m 59.903005,5.8942138 1.106392,4.0297282 h 1.009241 L 63.124514,5.8942138 H 62.025873 L 61.519444,8.4304931 61.005263,5.8942138 Z"
       style="font-weight:bold;font-size:7.62777px;font-family:'Roboto Condensed';-inkscape-font-specification:'Roboto Condensed,  Bold';letter-spacing:0px;fill:#0d7474;stroke-width:2.1453;stroke-linecap:square;stroke-linejoin:round"
       id="path55" /><path
       d="M 58.312404,5.8942138 V 9.923942 h 1.057817 V 5.8942138 Z"
       style="font-weight:bold;font-size:7.62777px;font-family:'Roboto Condensed';-inkscape-font-specification:'Roboto Condensed,  Bold';letter-spacing:0px;fill:#0d7474;stroke-width:2.1453;stroke-linecap:square;stroke-linejoin:round"
       id="path54" /><path
       d="m 58.841571,4.2891438 c -0.176293,0 -0.316878,0.052911 -0.421163,0.1596802 -0.104286,0.1042858 -0.156063,0.2386817 -0.156063,0.4025594 0,0.1613947 0.05178,0.2952738 0.156063,0.4020427 0.104285,0.1042858 0.24487,0.1565795 0.421163,0.1565795 0.17381,0 0.312744,-0.052294 0.417029,-0.1565795 0.104286,-0.1067689 0.156579,-0.240648 0.156579,-0.4020427 0,-0.1638777 -0.05229,-0.2982736 -0.156579,-0.4025594 C 59.154315,4.3420552 59.015381,4.2891438 58.841571,4.2891438 Z"
       style="font-weight:bold;font-size:7.62777px;font-family:'Roboto Condensed';-inkscape-font-specification:'Roboto Condensed,  Bold';letter-spacing:0px;fill:#0d7474;stroke-width:2.1453;stroke-linecap:square;stroke-linejoin:round"
       id="path41" /><path
       d="M 56.096519,4.8999593 V 5.8942138 H 55.627297 V 6.687447 h 0.469222 v 2.1156332 c 0,0.4295581 0.09334,0.7360988 0.279569,0.9198404 0.186225,0.1837417 0.435418,0.2754354 0.748275,0.2754354 0.218503,0 0.41365,-0.033211 0.584977,-0.1002523 l 0.0036,-0.8232055 c -0.06952,0.019864 -0.152761,0.029972 -0.249597,0.029972 -0.114218,0 -0.19632,-0.02754 -0.24598,-0.082166 -0.04717,-0.054626 -0.07028,-0.1665364 -0.07028,-0.3353801 V 6.687447 H 57.68712 V 5.8942138 H 57.147101 V 4.8999593 Z"
       style="font-weight:bold;font-size:7.62777px;font-family:'Roboto Condensed';-inkscape-font-specification:'Roboto Condensed,  Bold';letter-spacing:0px;fill:#0d7474;stroke-width:2.1453;stroke-linecap:square;stroke-linejoin:round"
       id="path47" /><path
       d="m 53.634654,5.8197997 c -0.4966,0 -0.892565,0.1687417 -1.188041,0.5064291 -0.292994,0.3352044 -0.439767,0.8194606 -0.439767,1.4526245 v 0.2645833 c 0,0.6331638 0.147907,1.1169033 0.443384,1.4521077 0.295476,0.3352044 0.692576,0.5028117 1.191658,0.5028117 0.496599,0 0.891431,-0.1676073 1.184424,-0.5028117 0.295477,-0.3352044 0.443384,-0.8189439 0.443384,-1.4521077 V 7.7788533 c 0,-0.6331639 -0.147907,-1.1174201 -0.443384,-1.4526245 C 54.533319,5.9885414 54.136219,5.8197997 53.634654,5.8197997 Z m 0,0.8753988 c 0.387347,0 0.580843,0.361103 0.580843,1.0836548 v 0.3312459 c -0.01242,0.6753748 -0.203642,1.0133748 -0.573609,1.0133748 -0.387347,0 -0.580843,-0.3599687 -0.580843,-1.0800374 V 7.7116739 c 0.01242,-0.6778578 0.203642,-1.0164754 0.573609,-1.0164754 z"
       style="font-weight:bold;font-size:7.62777px;font-family:'Roboto Condensed';-inkscape-font-specification:'Roboto Condensed,  Bold';letter-spacing:0px;fill:#0d7474;stroke-width:2.1453;stroke-linecap:square;stroke-linejoin:round"
       id="path48" /><path
       d="M 46.394269,4.5010172 V 9.923942 H 47.49291 V 8.4568481 L 47.392658,6.2109903 48.472695,9.923942 H 49.22097 L 50.301007,6.2109903 50.200755,8.4568481 V 9.923942 h 1.098641 V 4.5010172 H 49.868992 L 48.848899,8.419641 47.824673,4.5010172 Z"
       style="font-weight:bold;font-size:7.62777px;font-family:'Roboto Condensed';-inkscape-font-specification:'Roboto Condensed,  Bold';letter-spacing:0px;fill:#0d7474;stroke-width:2.1453;stroke-linecap:square;stroke-linejoin:round"
       id="path45" /><path
       fill="#ffce31"
       d="M 7.9101511,8.8352088 12.899041,3.8475701 15.232529,6.1816837 10.243483,11.169322 Z"
       id="path1-7"
       style="fill:#0f8a8a;fill-opacity:1;stroke-width:0.156421" /><path
       d="m 16.257712,3.1208383 -0.2972,-0.2971998 c -0.563116,-0.5631155 -1.470357,-0.5631155 -2.049115,0 l -1.016736,1.0167362 2.346315,2.3463144 1.016736,-1.0167362 c 0.563115,-0.5631155 0.563115,-1.4859991 0,-2.0491146"
       fill="#ed4c5c"
       id="path2-1"
       style="fill:#e9291f;stroke-width:0.156421;fill-opacity:1" /><path
       fill="#93a2aa"
       d="m 12.266162,4.4832649 0.641326,-0.6416388 2.3338,2.3338007 -0.641326,0.6414824 z"
       id="path3"
       style="stroke-width:0.156421" /><path
       fill="#c7d3d8"
       d="m 12.509553,4.7264995 0.641326,-0.6414824 1.836225,1.8360692 -0.641638,0.641326 z"
       id="path4"
       style="stroke-width:0.156421" /><path
       fill="#fed0ac"
       d="M 7.9048328,8.8302034 6.8880965,11.489359 7.5919909,12.193254 10.251147,11.176518 Z"
       id="path5"
       style="stroke-width:0.156421" /><path
       d="m 6.7160335,11.958622 c -0.1407789,0.375411 0.046926,0.547474 0.4223366,0.406695 L 8.421022,11.880412 7.2165806,10.67597 6.7160335,11.958622"
       fill="#333333"
       id="path6-7"
       style="stroke-width:0.156421" /><path
       fill="#ffdf85"
       d="M 7.9032686,8.8419349 12.261156,4.484047 13.03544,5.2583307 8.6775523,9.6162187 Z"
       id="path7-2"
       style="fill:#17b5b5;fill-opacity:1;stroke-width:0.156421" /><path
       fill="#ff8736"
       d="M 9.4696681,10.400982 13.827556,6.0430947 14.601839,6.8173784 10.243952,11.175266 Z"
       id="path8"
       style="fill:#0d7474;fill-opacity:1;stroke-width:0.156421" /><path
       d="m 65.285106,5.8197997 c -0.4966,0 -0.892565,0.1687417 -1.188041,0.5064291 -0.292994,0.3352044 -0.439767,0.8194606 -0.439767,1.4526245 v 0.2645833 c 0,0.6331638 0.147907,1.1169033 0.443384,1.4521077 0.295476,0.3352044 0.692576,0.5028117 1.191658,0.5028117 0.496599,0 0.891431,-0.1676073 1.184424,-0.5028117 0.295477,-0.3352044 0.443384,-0.8189439 0.443384,-1.4521077 V 7.7788533 c 0,-0.6331639 -0.147907,-1.1174201 -0.443384,-1.4526245 C 66.183771,5.9885414 65.786671,5.8197997 65.285106,5.8197997 Z m 0,0.8753988 c 0.387347,0 0.580843,0.361103 0.580843,1.0836548 V 8.1100992 C 65.853529,8.785474 65.662307,9.123474 65.29234,9.123474 c -0.387347,0 -0.580843,-0.3599687 -0.580843,-1.0800374 V 7.7116739 c 0.01242,-0.6778578 0.203642,-1.0164754 0.573609,-1.0164754 z"
       style="font-weight:bold;font-size:7.62777px;font-family:'Roboto Condensed';-inkscape-font-specification:'Roboto Condensed,  Bold';letter-spacing:0px;fill:#0d7474;stroke-width:2.1453;stroke-linecap:square;stroke-linejoin:round"
       id="path61" /><path
       d="m 35.601444,5.8781942 v 3.6700602 h 0.960149 V 5.8781942 Z"
       style="font-weight:bold;font-size:6.94737px;font-family:'Roboto Condensed';-inkscape-font-specification:'Roboto Condensed,  Bold';letter-spacing:0px;fill:#f07109;stroke-width:1.95394;stroke-linecap:square;stroke-linejoin:round;fill-opacity:1"
       id="path106" /><path
       d="m 35.601444,5.8781942 h 0.960149 v 3.6700602 h -0.960149 z"
       style="font-weight:bold;font-size:6.94737px;font-family:'Roboto Condensed';-inkscape-font-specification:'Roboto Condensed,  Bold';letter-spacing:0px;fill:#f07109;stroke-width:1.95394;stroke-linecap:square;stroke-linejoin:round;fill-opacity:1"
       id="path105" /><path
       d="m 31.808911,5.8781942 v 3.6700602 h 0.963766 V 5.8781942 Z"
       style="font-weight:bold;font-size:6.94737px;font-family:'Roboto Condensed';-inkscape-font-specification:'Roboto Condensed,  Bold';letter-spacing:0px;fill:#f07109;stroke-width:1.95394;stroke-linecap:square;stroke-linejoin:round;fill-opacity:1"
       id="path104" /><path
       d="m 31.808911,5.8781942 h 0.963766 v 3.6700602 h -0.963766 z"
       style="font-weight:bold;font-size:6.94737px;font-family:'Roboto Condensed';-inkscape-font-specification:'Roboto Condensed,  Bold';letter-spacing:0px;fill:#f07109;stroke-width:1.95394;stroke-linecap:square;stroke-linejoin:round;fill-opacity:1"
       id="path103" /><path
       d="m 41.81967,5.8099813 c -0.411595,0 -0.739677,0.1155579 -0.98392,0.3462321 -0.241981,0.2284126 -0.362768,0.5031045 -0.362768,0.8242391 h 0.960148 c 0,-0.2804274 0.119947,-0.4206462 0.359668,-0.4206462 0.221628,0 0.332279,0.1503542 0.332279,0.4511353 V 7.306014 h -0.257865 c -0.49301,0 -0.859437,0.1098123 -1.099158,0.3291789 -0.23972,0.2171051 -0.359668,0.5120678 -0.359668,0.8852173 0,0.3324421 0.103228,0.5983543 0.309025,0.7973673 0.208059,0.199013 0.460286,0.2986898 0.756543,0.2986898 0.291735,0 0.524529,-0.1177529 0.698666,-0.35295 0.02035,0.1130755 0.04721,0.2078457 0.08113,0.2847371 h 0.966866 V 9.4908936 C 43.136952,9.3212802 43.092859,9.0734441 43.088326,8.7477865 V 7.0243774 c 0,-0.4296871 -0.120787,-0.7391753 -0.362769,-0.9291422 C 42.485838,5.9052682 42.183773,5.8099813 41.81967,5.8099813 Z m 0.07803,2.0696411 h 0.227376 v 0.7632609 c -0.03618,0.058799 -0.09177,0.1094769 -0.166398,0.1524455 -0.07463,0.042969 -0.163654,0.064595 -0.267684,0.064595 -0.214844,0 -0.322461,-0.1358289 -0.322461,-0.4072103 0,-0.1605673 0.04274,-0.2963962 0.128675,-0.4072103 0.08594,-0.110814 0.219572,-0.1658813 0.400492,-0.1658813 z"
       style="font-weight:bold;font-size:6.94737px;font-family:'Roboto Condensed';-inkscape-font-specification:'Roboto Condensed,  Bold';letter-spacing:0px;fill:#f07109;stroke-width:1.95394;stroke-linecap:square;stroke-linejoin:round;fill-opacity:1"
       id="path102" /><path
       d="m 38.658105,5.8099813 c -0.490747,0 -0.855819,0.1552608 -1.09554,0.4650879 -0.23972,0.309827 -0.359668,0.7450086 -0.359668,1.3058634 V 7.876005 c 0.0045,0.5518089 0.126666,0.9804057 0.366386,1.2857097 0.23972,0.3030425 0.603953,0.4547526 1.09244,0.4547526 0.368626,0 0.677276,-0.1191087 0.926041,-0.3565674 0.251024,-0.2374587 0.377556,-0.5650229 0.379822,-0.9834025 h -0.90227 c 0,0.3618418 -0.140219,0.5426025 -0.420646,0.5426025 -0.217107,0 -0.35158,-0.081601 -0.403593,-0.2444295 -0.05201,-0.1628288 -0.07803,-0.4057583 -0.07803,-0.7291544 V 7.5809326 c 0,-0.3143501 0.02602,-0.5550847 0.07803,-0.7224365 0.05428,-0.1673518 0.186554,-0.2511475 0.396875,-0.2511475 0.28495,0 0.427364,0.2138789 0.427364,0.6413046 h 0.90227 C 39.965324,6.7782588 39.844021,6.4206104 39.604301,6.1763672 39.366842,5.932124 39.051608,5.8099813 38.658105,5.8099813 Z"
       style="font-weight:bold;font-size:6.94737px;font-family:'Roboto Condensed';-inkscape-font-specification:'Roboto Condensed,  Bold';letter-spacing:0px;fill:#f07109;stroke-width:1.95394;stroke-linecap:square;stroke-linejoin:round;fill-opacity:1"
       id="path100" /><path
       d="m 38.658105,5.8099813 c 0.393503,0 0.708737,0.1221427 0.946196,0.3663859 0.23972,0.2442432 0.361023,0.6018916 0.363285,1.072286 h -0.90227 c 0,-0.4274257 -0.142414,-0.6413046 -0.427364,-0.6413046 -0.210321,0 -0.342599,0.083796 -0.396875,0.2511475 -0.05201,0.1673518 -0.07803,0.4080864 -0.07803,0.7224365 V 7.845516 c 0,0.3233961 0.02602,0.5663256 0.07803,0.7291544 0.05201,0.1628288 0.186486,0.2444295 0.403593,0.2444295 0.280427,0 0.420646,-0.1807607 0.420646,-0.5426025 h 0.90227 c -0.0023,0.4183796 -0.128798,0.7459438 -0.379822,0.9834025 -0.248765,0.2374587 -0.557415,0.3565674 -0.926041,0.3565674 -0.488487,0 -0.85272,-0.1517101 -1.09244,-0.4547526 C 37.329563,8.8564107 37.20742,8.4278139 37.202897,7.876005 V 7.5809326 c 0,-0.5608548 0.119948,-0.9960364 0.359668,-1.3058634 0.239721,-0.3098271 0.604793,-0.4650879 1.09554,-0.4650879 z"
       style="font-weight:bold;font-size:6.94737px;font-family:'Roboto Condensed';-inkscape-font-specification:'Roboto Condensed,  Bold';letter-spacing:0px;fill:#f07109;stroke-width:1.95394;stroke-linecap:square;stroke-linejoin:round;fill-opacity:1"
       id="path99" /><path
       d="m 26.239225,5.8099813 c -0.452302,0 -0.812985,0.153905 -1.082104,0.4614705 -0.266859,0.3053041 -0.400493,0.7462313 -0.400493,1.3229167 v 0.2408122 c 0,0.5766854 0.134474,1.0176126 0.403593,1.3229166 0.26912,0.3053041 0.631158,0.45837 1.085722,0.45837 0.452302,0 0.811629,-0.1530659 1.078487,-0.45837 0.26912,-0.305304 0.403593,-0.7462312 0.403593,-1.3229166 V 7.5943685 c 0,-0.5766854 -0.134473,-1.0176126 -0.403593,-1.3229167 C 27.057572,5.9638863 26.696051,5.8099813 26.239225,5.8099813 Z m 0,0.7973673 c 0.352796,0 0.529167,0.3289201 0.529167,0.9870199 v 0.3017904 c -0.01131,0.6151311 -0.185484,0.922941 -0.522449,0.922941 -0.352796,0 -0.529166,-0.3280809 -0.529166,-0.9839192 V 7.5333903 c 0.01131,-0.6173926 0.185483,-0.9260417 0.522448,-0.9260417 z"
       style="font-weight:bold;font-size:6.94737px;font-family:'Roboto Condensed';-inkscape-font-specification:'Roboto Condensed,  Bold';letter-spacing:0px;fill:#f07109;stroke-width:1.95394;stroke-linecap:square;stroke-linejoin:round;fill-opacity:1"
       id="path98" /><path
       d="m 19.644279,4.609021 v 4.9392334 h 1.000972 V 8.2119019 l -0.09147,-2.04587 0.983403,3.3822225 h 0.682129 l 0.983402,-3.3822225 -0.09147,2.04587 v 1.3363525 h 1.000972 V 4.609021 H 22.80946 L 21.879801,8.1777954 20.947042,4.609021 Z"
       style="font-weight:bold;font-size:6.94737px;font-family:'Roboto Condensed';-inkscape-font-specification:'Roboto Condensed,  Bold';letter-spacing:0px;fill:#f07109;stroke-width:1.95394;stroke-linecap:square;stroke-linejoin:round;fill-opacity:1"
       id="path97" /><path
       d="m 32.291052,4.4157511 c -0.160567,0 -0.288455,0.048483 -0.383439,0.1457276 -0.09498,0.094983 -0.142627,0.2171261 -0.142627,0.3663859 0,0.1469982 0.04764,0.2691409 0.142627,0.3663859 0.09498,0.094983 0.222872,0.1426269 0.383439,0.1426269 0.158306,0 0.284839,-0.047644 0.379822,-0.1426269 0.09498,-0.097245 0.14211,-0.2193877 0.14211,-0.3663859 0,-0.1492598 -0.04713,-0.2714024 -0.14211,-0.3663859 -0.09498,-0.097245 -0.221516,-0.1457276 -0.379822,-0.1457276 z"
       style="font-weight:bold;font-size:6.94737px;font-family:'Roboto Condensed';-inkscape-font-specification:'Roboto Condensed,  Bold';letter-spacing:0px;fill:#f07109;stroke-width:1.95394;stroke-linecap:square;stroke-linejoin:round;fill-opacity:1"
       id="path96" /><path
       d="m 30.095837,4.3377197 v 1.8386475 c -0.185443,-0.2442432 -0.421789,-0.3663859 -0.709,-0.3663859 -0.398027,0 -0.69654,0.1503542 -0.895553,0.4511352 -0.196751,0.2985195 -0.295072,0.7451925 -0.295072,1.3399699 v 0.2614828 c 0.0023,0.5676393 0.105489,1.001465 0.309025,1.3022461 0.203536,0.3007809 0.496304,0.451652 0.878499,0.451652 0.314351,0 0.568771,-0.1481594 0.763261,-0.4444173 l 0.04393,0.3798217 0.868681,-0.00362 V 4.3377197 Z m -0.430464,2.2727295 c 0.192228,0 0.335481,0.091736 0.430464,0.2749186 v 1.6691488 c -0.09272,0.1718748 -0.23733,0.2578654 -0.434082,0.2578654 -0.19449,0 -0.327607,-0.077211 -0.399975,-0.2309937 C 29.191673,8.4253441 29.15636,8.1788639 29.15636,7.8418986 V 7.6010864 c 0,-0.3482727 0.03751,-0.6004986 0.112138,-0.7565429 0.07463,-0.1560444 0.206908,-0.2340943 0.396875,-0.2340943 z"
       style="font-weight:bold;font-size:6.94737px;font-family:'Roboto Condensed';-inkscape-font-specification:'Roboto Condensed,  Bold';letter-spacing:0px;fill:#f07109;stroke-width:1.95394;stroke-linecap:square;stroke-linejoin:round;fill-opacity:1"
       id="path95" /><path
       d="m 35.150309,4.2664062 c -0.447779,1e-7 -0.798326,0.1234986 -1.051615,0.3700033 -0.251029,0.2465048 -0.3784,0.6027973 -0.382923,1.0686686 v 0.1731161 h -0.444417 v 0.7224365 h 0.444417 v 2.9476237 h 0.959632 V 6.6006307 h 0.56689 V 5.8781942 h -0.56689 V 5.7221313 c 0.0023,-0.3957645 0.182183,-0.5937622 0.539502,-0.5937622 0.232935,0 0.489551,0.050678 0.769979,0.1524455 L 36.123893,4.4669108 C 35.74396,4.3334816 35.41943,4.2664062 35.150309,4.2664062 Z"
       style="font-weight:bold;font-size:6.94737px;font-family:'Roboto Condensed';-inkscape-font-specification:'Roboto Condensed,  Bold';letter-spacing:0px;fill:#f07109;stroke-width:1.95394;stroke-linecap:square;stroke-linejoin:round;fill-opacity:1"
       id="path94" /></g></svg>
